<?xml version="1.0" encoding="UTF-8"?>
<svg version="1.1" xmlns="http://www.w3.org/2000/svg" width="245" height="375">
<path d="M0 0 C2.31 0 4.62 0 7 0 C6.34 5.28 5.68 10.56 5 16 C7.1346875 15.2575 7.1346875 15.2575 9.3125 14.5 C12.13135886 13.51952735 13.98509443 13 17 13 C16.67 14.98 16.34 16.96 16 19 C16.7425 18.7525 16.7425 18.7525 17.5 18.5 C24.55951009 17.08809798 31.09728262 18.41576978 38 20 C38 21.32 38 22.64 38 24 C37.34 24.66 36.68 25.32 36 26 C37.11375 26.433125 38.2275 26.86625 39.375 27.3125 C43 29 43 29 45 32 C45 32.66 45 33.32 45 34 C49.10373667 36.05186834 54.79994816 35.70075725 59.109375 34.328125 C60.75400048 33.58312371 62.37855036 32.79417942 64 32 C64.99 32 65.98 32 67 32 C66.44385089 41.35864707 64.88422562 47.64471797 59 55 C60.14544077 58.43632231 61.2711508 59.33471585 64 61.625 C64.721875 62.23601563 65.44375 62.84703125 66.1875 63.4765625 C66.785625 63.97929688 67.38375 64.48203125 68 65 C68.33 65.33 68.66 65.66 69 66 C74.15197086 66.17765417 78.92193071 65.84634488 84 65 C84.3125 67.75 84.3125 67.75 84 71 C81.875 72.9375 81.875 72.9375 79 75 C77.99530682 76.14475765 77.01735809 77.31335578 76.0625 78.5 C73.3546061 81.77057315 70.63884134 83.83402301 67 86 C68.05630262 87.64570159 68.05630262 87.64570159 70 89 C73.62535976 89.2503577 73.62535976 89.2503577 77 89 C75.60372635 93.88695779 73.02479939 96.02164845 69 99 C68.3090625 99.25394531 67.618125 99.50789063 66.90625 99.76953125 C64.71790576 100.90742626 64.71790576 100.90742626 64.0234375 103.75 C63.80945313 104.8225 63.59546875 105.895 63.375 107 C62.18731118 112.81268882 62.18731118 112.81268882 60 115 C63.32561865 116.76062164 64.59173995 117.10784228 68.3125 116.125 C69.199375 115.75375 70.08625 115.3825 71 115 C70.49890042 119.38462134 69.01704885 121.8000997 66 125 C65.34 125 64.68 125 64 125 C63.62101562 125.92619141 63.62101562 125.92619141 63.234375 126.87109375 C61.79768218 129.34893421 60.82821435 129.90829939 58.25 131.0625 C57.5384375 131.39507812 56.826875 131.72765625 56.09375 132.0703125 C54.3131913 132.86093371 52.53169492 133.64944263 50.75 134.4375 C47.65206782 136.19768874 46.03414053 138.10526155 44 141 C44.76560456 142.2739902 45.53772626 143.54406512 46.3125 144.8125 C46.74175781 145.52019531 47.17101562 146.22789062 47.61328125 146.95703125 C48.92506467 148.88960231 50.29403845 150.41410612 52 152 C48.96474514 154.02350324 47.80573798 154.32124018 44.3125 154.625 C43.50425781 154.69976562 42.69601563 154.77453125 41.86328125 154.8515625 C40.94095703 154.92503906 40.94095703 154.92503906 40 155 C40.33 156.32 40.66 157.64 41 159 C43.64 159 46.28 159 49 159 C50.46133311 163.64651427 49.39260421 166.39346788 47.5625 170.8125 C47.08941406 171.97394531 46.61632812 173.13539063 46.12890625 174.33203125 C45.75636719 175.21246094 45.38382813 176.09289062 45 177 C46.258125 176.773125 47.51625 176.54625 48.8125 176.3125 C52.4740099 175.65222772 52.4740099 175.65222772 54.66015625 177.09765625 C56.46714613 179.66326579 56.95484331 182.06879092 57.625 185.125 C58.19026853 188.87096828 58.19026853 188.87096828 60 192 C60.04092937 194.33297433 60.04241723 196.66705225 60 199 C61.0725 199.0825 62.145 199.165 63.25 199.25 C71.41033775 200.29731608 79.76944081 202.29834604 85 209 C85.61875 209.70253906 86.2375 210.40507812 86.875 211.12890625 C89.52905105 214.71480243 91.22948118 218.42210367 93 222.5 C93.35392822 223.30099121 93.70785645 224.10198242 94.07250977 224.92724609 C96.02439995 229.43549441 97.64616033 233.8762025 98.9375 238.625 C100.87355415 245.48366716 104.30717076 251.21951899 107.8828125 257.32421875 C110.27459336 261.41564198 112.2094937 265.6160284 114 270 C114.495 271.0725 114.99 272.145 115.5 273.25 C117.3960608 277.68450285 118.71091915 282.31594037 120.08203125 286.93359375 C120.74875765 289.16074364 121.48028546 291.36881355 122.25 293.5625 C123.39841553 298.82607116 124.31041062 303.69355698 123 309 C120.10074198 312.1847062 116.81362615 314.05913669 113 316 C112.34 316.35835938 111.68 316.71671875 111 317.0859375 C109.69075503 317.77203222 108.34925789 318.39638463 107 319 C107.11534604 320.56324232 107.24275126 322.12559683 107.375 323.6875 C107.47941406 324.99267578 107.47941406 324.99267578 107.5859375 326.32421875 C107.88397715 328.9889937 107.88397715 328.9889937 108.96875 331.25 C110.44772676 335.19393804 110.72310322 339.13870315 111.125 343.3125 C111.25455078 344.56643555 111.25455078 344.56643555 111.38671875 345.84570312 C111.59765542 347.8964763 111.79971646 349.94815903 112 352 C112.928125 351.319375 113.85625 350.63875 114.8125 349.9375 C115.864375 349.298125 116.91625 348.65875 118 348 C118.99 348.33 119.98 348.66 121 349 C123 356 123 356 123 375 C64.59 375 6.18 375 -54 375 C-54.33 368.73 -54.66 362.46 -55 356 C-56.65 353.69 -58.3 351.38 -60 349 C-60.91683046 344.69089685 -59.85084513 342.50011312 -57.5625 338.9375 C-57.11003906 338.30714844 -56.65757813 337.67679687 -56.19140625 337.02734375 C-54.64628558 334.65162196 -54.64628558 334.65162196 -54 330 C-58.62 329.67 -63.24 329.34 -68 329 C-68.33 330.65 -68.66 332.3 -69 334 C-69.33333333 335.33333333 -69.66666667 336.66666667 -70 338 C-70.88207514 341.87853629 -71.24459461 345.65709481 -71.5 349.625 C-71.81348035 354.37120247 -72.54219351 358.4550739 -74 363 C-74.51289462 365.61616018 -74.98682986 368.23571335 -75.4375 370.86328125 C-76 373 -76 373 -78 375 C-79.91091919 375.24050903 -79.91091919 375.24050903 -82.26611328 375.22705078 C-83.14687531 375.22689972 -84.02763733 375.22674866 -84.93508911 375.22659302 C-85.88721283 375.21627045 -86.83933655 375.20594788 -87.8203125 375.1953125 C-89.28100662 375.19106766 -89.28100662 375.19106766 -90.77120972 375.18673706 C-93.88926349 375.17551913 -97.00703268 375.1504117 -100.125 375.125 C-102.23567294 375.11497228 -104.34635038 375.10584607 -106.45703125 375.09765625 C-111.63821936 375.07727392 -116.81879018 375.03812828 -122 375 C-122 368.07 -122 361.14 -122 354 C-121.34 354.33 -120.68 354.66 -120 355 C-119.34 353.02 -118.68 351.04 -118 349 C-116.02 349.33 -114.04 349.66 -112 350 C-110.05053438 344.38553902 -108.31218739 338.79728689 -107 333 C-106.70222656 331.75669922 -106.70222656 331.75669922 -106.3984375 330.48828125 C-104.79785965 323.7133638 -104.79785965 323.7133638 -106 317 C-108.68819268 314.7628112 -108.68819268 314.7628112 -112 313 C-118.57256321 308.95534572 -118.57256321 308.95534572 -120 305 C-119.68577418 297.11285105 -116.63272419 289.52721725 -113.8125 282.25 C-113.41466309 281.20448975 -113.01682617 280.15897949 -112.60693359 279.08178711 C-109.87539867 271.99936191 -106.89206929 265.10944343 -103.5078125 258.31640625 C-100.77965322 252.3158694 -99.00393482 246.08339802 -97.23828125 239.7421875 C-93.68829927 227.01251922 -90.07176793 215.22831238 -83 204 C-82.34 204 -81.68 204 -81 204 C-80.67 203.01 -80.34 202.02 -80 201 C-74.47789929 198.066384 -67.22872186 196.59814698 -61 197 C-61.680625 196.278125 -62.36125 195.55625 -63.0625 194.8125 C-65 192 -65 192 -64.80859375 189.71484375 C-63.85530556 186.51419016 -62.52247086 183.72174601 -61 180.75 C-60.46375 179.69296875 -59.9275 178.6359375 -59.375 177.546875 C-58 175 -58 175 -57 174 C-54.80949979 174.09017996 -52.621534 174.24666208 -50.4375 174.4375 C-49.23996094 174.53933594 -48.04242188 174.64117187 -46.80859375 174.74609375 C-45.88175781 174.82988281 -44.95492187 174.91367188 -44 175 C-44.27714844 174.31292969 -44.55429688 173.62585938 -44.83984375 172.91796875 C-45.20207031 172.01691406 -45.56429687 171.11585938 -45.9375 170.1875 C-46.29714844 169.29417969 -46.65679687 168.40085938 -47.02734375 167.48046875 C-48.75292057 163.07990136 -49.08922893 159.7291332 -49 155 C-48.34 154.67 -47.68 154.34 -47 154 C-44.03 156.475 -44.03 156.475 -41 159 C-39.10786631 156.61426621 -37.97608217 154.92824652 -37 152 C-37.969375 152.165 -38.93875 152.33 -39.9375 152.5 C-44.29487763 153.13396273 -48.60630704 153.0896672 -53 153 C-52.04476793 150.35474197 -51.14300693 148.18876915 -49.4375 145.9375 C-47.87307457 143.8289266 -47.3228921 142.59277536 -47 140 C-48.72835201 136.5057231 -51.42710332 133.63992374 -55.0546875 132.1640625 C-56.55171074 131.75384617 -58.04912403 131.34505128 -59.546875 130.9375 C-64.35135672 129.10139233 -68.44608107 125.67379318 -72 122 C-72.78125 119.74609375 -72.78125 119.74609375 -73 118 C-72.37351563 117.79503906 -71.74703125 117.59007813 -71.1015625 117.37890625 C-70.28429687 117.10949219 -69.46703125 116.84007813 -68.625 116.5625 C-67.81289062 116.29566406 -67.00078125 116.02882813 -66.1640625 115.75390625 C-63.98968201 115.04820271 -63.98968201 115.04820271 -62 114 C-62 110.7 -62 107.4 -62 104 C-62.79664063 103.89042969 -63.59328125 103.78085938 -64.4140625 103.66796875 C-70.1472414 102.81008432 -75.02580893 102.03978343 -80 99 C-78.74874616 95.24623848 -77.4347596 94.75926711 -74 93 C-73.34 93 -72.68 93 -72 93 C-72.495 89.535 -72.495 89.535 -73 86 C-71.741875 86.391875 -70.48375 86.78375 -69.1875 87.1875 C-67.02975117 87.78882719 -67.02975117 87.78882719 -65 88 C-63.07994865 86.74882038 -63.07994865 86.74882038 -62 85 C-61.34 85 -60.68 85 -60 85 C-62.19371329 82.63328093 -64.43370841 81.04189686 -67.1875 79.375 C-73.37634227 75.30978008 -78.59972288 70.32565816 -81.5 63.4375 C-81.7475 62.2309375 -81.7475 62.2309375 -82 61 C-80.72125 61.061875 -79.4425 61.12375 -78.125 61.1875 C-72.71303412 61.20462647 -68.07087148 59.76656714 -63 58 C-62.01 57.67 -61.02 57.34 -60 57 C-60 56.34 -60 55.68 -60 55 C-58.70766393 53.62689293 -57.37562854 52.28965176 -56 51 C-56.556875 50.360625 -57.11375 49.72125 -57.6875 49.0625 C-62.30512045 42.94727291 -65.83430292 37.84244741 -65 30 C-61.48585093 30.42855476 -58.80697545 31.08773843 -55.5625 32.5625 C-49.31853625 35.08199414 -44.17590651 34.18528404 -38.00390625 31.9921875 C-35.18641559 30.59717263 -33.80990546 28.52093975 -32 26 C-29.25 24.6875 -29.25 24.6875 -27 24 C-29.05233685 21.7522025 -30.00667261 20.9977758 -33 20 C-32.505 18.515 -32.505 18.515 -32 17 C-25.73 16.67 -19.46 16.34 -13 16 C-13 15.34 -13 14.68 -13 14 C-8.24126419 14.55334137 -6.34289662 15.39426203 -2 18 C-1.34 12.06 -0.68 6.12 0 0 Z M32 161 C31.01 162.485 31.01 162.485 30 164 C29.01 164.66 28.02 165.32 27 166 C30.71888239 165.49287967 33.73454239 164.88391785 37 163 C36.34 162.34 35.68 161.68 35 161 C34.01 161 33.02 161 32 161 Z M66.375 331.5 C65.92125 331.995 65.4675 332.49 65 333 C65.57944932 334.99863756 65.57944932 334.99863756 67 337 C70.04199472 338.29231642 70.04199472 338.29231642 73 339 C72.44271087 335.65626525 71.64826111 332.96687001 70 330 C67.87635519 329.77390663 67.87635519 329.77390663 66.375 331.5 Z M73 339 C72.67386719 339.90363281 72.34773437 340.80726563 72.01171875 341.73828125 C71.57472656 342.91777344 71.13773438 344.09726562 70.6875 345.3125 C70.25824219 346.48425781 69.82898438 347.65601563 69.38671875 348.86328125 C68.13488469 351.69489462 67.22406018 352.98464928 65 355 C65 355.66 65 356.32 65 357 C68.3 357 71.6 357 75 357 C75.09945415 350.88909517 75.0712828 345.02596573 74 339 C73.67 339 73.34 339 73 339 Z M76 362 C77 364 77 364 77 364 Z M77 365 C77 366.98 77 368.96 77 371 C78.32 370.34 79.64 369.68 81 369 C79.68 367.68 78.36 366.36 77 365 Z " fill="#524654" transform="translate(122,0)"/>
<path d="M0 0 C2.31 0 4.62 0 7 0 C6.34 5.28 5.68 10.56 5 16 C7.1346875 15.2575 7.1346875 15.2575 9.3125 14.5 C12.13135886 13.51952735 13.98509443 13 17 13 C16.67 14.98 16.34 16.96 16 19 C16.495 18.835 16.99 18.67 17.5 18.5 C24.55951009 17.08809798 31.09728262 18.41576978 38 20 C38 21.32 38 22.64 38 24 C37.34 24.66 36.68 25.32 36 26 C37.11375 26.433125 38.2275 26.86625 39.375 27.3125 C43 29 43 29 45 32 C45 32.66 45 33.32 45 34 C49.10373667 36.05186834 54.79994816 35.70075725 59.109375 34.328125 C60.75400048 33.58312371 62.37855036 32.79417942 64 32 C64.99 32 65.98 32 67 32 C66.44385089 41.35864707 64.88422562 47.64471797 59 55 C60.14544077 58.43632231 61.2711508 59.33471585 64 61.625 C64.721875 62.23601563 65.44375 62.84703125 66.1875 63.4765625 C66.785625 63.97929688 67.38375 64.48203125 68 65 C68.33 65.33 68.66 65.66 69 66 C74.15197086 66.17765417 78.92193071 65.84634488 84 65 C84.3125 67.75 84.3125 67.75 84 71 C81.875 72.9375 81.875 72.9375 79 75 C77.99530682 76.14475765 77.01735809 77.31335578 76.0625 78.5 C73.3546061 81.77057315 70.63884134 83.83402301 67 86 C68.05630262 87.64570159 68.05630262 87.64570159 70 89 C73.62535976 89.2503577 73.62535976 89.2503577 77 89 C75.60372635 93.88695779 73.02479939 96.02164845 69 99 C68.3090625 99.25394531 67.618125 99.50789063 66.90625 99.76953125 C64.71790576 100.90742626 64.71790576 100.90742626 64.0234375 103.75 C63.80945313 104.8225 63.59546875 105.895 63.375 107 C62.18731118 112.81268882 62.18731118 112.81268882 60 115 C63.32561865 116.76062164 64.59173995 117.10784228 68.3125 116.125 C69.199375 115.75375 70.08625 115.3825 71 115 C70.49890042 119.38462134 69.01704885 121.8000997 66 125 C65.34 125 64.68 125 64 125 C63.62101562 125.92619141 63.62101562 125.92619141 63.234375 126.87109375 C61.79768218 129.34893421 60.82821435 129.90829939 58.25 131.0625 C57.5384375 131.39507812 56.826875 131.72765625 56.09375 132.0703125 C54.3131913 132.86093371 52.53169492 133.64944263 50.75 134.4375 C47.65206782 136.19768874 46.03414053 138.10526155 44 141 C44.76560456 142.2739902 45.53772626 143.54406512 46.3125 144.8125 C46.74175781 145.52019531 47.17101562 146.22789062 47.61328125 146.95703125 C48.92506467 148.88960231 50.29403845 150.41410612 52 152 C48.96474514 154.02350324 47.80573798 154.32124018 44.3125 154.625 C43.10013672 154.73714844 43.10013672 154.73714844 41.86328125 154.8515625 C41.24839844 154.90054688 40.63351563 154.94953125 40 155 C40.33 157.64 40.66 160.28 41 163 C37.87709365 162.51421457 35.00419641 162.0013988 32 161 C31.76539063 161.62390625 31.53078125 162.2478125 31.2890625 162.890625 C29.63176925 165.60255941 28.3858401 165.88975997 25.375 166.75 C24.14910156 167.11351562 24.14910156 167.11351562 22.8984375 167.484375 C22.27195312 167.65453125 21.64546875 167.8246875 21 168 C21.0928125 169.31355469 21.185625 170.62710938 21.28125 171.98046875 C21.35630237 173.7160548 21.42910095 175.45173933 21.5 177.1875 C21.60054687 178.48397461 21.60054687 178.48397461 21.703125 179.80664062 C21.78335701 182.42420982 21.74887866 184.48586726 21 187 C18.59983499 189.30066407 15.98060611 190.58648595 13 192 C8.95555273 195.25802697 7.11645644 199.36180824 5 204 C3.05979578 202.13740395 1.21127479 200.26339297 -0.47265625 198.1640625 C-6.1620233 191.14314146 -12.66182708 187.33526917 -21 184 C-21 178.39 -21 172.78 -21 167 C-22.65 166.67 -24.3 166.34 -26 166 C-27.80859375 164.51953125 -27.80859375 164.51953125 -29.4375 162.8125 C-31.14169314 161.14870993 -31.14169314 161.14870993 -33 160 C-36.40125706 160.43637654 -36.40125706 160.43637654 -39 162 C-38.54177532 158.53058454 -38.10868317 155.32604951 -37 152 C-37.969375 152.165 -38.93875 152.33 -39.9375 152.5 C-44.29487763 153.13396273 -48.60630704 153.0896672 -53 153 C-52.04476793 150.35474197 -51.14300693 148.18876915 -49.4375 145.9375 C-47.87307457 143.8289266 -47.3228921 142.59277536 -47 140 C-48.72835201 136.5057231 -51.42710332 133.63992374 -55.0546875 132.1640625 C-56.55171074 131.75384617 -58.04912403 131.34505128 -59.546875 130.9375 C-64.35135672 129.10139233 -68.44608107 125.67379318 -72 122 C-72.78125 119.74609375 -72.78125 119.74609375 -73 118 C-72.37351562 117.79503906 -71.74703125 117.59007813 -71.1015625 117.37890625 C-70.28429687 117.10949219 -69.46703125 116.84007813 -68.625 116.5625 C-67.81289062 116.29566406 -67.00078125 116.02882813 -66.1640625 115.75390625 C-63.98968201 115.04820271 -63.98968201 115.04820271 -62 114 C-62 110.7 -62 107.4 -62 104 C-62.79664062 103.89042969 -63.59328125 103.78085938 -64.4140625 103.66796875 C-70.1472414 102.81008432 -75.02580893 102.03978343 -80 99 C-78.74874616 95.24623848 -77.4347596 94.75926711 -74 93 C-73.34 93 -72.68 93 -72 93 C-72.33 90.69 -72.66 88.38 -73 86 C-71.741875 86.391875 -70.48375 86.78375 -69.1875 87.1875 C-67.02975117 87.78882719 -67.02975117 87.78882719 -65 88 C-63.07994865 86.74882038 -63.07994865 86.74882038 -62 85 C-61.34 85 -60.68 85 -60 85 C-62.19371329 82.63328093 -64.43370841 81.04189686 -67.1875 79.375 C-73.37634227 75.30978008 -78.59972288 70.32565816 -81.5 63.4375 C-81.665 62.633125 -81.83 61.82875 -82 61 C-80.72125 61.061875 -79.4425 61.12375 -78.125 61.1875 C-72.71303412 61.20462647 -68.07087148 59.76656714 -63 58 C-61.515 57.505 -61.515 57.505 -60 57 C-60 56.34 -60 55.68 -60 55 C-58.70766393 53.62689293 -57.37562854 52.28965176 -56 51 C-56.556875 50.360625 -57.11375 49.72125 -57.6875 49.0625 C-62.30512045 42.94727291 -65.83430292 37.84244741 -65 30 C-61.48585093 30.42855476 -58.80697545 31.08773843 -55.5625 32.5625 C-49.31853625 35.08199414 -44.17590651 34.18528404 -38.00390625 31.9921875 C-35.18641559 30.59717263 -33.80990546 28.52093975 -32 26 C-29.25 24.6875 -29.25 24.6875 -27 24 C-29.05233685 21.7522025 -30.00667261 20.9977758 -33 20 C-32.505 18.515 -32.505 18.515 -32 17 C-25.73 16.67 -19.46 16.34 -13 16 C-13 15.34 -13 14.68 -13 14 C-8.24126419 14.55334137 -6.34289662 15.39426203 -2 18 C-1.34 12.06 -0.68 6.12 0 0 Z " fill="#C5B7C3" transform="translate(122,0)"/>
<path d="M0 0 C3.0625 1.9375 3.0625 1.9375 5 5 C5.55715593 8.08869939 5.68996881 10.92963879 5 14 C3.42598906 15.91504665 2.21842891 16.89078554 0 18 C-0.65555119 20.52733235 -0.65555119 20.52733235 -1 23 C-0.34 23 0.32 23 1 23 C1.06731323 24.07761597 1.06731323 24.07761597 1.13598633 25.17700195 C1.91487431 37.33948819 2.69493044 49.40869431 4.82128906 61.41748047 C6.36920953 70.51296802 7.10251471 79.70472281 7.90991211 88.88964844 C8.60948287 96.6688356 9.58141494 104.31816053 11 112 C11.68175293 112.01981934 12.36350586 112.03963867 13.06591797 112.06005859 C25.70106791 112.44166416 38.28071095 112.96037758 50.875 114.0625 C79.35268097 116.59548025 79.35268097 116.59548025 107 111 C108.94097088 110.51922727 110.8824405 110.03959281 112.83178711 109.59399414 C127.12936489 106.31216275 144.36419095 101.95371357 153 89 C153.61352863 93.15154373 153.84644985 96.87097635 153 101 C150.12538864 104.2088685 146.81362584 106.05913685 143 108 C142.34 108.35835938 141.68 108.71671875 141 109.0859375 C139.69075503 109.77203222 138.34925789 110.39638463 137 111 C137.11534604 112.56324232 137.24275126 114.12559683 137.375 115.6875 C137.47941406 116.99267578 137.47941406 116.99267578 137.5859375 118.32421875 C137.88397715 120.9889937 137.88397715 120.9889937 138.96875 123.25 C140.44772676 127.19393804 140.72310322 131.13870315 141.125 135.3125 C141.21136719 136.14845703 141.29773438 136.98441406 141.38671875 137.84570312 C141.59765542 139.8964763 141.79971646 141.94815903 142 144 C142.928125 143.319375 143.85625 142.63875 144.8125 141.9375 C145.864375 141.298125 146.91625 140.65875 148 140 C148.99 140.33 149.98 140.66 151 141 C153 148 153 148 153 167 C94.59 167 36.18 167 -24 167 C-24.33 160.73 -24.66 154.46 -25 148 C-26.65 145.69 -28.3 143.38 -30 141 C-30.91683046 136.69089685 -29.85084513 134.50011312 -27.5625 130.9375 C-27.11003906 130.30714844 -26.65757813 129.67679688 -26.19140625 129.02734375 C-24.64628558 126.65162196 -24.64628558 126.65162196 -24 122 C-30.93 121.505 -30.93 121.505 -38 121 C-38.33 122.65 -38.66 124.3 -39 126 C-39.33333333 127.33333333 -39.66666667 128.66666667 -40 130 C-40.88207514 133.87853629 -41.24459461 137.65709481 -41.5 141.625 C-41.81348035 146.37120247 -42.54219351 150.4550739 -44 155 C-44.51289462 157.61616018 -44.98682986 160.23571335 -45.4375 162.86328125 C-46 165 -46 165 -48 167 C-49.91091919 167.24050903 -49.91091919 167.24050903 -52.26611328 167.22705078 C-53.14687531 167.22689972 -54.02763733 167.22674866 -54.93508911 167.22659302 C-55.88721283 167.21627045 -56.83933655 167.20594788 -57.8203125 167.1953125 C-58.79410858 167.1924826 -59.76790466 167.18965271 -60.77120972 167.18673706 C-63.88926349 167.17551913 -67.00703268 167.1504117 -70.125 167.125 C-72.23567294 167.11497228 -74.34635038 167.10584607 -76.45703125 167.09765625 C-81.63821936 167.07727392 -86.81879018 167.03812828 -92 167 C-92 160.07 -92 153.14 -92 146 C-91.34 146.33 -90.68 146.66 -90 147 C-89.34 145.02 -88.68 143.04 -88 141 C-86.02 141.33 -84.04 141.66 -82 142 C-80.05053438 136.38553902 -78.31218739 130.79728689 -77 125 C-76.80148438 124.17113281 -76.60296875 123.34226562 -76.3984375 122.48828125 C-74.79785965 115.7133638 -74.79785965 115.7133638 -76 109 C-78.68819268 106.7628112 -78.68819268 106.7628112 -82 105 C-89.09090909 100.63636364 -89.09090909 100.63636364 -90 97 C-89.84797408 94.27401802 -89.45044491 91.70266946 -89 89 C-88.443125 89.7425 -87.88625 90.485 -87.3125 91.25 C-84.26649201 94.87227977 -81.52272135 97.49242622 -77 99 C-77 99.66 -77 100.32 -77 101 C-76.21625 101.24878906 -75.4325 101.49757813 -74.625 101.75390625 C-71.81501184 102.71983968 -69.07165305 103.74355347 -66.3125 104.83984375 C-52.97850466 110.1245443 -40.41586641 114.03672782 -26 115 C-25.92652344 113.91332031 -25.92652344 113.91332031 -25.8515625 112.8046875 C-25.77679688 111.83789062 -25.70203125 110.87109375 -25.625 109.875 C-25.55539063 108.92367187 -25.48578125 107.97234375 -25.4140625 106.9921875 C-25 104 -25 104 -24.0300293 101.19335938 C-23.01648746 98.05111541 -22.50317014 95.1862114 -22.10546875 91.9140625 C-21.95706543 90.74746094 -21.80866211 89.58085937 -21.65576172 88.37890625 C-21.50123535 87.14011719 -21.34670898 85.90132813 -21.1875 84.625 C-19.66813097 72.98479068 -17.59276797 61.59002859 -15.09765625 50.125 C-13.79067598 44.11659696 -12.78804356 38.09777395 -12 32 C-11.91121582 31.31341309 -11.82243164 30.62682617 -11.73095703 29.91943359 C-11.13454583 25.28190905 -10.56014304 20.64203647 -10 16 C-10.66 16 -11.32 16 -12 16 C-13.85432153 12.29135694 -13.44400994 8.04832596 -13 4 C-10.21393039 -1.08760537 -5.23994182 -1.04425887 0 0 Z M96.375 123.5 C95.92125 123.995 95.4675 124.49 95 125 C95.57944932 126.99863756 95.57944932 126.99863756 97 129 C100.04199472 130.29231642 100.04199472 130.29231642 103 131 C102.44271087 127.65626525 101.64826111 124.96687001 100 122 C97.87635519 121.77390663 97.87635519 121.77390663 96.375 123.5 Z M103 131 C102.67386719 131.90363281 102.34773437 132.80726563 102.01171875 133.73828125 C101.57472656 134.91777344 101.13773438 136.09726562 100.6875 137.3125 C100.25824219 138.48425781 99.82898438 139.65601563 99.38671875 140.86328125 C98.13488469 143.69489462 97.22406018 144.98464928 95 147 C95 147.66 95 148.32 95 149 C98.3 149 101.6 149 105 149 C105.09945415 142.88909517 105.0712828 137.02596573 104 131 C103.67 131 103.34 131 103 131 Z M106 154 C107 156 107 156 107 156 Z M107 157 C107 158.98 107 160.96 107 163 C108.32 162.34 109.64 161.68 111 161 C109.68 159.68 108.36 158.36 107 157 Z " fill="#A49C96" transform="translate(92,208)"/>
<path d="M0 0 C2.625 -0.1875 2.625 -0.1875 5 0 C5.495 1.485 5.495 1.485 6 3 C8.31847874 3.7166207 10.65319703 4.38242027 13 5 C15 7 15 7 15.375 8.875 C15.85181993 11.19533436 15.85181993 11.19533436 18.0625 12.8125 C20 15 20 15 20.25 18.75 C20.1675 19.8225 20.085 20.895 20 22 C18.68 22 17.36 22 16 22 C16 21.34 16 20.68 16 20 C15.34 20 14.68 20 14 20 C14.185625 20.94875 14.37125 21.8975 14.5625 22.875 C15 26 15 26 14 28 C12.35 28 10.7 28 9 28 C7.79172045 30.63776466 7.79172045 30.63776466 8 34 C9.91255637 36.10424767 11.95419699 37.76271606 14.21484375 39.484375 C14.80394531 39.98453125 15.39304687 40.4846875 16 41 C16 41.66 16 42.32 16 43 C18.60662244 42.74503693 21.20905522 42.47179707 23.8125 42.1875 C24.55048828 42.11724609 25.28847656 42.04699219 26.04882812 41.97460938 C30.0745442 41.51921163 32.40162394 41.17970765 35 38 C39.42105263 38.42105263 39.42105263 38.42105263 41 40 C43.33297433 40.04092937 45.66705225 40.04241723 48 40 C46.60372635 44.88695779 44.02479939 47.02164845 40 50 C39.3090625 50.25394531 38.618125 50.50789063 37.90625 50.76953125 C35.71790576 51.90742626 35.71790576 51.90742626 35.0234375 54.75 C34.80945313 55.8225 34.59546875 56.895 34.375 58 C33.18731118 63.81268882 33.18731118 63.81268882 31 66 C34.32561865 67.76062164 35.59173995 68.10784228 39.3125 67.125 C40.199375 66.75375 41.08625 66.3825 42 66 C41.49890042 70.38462134 40.01704885 72.8000997 37 76 C36.34 76 35.68 76 35 76 C34.62101562 76.92619141 34.62101562 76.92619141 34.234375 77.87109375 C32.79768218 80.34893421 31.82821435 80.90829939 29.25 82.0625 C28.18265625 82.56136719 28.18265625 82.56136719 27.09375 83.0703125 C25.3131913 83.86093371 23.53169492 84.64944263 21.75 85.4375 C18.65206782 87.19768874 17.03414053 89.10526155 15 92 C15.76560456 93.2739902 16.53772626 94.54406512 17.3125 95.8125 C17.74175781 96.52019531 18.17101562 97.22789062 18.61328125 97.95703125 C19.92506467 99.88960231 21.29403845 101.41410612 23 103 C19.96474514 105.02350324 18.80573798 105.32124018 15.3125 105.625 C14.10013672 105.73714844 14.10013672 105.73714844 12.86328125 105.8515625 C12.24839844 105.90054688 11.63351563 105.94953125 11 106 C11.495 109.96 11.495 109.96 12 114 C8.87709365 113.51421457 6.00419641 113.0013988 3 112 C2.76539063 112.62390625 2.53078125 113.2478125 2.2890625 113.890625 C0.63176925 116.60255941 -0.6141599 116.88975997 -3.625 117.75 C-4.85089844 118.11351562 -4.85089844 118.11351562 -6.1015625 118.484375 C-6.72804688 118.65453125 -7.35453125 118.8246875 -8 119 C-7.9071875 120.31355469 -7.814375 121.62710938 -7.71875 122.98046875 C-7.64369763 124.7160548 -7.57089905 126.45173933 -7.5 128.1875 C-7.39945313 129.48397461 -7.39945313 129.48397461 -7.296875 130.80664062 C-7.21664299 133.42420982 -7.25112134 135.48586726 -8 138 C-10.40016501 140.30066407 -13.01939389 141.58648595 -16 143 C-20.04444727 146.25802697 -21.88354356 150.36180824 -24 155 C-25.94020422 153.13740395 -27.78872521 151.26339297 -29.47265625 149.1640625 C-35.1620233 142.14314146 -41.66182708 138.33526917 -50 135 C-50 129.39 -50 123.78 -50 118 C-51.65 117.67 -53.3 117.34 -55 117 C-56.80859375 115.51953125 -56.80859375 115.51953125 -58.4375 113.8125 C-60.14169314 112.14870993 -60.14169314 112.14870993 -62 111 C-65.40125706 111.43637654 -65.40125706 111.43637654 -68 113 C-67.54177532 109.53058454 -67.10868317 106.32604951 -66 103 C-66.969375 103.165 -67.93875 103.33 -68.9375 103.5 C-73.29487763 104.13396273 -77.60630704 104.0896672 -82 104 C-81.04476793 101.35474197 -80.14300693 99.18876915 -78.4375 96.9375 C-76.40868188 94.24639996 -76.40868188 94.24639996 -76 91 C-77.20458219 89.46985506 -78.41996762 87.94437443 -79.73046875 86.50390625 C-81.41758856 84.50531816 -82.14016754 82.45666417 -83 80 C-83.53625 79.0925 -84.0725 78.185 -84.625 77.25 C-86.36760736 73.13110988 -86.64886128 69.4240542 -86 65 C-85.34 64.01 -84.68 63.02 -84 62 C-82.35 64.97 -80.7 67.94 -79 71 C-78.96261719 70.19175781 -78.92523438 69.38351563 -78.88671875 68.55078125 C-78.82097656 67.48214844 -78.75523438 66.41351563 -78.6875 65.3125 C-78.62949219 64.25675781 -78.57148437 63.20101562 -78.51171875 62.11328125 C-77.95743627 58.74104356 -77.04487745 56.72145419 -75 54 C-74.34 54 -73.68 54 -73 54 C-73 56.31 -73 58.62 -73 61 C-72.5875 59.845 -72.175 58.69 -71.75 57.5 C-70.603677 54.48081126 -69.40625173 51.49963324 -68.0625 48.5625 C-67.76472656 47.90378906 -67.46695313 47.24507812 -67.16015625 46.56640625 C-65.64592381 44.52193753 -64.40979851 44.57329884 -62 44 C-61.28293018 42.01751285 -60.61709587 40.01584651 -60 38 C-59.01 37.34 -58.02 36.68 -57 36 C-56.566875 34.7315625 -56.566875 34.7315625 -56.125 33.4375 C-55.75375 32.633125 -55.3825 31.82875 -55 31 C-52.5 30.125 -52.5 30.125 -50 30 C-49.34 30.33 -48.68 30.66 -48 31 C-47.53173645 32.90650162 -47.06868825 34.81454051 -46.640625 36.73046875 C-45.76478791 39.83328184 -44.34421384 42.51534545 -42.8046875 45.3359375 C-42 47 -42 47 -42 49 C-41.34 49 -40.68 49 -40 49 C-39.505 50.98 -39.505 50.98 -39 53 C-38.34 53 -37.68 53 -37 53 C-36.319375 54.4540625 -36.319375 54.4540625 -35.625 55.9375 C-34.34213779 59.07079582 -34.34213779 59.07079582 -32 60 C-31.27306096 61.97888961 -30.60183749 63.97954558 -30 66 C-28.02 65.505 -28.02 65.505 -26 65 C-26 65.66 -26 66.32 -26 67 C-25.34 67 -24.68 67 -24 67 C-24.33 66.505 -24.66 66.01 -25 65.5 C-26.43636358 61.90909106 -26.12851462 58.85543873 -26 55 C-24.68 55 -23.36 55 -22 55 C-21.67 55.99 -21.34 56.98 -21 58 C-20.34 58 -19.68 58 -19 58 C-19.33 56.35 -19.66 54.7 -20 53 C-20.66 53 -21.32 53 -22 53 C-22.42963818 48.49285229 -21.26388229 46.39854138 -18.6875 42.75 C-15.443973 37.91097288 -13.5594536 33.59568645 -12 28 C-8.37 28 -4.74 28 -1 28 C-0.505 26.515 -0.505 26.515 0 25 C0.66 25 1.32 25 2 25 C1.505 24.2265625 1.505 24.2265625 1 23.4375 C-0.32010877 20.21973488 -0.13242105 17.4429472 0 14 C0.66 14 1.32 14 2 14 C2 12.68 2 11.36 2 10 C0.68 9.67 -0.64 9.34 -2 9 C-2.25 3.375 -2.25 3.375 0 0 Z " fill="#F0DDE6" transform="translate(151,49)"/>
<path d="M0 0 C2.18478846 3.2771827 2.33643098 4.64723246 2.59765625 8.48828125 C2.67693359 9.58849609 2.75621094 10.68871094 2.83789062 11.82226562 C2.91201172 12.97404297 2.98613281 14.12582031 3.0625 15.3125 C3.14048828 16.42173828 3.21847656 17.53097656 3.29882812 18.67382812 C3.45701144 20.93415004 3.61144188 23.19473758 3.76220703 25.45556641 C4.15464947 31.30513451 4.57911587 37.15242057 5 43 C6.15725586 42.98428955 6.15725586 42.98428955 7.33789062 42.96826172 C22.78485625 42.7886987 38.14306133 42.93903844 53.5625 43.9375 C54.24731445 43.98106628 54.93212891 44.02463257 55.63769531 44.06951904 C66.73102063 44.78757796 66.73102063 44.78757796 71.06860352 45.51367188 C73.87182101 45.97873469 76.56153943 46.1995928 79.3984375 46.31640625 C80.37167969 46.35830078 81.34492188 46.40019531 82.34765625 46.44335938 C83.34667969 46.48267578 84.34570312 46.52199219 85.375 46.5625 C86.39722656 46.60568359 87.41945313 46.64886719 88.47265625 46.69335938 C90.98165288 46.79887792 93.49073943 46.90099213 96 47 C96.99 49.97 96.99 49.97 98 53 C99.65 53.33 101.3 53.66 103 54 C104.30249153 57.59855032 103.69931441 59.58099473 102.25 63.0625 C101.90453125 63.91972656 101.5590625 64.77695312 101.203125 65.66015625 C100.02494041 67.95149577 99.00154794 69.39349442 97 71 C96.34 71 95.68 71 95 71 C95 71.99 95 72.98 95 74 C81.14 74 67.28 74 53 74 C52.505 75.485 52.505 75.485 52 77 C47.05 77.33 42.1 77.66 37 78 C37 80.31 37 82.62 37 85 C38.65 85.33 40.3 85.66 42 86 C42 87.65 42 89.3 42 91 C20.55 91 -0.9 91 -23 91 C-23.33 84.73 -23.66 78.46 -24 72 C-25.65 69.69 -27.3 67.38 -29 65 C-29.66918429 61.85483384 -29.61986281 60.08109931 -28.0078125 57.26953125 C-27.14029882 55.96287245 -26.26339233 54.66241782 -25.37890625 53.3671875 C-22.78264656 48.91015245 -21.46804103 43.92080793 -20 39 C-18.43867691 38.8029398 -16.87584736 38.61779845 -15.3125 38.4375 C-14.00732422 38.28087891 -14.00732422 38.28087891 -12.67578125 38.12109375 C-9.92938525 37.9968043 -7.66205127 38.35247402 -5 39 C-5.01160156 38.22914063 -5.02320312 37.45828125 -5.03515625 36.6640625 C-5.04417969 35.66117187 -5.05320312 34.65828125 -5.0625 33.625 C-5.07410156 32.62726563 -5.08570312 31.62953125 -5.09765625 30.6015625 C-5 28 -5 28 -4 26 C-3.80468369 24.55174841 -3.65661425 23.09693166 -3.53515625 21.640625 C-3.41817383 20.33738281 -3.41817383 20.33738281 -3.29882812 19.0078125 C-3.14263357 17.18511245 -2.98894275 15.36219592 -2.83789062 13.5390625 C-2.40327662 8.74770807 -1.78758003 4.51756627 0 0 Z " fill="#E1DCDD" transform="translate(91,284)"/>
<path d="M0 0 C2.86471354 10.94320573 5.07000978 21.71775018 6 33 C6.928125 32.319375 7.85625 31.63875 8.8125 30.9375 C9.864375 30.298125 10.91625 29.65875 12 29 C13.485 29.495 13.485 29.495 15 30 C17 37 17 37 17 56 C-19.96 56 -56.92 56 -95 56 C-95.33 54.35 -95.66 52.7 -96 51 C-97.32 50.67 -98.64 50.34 -100 50 C-100 47.69 -100 45.38 -100 43 C-98.92878906 42.87882812 -97.85757813 42.75765625 -96.75390625 42.6328125 C-95.35671248 42.46402399 -93.95958009 42.29472687 -92.5625 42.125 C-91.85544922 42.04636719 -91.14839844 41.96773438 -90.41992188 41.88671875 C-88.60326568 41.66072324 -86.79937478 41.33699273 -85 41 C-84.67 40.34 -84.34 39.68 -84 39 C-80.02982643 37.67660881 -76.30326443 37.98787069 -72.17578125 38.12109375 C-70.88367989 38.15651024 -70.88367989 38.15651024 -69.56547546 38.19264221 C-66.81431325 38.2692128 -64.0634372 38.3532656 -61.3125 38.4375 C-59.44727963 38.4907273 -57.58204529 38.54346765 -55.71679688 38.59570312 C-51.14435004 38.72481904 -46.57214579 38.86064577 -42 39 C-41.67 38.01 -41.34 37.02 -41 36 C-41 36.66 -41 37.32 -41 38 C-40.0925 37.814375 -39.185 37.62875 -38.25 37.4375 C-35.24339146 37.03276424 -33.8119538 37.17475269 -31 38 C-32.14776411 24.21328092 -32.14776411 24.21328092 -36 11 C-30.56229148 4.64400296 -19.83325537 3.62309676 -12 1.75 C-10.90534424 1.4871521 -10.90534424 1.4871521 -9.78857422 1.21899414 C-6.40468565 0.43848998 -3.49413435 0 0 0 Z M-30 43 C-29 45 -29 45 -29 45 Z M-29 46 C-29 47.98 -29 49.96 -29 52 C-27.68 51.34 -26.36 50.68 -25 50 C-26.32 48.68 -27.64 47.36 -29 46 Z " fill="#61637F" transform="translate(228,319)"/>
<path d="M0 0 C12.8974015 4.65345805 22.44472369 13.08216198 28.25 25.25 C31.19819711 31.6628159 33.56265331 38.06779669 35 45 C31.58535811 48.41464189 27.68447393 48.2227546 23 48.375 C17.36457678 48.32718429 17.36457678 48.32718429 14.5625 45.8125 C14.046875 44.884375 13.53125 43.95625 13 43 C11.35216394 41.31471312 9.68997323 39.64302953 8 38 C8.66 36.35 9.32 34.7 10 33 C11.65 33 13.3 33 15 33 C15 30.36 15 27.72 15 25 C15.66 25 16.32 25 17 25 C17 25.66 17 26.32 17 27 C18.32 27 19.64 27 21 27 C20.74445946 25.53890937 20.46999628 24.08111904 20.1875 22.625 C20.03667969 21.81289062 19.88585937 21.00078125 19.73046875 20.1640625 C19.12455058 17.64179359 19.12455058 17.64179359 16 16 C15.773125 15.195625 15.54625 14.39125 15.3125 13.5625 C13.75174906 10.5153196 12.98703018 10.33605244 9.875 9.1875 C8.58908793 8.77335394 7.29886417 8.37153556 6 8 C6 7.01 6 6.02 6 5 C3.52733235 5.34444881 3.52733235 5.34444881 1 6 C-0.35439668 8.70879335 -0.06501451 11.00933268 0 14 C0.99 14.33 1.98 14.66 3 15 C3 16.32 3 17.64 3 19 C2.34 19 1.68 19 1 19 C1.74359673 24.55053286 1.74359673 24.55053286 3 30 C2.34 30 1.68 30 1 30 C0.67 31.32 0.34 32.64 0 34 C-7.09949056 33.19628409 -7.09949056 33.19628409 -10.34765625 32.48828125 C-19.22842537 30.55290498 -27.9655424 30.65252086 -37 31 C-37.69319336 31.01981934 -38.38638672 31.03963867 -39.10058594 31.06005859 C-52.12651307 31.55523306 -64.02175677 36.41771393 -73.65625 45.2734375 C-75.94773049 47.31233176 -76.78204542 47.95551947 -79.87109375 48.5859375 C-80.71800781 48.51632813 -81.56492187 48.44671875 -82.4375 48.375 C-83.30246094 48.32085937 -84.16742188 48.26671875 -85.05859375 48.2109375 C-85.69925781 48.14132813 -86.33992188 48.07171875 -87 48 C-85.90362628 34.40496584 -81.48201594 20.84803834 -72.00390625 10.69140625 C-68.28727227 7.55436431 -63.01067535 4 -58 4 C-56.68 6.31 -55.36 8.62 -54 11 C-53.01 9.02 -52.02 7.04 -51 5 C-50.443125 5.721875 -49.88625 6.44375 -49.3125 7.1875 C-45.82601042 11.42782517 -42.94611104 14.52694448 -38 17 C-38.495 9.575 -38.495 9.575 -39 2 C-38.34 3.32 -37.68 4.64 -37 6 C-36.05028457 7.3544688 -35.06975139 8.68775392 -34.0625 10 C-33.55847656 10.66 -33.05445313 11.32 -32.53515625 12 C-31.47223971 13.38476658 -30.39573492 14.75916906 -29.30859375 16.125 C-28 18 -28 18 -28 20 C-27.34 20 -26.68 20 -26 20 C-26.04640625 19.26394531 -26.0928125 18.52789062 -26.140625 17.76953125 C-26.43659382 9.76780292 -26.43659382 9.76780292 -24.1875 5.8125 C-22 4 -22 4 -19 4 C-19 8.29 -19 12.58 -19 17 C-14.66965806 13.15080717 -12.3439244 9.27710354 -10 4 C-9.67 4 -9.34 4 -9 4 C-8.505 9.445 -8.505 9.445 -8 15 C-4.80553958 13.40276979 -4.16730037 10.10023512 -2.875 6.9375 C-2.45927734 5.94266602 -2.45927734 5.94266602 -2.03515625 4.92773438 C-1.35079847 3.28763557 -0.6746225 1.64412717 0 0 Z " fill="#655E6B" transform="translate(150,44)"/>
<path d="M0 0 C4.54759567 0.62201157 8.56304055 1.81816562 12.875 3.375 C19.13580015 5.57478335 25.34181398 6.99285157 31.89599609 8.01123047 C36.80481207 8.80481207 36.80481207 8.80481207 39 11 C38.34 11 37.68 11 37 11 C36.814375 11.9590625 36.814375 11.9590625 36.625 12.9375 C36.28755412 14.59098481 35.93833144 16.24313586 35.5234375 17.87890625 C34.38904114 22.47575119 33.80442348 26.89556385 33.5 31.625 C33.18651965 36.37120247 32.45780649 40.4550739 31 45 C30.48710538 47.61616018 30.01317014 50.23571335 29.5625 52.86328125 C29 55 29 55 27 57 C25.08908081 57.24050903 25.08908081 57.24050903 22.73388672 57.22705078 C21.85312469 57.22689972 20.97236267 57.22674866 20.06491089 57.22659302 C19.11278717 57.21627045 18.16066345 57.20594788 17.1796875 57.1953125 C15.71899338 57.19106766 15.71899338 57.19106766 14.22879028 57.18673706 C11.11073651 57.17551913 7.99296732 57.1504117 4.875 57.125 C2.76432706 57.11497228 0.65364962 57.10584607 -1.45703125 57.09765625 C-6.63821936 57.07727392 -11.81879018 57.03812828 -17 57 C-17 50.07 -17 43.14 -17 36 C-16.34 36.33 -15.68 36.66 -15 37 C-14.34 35.02 -13.68 33.04 -13 31 C-11.02 31.33 -9.04 31.66 -7 32 C-3.48121286 21.86589303 0.26924676 10.82756594 0 0 Z " fill="#61637E" transform="translate(17,318)"/>
<path d="M0 0 C3.35298161 1.11766054 4.54724099 2.54724099 7 5 C7.66 5 8.32 5 9 5 C9 5.99 9 6.98 9 8 C10.98 7.01 12.96 6.02 15 5 C15.61488281 5.49371094 16.22976562 5.98742187 16.86328125 6.49609375 C18.07564453 7.45708984 18.07564453 7.45708984 19.3125 8.4375 C20.11300781 9.07558594 20.91351563 9.71367187 21.73828125 10.37109375 C23.98697277 12.16111355 23.98697277 12.16111355 27 13 C27 18.61 27 24.22 27 30 C28.65 30.33 30.3 30.66 32 31 C40.3635832 35.00699002 47.69529654 40.64381092 52 49 C54.0822343 46.03559542 54.0822343 46.03559542 55.5625 42.6875 C58.1612361 38.04337084 62.37058898 35.43982472 67 33 C67.66 33 68.32 33 69 33 C69 26.73 69 20.46 69 14 C75.45472104 10.77263948 81.90432442 9.76025095 89 9 C88.505 7.02 88.505 7.02 88 5 C90.97 5 93.94 5 97 5 C98.46133311 9.64651427 97.39260421 12.39346788 95.5625 16.8125 C94.85287109 18.55466797 94.85287109 18.55466797 94.12890625 20.33203125 C93.75636719 21.21246094 93.38382812 22.09289062 93 23 C94.299375 22.814375 95.59875 22.62875 96.9375 22.4375 C99.15234375 22.12109375 99.15234375 22.12109375 101 22 C102 23 102 23 102.375 25.375 C102 28 102 28 99.875 29.625 C98.92625 30.07875 97.9775 30.5325 97 31 C96.21753906 31.46664062 95.43507813 31.93328125 94.62890625 32.4140625 C88.2797457 35.18883019 81.35567633 36.13953962 74.56445312 37.3984375 C67.227039 38.93074888 62.43497594 40.76727807 58 47 C56.54930036 49.73168335 56.54930036 49.73168335 56 52 C51.08901402 52.96465796 51.08901402 52.96465796 48 52 C45.63233855 49.39909309 43.79573019 46.63025199 41.85546875 43.69921875 C37.46046077 37.30563872 30.20171027 35.07061796 23 33 C21.54784601 32.78607784 20.08824541 32.61587395 18.625 32.5 C8.16927245 31.65980761 -1.12259639 27.3371164 -10 22 C-9.67 21.34 -9.34 20.68 -9 20 C-4.71 20.33 -0.42 20.66 4 21 C3.0409375 18.6178125 3.0409375 18.6178125 2.0625 16.1875 C-0.09113001 10.83816095 -1.2164153 6.84321312 -1 1 C-0.67 0.67 -0.34 0.34 0 0 Z " fill="#ACA09E" transform="translate(74,154)"/>
<path d="M0 0 C2.625 -0.1875 2.625 -0.1875 5 0 C5.33 0.99 5.66 1.98 6 3 C8.31847874 3.7166207 10.65319703 4.38242027 13 5 C15 7 15 7 15.375 8.875 C15.85181993 11.19533436 15.85181993 11.19533436 18.0625 12.8125 C20 15 20 15 20.25 18.75 C20.1675 19.8225 20.085 20.895 20 22 C18.68 22 17.36 22 16 22 C16 21.34 16 20.68 16 20 C15.34 20 14.68 20 14 20 C14.185625 20.94875 14.37125 21.8975 14.5625 22.875 C15 26 15 26 14 28 C12.35 28 10.7 28 9 28 C7.79172045 30.63776466 7.79172045 30.63776466 8 34 C9.91255637 36.10424767 11.95419699 37.76271606 14.21484375 39.484375 C14.80394531 39.98453125 15.39304688 40.4846875 16 41 C16 41.66 16 42.32 16 43 C18.60662244 42.74503693 21.20905522 42.47179707 23.8125 42.1875 C24.55048828 42.11724609 25.28847656 42.04699219 26.04882812 41.97460938 C30.0745442 41.51921163 32.40162394 41.17970765 35 38 C39.42105263 38.42105263 39.42105263 38.42105263 41 40 C43.33297433 40.04092937 45.66705225 40.04241723 48 40 C46.60372635 44.88695779 44.02479939 47.02164845 40 50 C39.3090625 50.25394531 38.618125 50.50789063 37.90625 50.76953125 C35.71790576 51.90742626 35.71790576 51.90742626 35.0234375 54.75 C34.80945313 55.8225 34.59546875 56.895 34.375 58 C33.18731118 63.81268882 33.18731118 63.81268882 31 66 C34.32561865 67.76062164 35.59173995 68.10784228 39.3125 67.125 C40.6428125 66.568125 40.6428125 66.568125 42 66 C41.49890042 70.38462134 40.01704885 72.8000997 37 76 C36.34 76 35.68 76 35 76 C34.61908203 76.92619141 34.61908203 76.92619141 34.23046875 77.87109375 C32.80777408 80.33258136 31.86549526 80.9038715 29.3125 82.0625 C28.60738281 82.38863281 27.90226562 82.71476562 27.17578125 83.05078125 C26.45777344 83.36402344 25.73976562 83.67726563 25 84 C23.96939453 84.45439453 23.96939453 84.45439453 22.91796875 84.91796875 C21.28484062 85.6264337 19.64324029 86.31531655 18 87 C17.67 86.01 17.34 85.02 17 84 C18.1446875 83.01 18.1446875 83.01 19.3125 82 C24.10873979 77.12200612 25.17180086 71.76155966 25.25 65.0625 C25.44983369 61.72032922 25.44983369 61.72032922 24 59 C23.66226563 60.05960938 23.32453125 61.11921875 22.9765625 62.2109375 C22.52636008 63.59906164 22.07582175 64.98707687 21.625 66.375 C21.29242188 67.42300781 21.29242188 67.42300781 20.953125 68.4921875 C19.2265625 73.7734375 19.2265625 73.7734375 17 76 C17 69.07 17 62.14 17 55 C16.34 54.67 15.68 54.34 15 54 C15 55.98 15 57.96 15 60 C13 58.625 13 58.625 11 57 C11 56.34 11 55.68 11 55 C10.34 55 9.68 55 9 55 C7.58984375 53.015625 7.58984375 53.015625 5.9375 50.25 C2.55936332 44.76407637 -1.14148038 39.72245824 -5.08203125 34.62890625 C-6.66909848 32.45355748 -7.90629706 30.44781135 -9 28 C-6.36 28 -3.72 28 -1 28 C-0.67 27.01 -0.34 26.02 0 25 C0.66 25 1.32 25 2 25 C1.67 24.484375 1.34 23.96875 1 23.4375 C-0.32010877 20.21973488 -0.13242105 17.4429472 0 14 C0.66 14 1.32 14 2 14 C2 12.68 2 11.36 2 10 C0.68 9.67 -0.64 9.34 -2 9 C-2.25 3.375 -2.25 3.375 0 0 Z " fill="#C7B8C5" transform="translate(151,49)"/>
<path d="M0 0 C0.33 0 0.66 0 1 0 C3.9296875 21.97265625 3.9296875 21.97265625 4.19622803 23.97761536 C4.64009051 27.31420099 5.08781775 30.65017476 5.54394531 33.98510742 C6.61073472 41.8370931 7.5117109 49.67616286 8.2109375 57.56835938 C8.82479955 64.10387344 9.85949066 70.53688305 11 77 C11.68175293 77.01981934 12.36350586 77.03963867 13.06591797 77.06005859 C25.70106791 77.44166416 38.28071095 77.96037758 50.875 79.0625 C79.35268097 81.59548025 79.35268097 81.59548025 107 76 C108.94097088 75.51922727 110.8824405 75.03959281 112.83178711 74.59399414 C127.12936489 71.31216275 144.36419095 66.95371357 153 54 C153.61352863 58.15154373 153.84644985 61.87097635 153 66 C150.12300567 69.21152855 146.82140511 71.0677684 143 73 C142.15308594 73.49371094 141.30617187 73.98742187 140.43359375 74.49609375 C135.35656526 76.71982068 130.08263575 77.78775183 124.6875 79 C117.91350494 80.53826972 111.26012554 82.09197463 104.71801758 84.44921875 C103 85 103 85 101 85 C101 85.66 101 86.32 101 87 C95.46790011 89.37743136 90.68298631 89.10628922 84.8125 88.75 C83.94947266 88.71003906 83.08644531 88.67007813 82.19726562 88.62890625 C77.01591315 88.35562037 71.87945778 87.88407692 66.72717285 87.28933716 C53.78079227 85.81109354 40.82891161 85.33408311 27.8125 84.875 C25.49021244 84.78834627 23.16794653 84.70111021 20.84570312 84.61328125 C15.23069989 84.40216071 9.6154751 84.19815167 4 84 C0.74784621 57.91926125 0.74784621 57.91926125 0.2109375 46.6953125 C0.10136844 43.90202978 0.10136844 43.90202978 -1 41 C-1.14559269 39.67044962 -1.24658411 38.33567448 -1.31640625 37 C-1.35854248 36.20384277 -1.40067871 35.40768555 -1.4440918 34.58740234 C-1.4831665 33.73355957 -1.52224121 32.8797168 -1.5625 32 C-1.6035083 31.12166504 -1.6445166 30.24333008 -1.68676758 29.33837891 C-1.95906931 23.01849815 -2.1331172 16.7005136 -2.1875 10.375 C-2.20047119 9.56417969 -2.21344238 8.75335938 -2.22680664 7.91796875 C-2.22999205 5.94386687 -2.12445447 3.97017752 -2 2 C-1.34 1.34 -0.68 0.68 0 0 Z " fill="#A69D98" transform="translate(92,243)"/>
<path d="M0 0 C0.495 0.99 0.495 0.99 1 2 C1.9075 1.79375 2.815 1.5875 3.75 1.375 C7.11027897 0.9872755 8.24075815 1.19588033 11 3 C11 4.98 11 6.96 11 9 C11.66 9 12.32 9 13 9 C13 12.63 13 16.26 13 20 C-8.78 20 -30.56 20 -53 20 C-53.33 18.35 -53.66 16.7 -54 15 C-55.32 14.67 -56.64 14.34 -58 14 C-58 11.69 -58 9.38 -58 7 C-56.39318359 6.81824219 -56.39318359 6.81824219 -54.75390625 6.6328125 C-53.35671248 6.46402399 -51.95958009 6.29472687 -50.5625 6.125 C-49.85544922 6.04636719 -49.14839844 5.96773438 -48.41992188 5.88671875 C-46.60326568 5.66072324 -44.79937478 5.33699273 -43 5 C-42.67 4.34 -42.34 3.68 -42 3 C-38.02982643 1.67660881 -34.30326443 1.98787069 -30.17578125 2.12109375 C-28.88367989 2.15651024 -28.88367989 2.15651024 -27.56547546 2.19264221 C-24.81431325 2.2692128 -22.0634372 2.3532656 -19.3125 2.4375 C-17.44727963 2.4907273 -15.58204529 2.54346765 -13.71679688 2.59570312 C-9.14435004 2.72481904 -4.57214579 2.86064577 0 3 C0 2.01 0 1.02 0 0 Z " fill="#7C605A" transform="translate(186,355)"/>
<path d="M0 0 C0.33 0 0.66 0 1 0 C1.48293877 3.91621089 1.96063406 7.83304538 2.4375 11.75 C2.57220703 12.84183594 2.70691406 13.93367187 2.84570312 15.05859375 C4.1834241 26.08663499 5.17957226 37.01030674 5.1875 48.125 C5.19974609 49.03636719 5.21199219 49.94773437 5.22460938 50.88671875 C5.23629179 56.36187578 4.6606813 61.34178201 3.47436523 66.68310547 C2.80680604 69.94359786 2.61008283 73.18053454 2.4375 76.5 C2.10218978 82.79562044 2.10218978 82.79562044 1 85 C0.7724985 86.87056791 0.59037189 88.74685958 0.4375 90.625 C0.293125 92.39875 0.14875 94.1725 0 96 C-4.62 96 -9.24 96 -14 96 C-14.37688652 88.2823919 -13.09557027 81.05437726 -11.66394043 73.50167847 C-9.10311538 59.95841798 -6.97832524 46.4133684 -5.29394531 32.73364258 C-4.58410969 27.03701231 -3.74974823 21.48649537 -2.41943359 15.90161133 C-1.85007801 13.32028963 -1.61694677 10.75943137 -1.4375 8.125 C-1.22765319 5.11862321 -0.95947202 2.87841607 0 0 Z " fill="#50536F" transform="translate(86,227)"/>
<path d="M0 0 C-0.99 0.33 -1.98 0.66 -3 1 C-3.103125 1.86625 -3.20625 2.7325 -3.3125 3.625 C-4.36018192 8.76816579 -6.80117302 12.71250064 -9.625 17.0625 C-11.51848893 20.02498569 -12.66577265 22.43490821 -13 26 C-12.34 26 -11.68 26 -11 26 C-10.505 28.475 -10.505 28.475 -10 31 C-10.66 31 -11.32 31 -12 31 C-12.66 30.01 -13.32 29.02 -14 28 C-14.66 28 -15.32 28 -16 28 C-16.19814261 34.08408472 -16.19814261 34.08408472 -15 40 C-15.66 40 -16.32 40 -17 40 C-17 39.34 -17 38.68 -17 38 C-18.98 38.495 -18.98 38.495 -21 39 C-23 36 -23 36 -23 33 C-24.485 32.505 -24.485 32.505 -26 32 C-27.1875 28.9375 -27.1875 28.9375 -28 26 C-28.66 26 -29.32 26 -30 26 C-30.33 24.68 -30.66 23.36 -31 22 C-31.66 22 -32.32 22 -33 22 C-34.01501998 20.13308826 -35.01142079 18.25604656 -36 16.375 C-36.556875 15.33085938 -37.11375 14.28671875 -37.6875 13.2109375 C-39.0578255 9.85853405 -39.2580505 7.58045064 -39 4 C-40.65 3.67 -42.3 3.34 -44 3 C-43.67 2.34 -43.34 1.68 -43 1 C-42.34 1 -41.68 1 -41 1 C-41 0.34 -41 -0.32 -41 -1 C-27.42994057 -2.49004574 -13.35370151 -3.29430522 0 0 Z " fill="#C8BAC6" transform="translate(142,76)"/>
<path d="M0 0 C1.32 0.33 2.64 0.66 4 1 C5.55711074 1.08406811 7.1173852 1.11780938 8.67675781 1.11352539 C10.05773651 1.11341209 10.05773651 1.11341209 11.46661377 1.11329651 C12.45216248 1.10813522 13.43771118 1.10297394 14.453125 1.09765625 C15.97616241 1.09553383 15.97616241 1.09553383 17.52996826 1.09336853 C20.77000892 1.08777516 24.00998025 1.07522385 27.25 1.0625 C29.44791567 1.05748414 31.64583242 1.05292139 33.84375 1.04882812 C39.22919334 1.0378079 44.61458492 1.02054778 50 1 C50 5.95 50 10.9 50 16 C33.5 16 17 16 0 16 C0 10.72 0 5.44 0 0 Z " fill="#7D615C" transform="translate(68,359)"/>
<path d="M0 0 C2.97 0 5.94 0 9 0 C10.42599107 4.59774091 9.45297357 7.35372216 7.6875 11.75 C7.23761719 12.89984375 6.78773438 14.0496875 6.32421875 15.234375 C5 18 5 18 3 19 C2.61908203 20.21236328 2.61908203 20.21236328 2.23046875 21.44921875 C1 24 1 24 -1.57421875 25.14453125 C-2.60160156 25.36496094 -3.62898437 25.58539063 -4.6875 25.8125 C-5.70199219 26.04582031 -6.71648437 26.27914062 -7.76171875 26.51953125 C-11.21860038 27.03243407 -14.51027377 27.08340226 -18 27 C-18.08069658 24.04112541 -18.14034665 21.0844341 -18.1875 18.125 C-18.21263672 17.28324219 -18.23777344 16.44148438 -18.26367188 15.57421875 C-18.27333984 14.76855469 -18.28300781 13.96289062 -18.29296875 13.1328125 C-18.3086792 12.38918457 -18.32438965 11.64555664 -18.34057617 10.87939453 C-18.17199097 9.94909424 -18.17199097 9.94909424 -18 9 C-12.35851137 5.23900758 -5.6161913 4.70887764 1 4 C0.67 2.68 0.34 1.36 0 0 Z " fill="#63637E" transform="translate(162,159)"/>
<path d="M0 0 C3.35298161 1.11766054 4.54724099 2.54724099 7 5 C7.66 5 8.32 5 9 5 C9 5.99 9 6.98 9 8 C10.98 7.01 12.96 6.02 15 5 C15.61488281 5.49371094 16.22976562 5.98742187 16.86328125 6.49609375 C18.07564453 7.45708984 18.07564453 7.45708984 19.3125 8.4375 C20.11300781 9.07558594 20.91351563 9.71367187 21.73828125 10.37109375 C23.98697277 12.16111355 23.98697277 12.16111355 27 13 C27 18.28 27 23.56 27 29 C9.64409349 27.57738471 9.64409349 27.57738471 5.296875 23.33984375 C3.93586321 21.27782891 2.94122813 19.28357037 2 17 C1.68417969 16.24847656 1.36835937 15.49695313 1.04296875 14.72265625 C-0.72116153 10.01025344 -1.41802303 6.01627633 -1 1 C-0.67 0.67 -0.34 0.34 0 0 Z " fill="#61647F" transform="translate(74,154)"/>
<path d="M0 0 C2.625 -0.1875 2.625 -0.1875 5 0 C5.33 0.99 5.66 1.98 6 3 C8.31847874 3.7166207 10.65319703 4.38242027 13 5 C15 7 15 7 15.375 8.875 C15.85181993 11.19533436 15.85181993 11.19533436 18.0625 12.8125 C20 15 20 15 20.25 18.75 C20.1675 19.8225 20.085 20.895 20 22 C18.68 22 17.36 22 16 22 C16 21.34 16 20.68 16 20 C15.34 20 14.68 20 14 20 C14.185625 20.94875 14.37125 21.8975 14.5625 22.875 C15 26 15 26 14 28 C12.35 28 10.7 28 9 28 C8.87625 28.804375 8.7525 29.60875 8.625 30.4375 C8.41875 31.283125 8.2125 32.12875 8 33 C7.01 33.495 7.01 33.495 6 34 C3.8359375 33.22265625 3.8359375 33.22265625 1.375 32.0625 C0.55773437 31.68222656 -0.25953125 31.30195312 -1.1015625 30.91015625 C-1.72804687 30.60980469 -2.35453125 30.30945313 -3 30 C-1.625 27.5 -1.625 27.5 0 25 C0.66 25 1.32 25 2 25 C1.67 24.484375 1.34 23.96875 1 23.4375 C-0.32010877 20.21973488 -0.13242105 17.4429472 0 14 C0.66 14 1.32 14 2 14 C2 12.68 2 11.36 2 10 C0.68 9.67 -0.64 9.34 -2 9 C-2.25 3.375 -2.25 3.375 0 0 Z " fill="#9D8F83" transform="translate(151,49)"/>
<path d="M0 0 C1.65 0 3.3 0 5 0 C4.55065113 2.12691797 4.09023527 4.25150039 3.625 6.375 C3.24214844 8.15003906 3.24214844 8.15003906 2.8515625 9.9609375 C2 13 2 13 0 15 C3.32561865 16.76062164 4.59173995 17.10784228 8.3125 16.125 C9.6428125 15.568125 9.6428125 15.568125 11 15 C10.49890042 19.38462134 9.01704885 21.8000997 6 25 C5.34 25 4.68 25 4 25 C3.74605469 25.61746094 3.49210937 26.23492187 3.23046875 26.87109375 C1.80777408 29.33258136 0.86549526 29.9038715 -1.6875 31.0625 C-2.39261719 31.38863281 -3.09773437 31.71476562 -3.82421875 32.05078125 C-4.54222656 32.36402344 -5.26023438 32.67726562 -6 33 C-6.68707031 33.30292969 -7.37414062 33.60585937 -8.08203125 33.91796875 C-9.71515938 34.6264337 -11.35675971 35.31531655 -13 36 C-13.495 34.515 -13.495 34.515 -14 33 C-13.236875 32.34 -12.47375 31.68 -11.6875 31 C-4.81806974 23.95542846 -5.34796904 14.21518004 -5 5 C-4.01 4.67 -3.02 4.34 -2 4 C-0.79117904 1.99983534 -0.79117904 1.99983534 0 0 Z " fill="#C4B4BF" transform="translate(182,100)"/>
<path d="M0 0 C2.49919602 0.33772919 4.50337779 0.69528099 6.66796875 2.0234375 C9.11173974 5.64967833 8.10141044 10.35358828 7.8828125 14.57617188 C7.72434161 19.59001484 8.43209013 22.55109616 11 27 C11.6875 29.375 11.6875 29.375 12 31 C3.17592812 29.17432996 -2.35636837 24.89671447 -9 19 C-8.81640625 17.109375 -8.81640625 17.109375 -8 15 C-5.71484375 13.953125 -5.71484375 13.953125 -2.9375 13.25 C-2.01839844 13.00765625 -1.09929688 12.7653125 -0.15234375 12.515625 C0.55792969 12.34546875 1.26820312 12.1753125 2 12 C2.05395478 10.37536158 2.09277195 8.75021459 2.125 7.125 C2.15980469 5.76761719 2.15980469 5.76761719 2.1953125 4.3828125 C2.24324836 1.81193006 2.24324836 1.81193006 0 0 Z " fill="#C3B3BF" transform="translate(58,102)"/>
<path d="M0 0 C5.75 0.875 5.75 0.875 8 2 C7.89300781 2.94101562 7.78601562 3.88203125 7.67578125 4.8515625 C7.55589844 6.09679687 7.43601562 7.34203125 7.3125 8.625 C7.18488281 9.85476563 7.05726562 11.08453125 6.92578125 12.3515625 C7.00859221 16.42237508 7.97933507 18.5174713 10 22 C10.33 22.99 10.66 23.98 11 25 C6.38 25 1.76 25 -3 25 C-3 18.07 -3 11.14 -3 4 C-2.01 4.495 -2.01 4.495 -1 5 C-0.67 3.35 -0.34 1.7 0 0 Z " fill="#DFDCE0" transform="translate(3,350)"/>
<path d="M0 0 C6.93 0 13.86 0 21 0 C20.67 0.99 20.34 1.98 20 3 C15.05 3.33 10.1 3.66 5 4 C5 6.31 5 8.62 5 11 C6.65 11.33 8.3 11.66 10 12 C10 13.65 10 15.3 10 17 C5.05 17 0.1 17 -5 17 C-5 12.05 -5 7.1 -5 2 C-3.35 2 -1.7 2 0 2 C0 1.34 0 0.68 0 0 Z " fill="#B39F98" transform="translate(123,358)"/>
<path d="M0 0 C0.99 0.33 1.98 0.66 3 1 C5.25627454 6.62574412 5.24355018 11.9415967 5.125 17.9375 C5.11597656 18.81212891 5.10695312 19.68675781 5.09765625 20.58789062 C5.0742957 22.72538064 5.03843247 24.86272786 5 27 C0.71 27 -3.58 27 -8 27 C-7.01 25.35 -6.02 23.7 -5 22 C-4.67156441 19.85171518 -4.67156441 19.85171518 -4.8828125 17.71484375 C-4.91503906 16.93689453 -4.94726562 16.15894531 -4.98046875 15.35742188 C-5.07708421 13.73976568 -5.18129403 12.12254576 -5.29296875 10.50585938 C-5.51894677 4.58621765 -5.51894677 4.58621765 -2.6796875 1.37890625 C-1.35324219 0.69634766 -1.35324219 0.69634766 0 0 Z " fill="#E1DDDE" transform="translate(240,348)"/>
<path d="M0 0 C0.66 0.33 1.32 0.66 2 1 C1.67 1.99 1.34 2.98 1 4 C0.70170807 6.03783596 0.43664987 8.08057396 0.1875 10.125 C-0.7128483 17.25665892 -1.841383 24.34369847 -3 31.4375 C-4.54713555 40.9392947 -5.9165087 50.43391232 -7 60 C-7.33 60 -7.66 60 -8 60 C-8.33 58.35 -8.66 56.7 -9 55 C-9.66 55 -10.32 55 -11 55 C-11.33 56.32 -11.66 57.64 -12 59 C-12.31210172 52.12554889 -11.12802012 46.00461827 -9.625 39.3125 C-7.79775397 30.89055695 -6.18635976 22.53663217 -5 14 C-4.67198698 11.99912055 -4.33998544 9.99887994 -4 8 C-3.67 9.32 -3.34 10.64 -3 12 C-2.34 12 -1.68 12 -1 12 C-1.01160156 11.21753906 -1.02320312 10.43507812 -1.03515625 9.62890625 C-1.04417969 8.61699219 -1.05320312 7.60507813 -1.0625 6.5625 C-1.07410156 5.55316406 -1.08570312 4.54382813 -1.09765625 3.50390625 C-1 1 -1 1 0 0 Z " fill="#9A9392" transform="translate(85,226)"/>
<path d="M0 0 C10.11748844 0.74653313 10.11748844 0.74653313 15 3 C21.74142496 5.50013111 28.65581594 7.19418296 35.64453125 8.83984375 C39.11968634 10.04138166 40.68177882 11.20295228 43 14 C42.67 14.66 42.34 15.32 42 16 C41.38253906 15.79503906 40.76507813 15.59007812 40.12890625 15.37890625 C35.97399481 14.05717643 32.04720652 12.88664175 27.6875 12.5625 C17.20658506 11.60128734 7.91927523 7.36228972 -1 2 C-0.67 1.34 -0.34 0.68 0 0 Z " fill="#A29996" transform="translate(65,174)"/>
<path d="M0 0 C0.3125 2.3125 0.3125 2.3125 0 5 C-2.125 6.625 -2.125 6.625 -5 8 C-5.88945312 8.48597656 -6.77890625 8.97195312 -7.6953125 9.47265625 C-11.31780204 11.14688014 -14.85835479 12.05940166 -18.75 12.8125 C-19.42160156 12.95880859 -20.09320313 13.10511719 -20.78515625 13.25585938 C-22.734375 13.64453125 -22.734375 13.64453125 -26 14 C-26.66 13.34 -27.32 12.68 -28 12 C-28 11.01 -28 10.02 -28 9 C-26.94039062 8.76925781 -25.88078125 8.53851563 -24.7890625 8.30078125 C-23.40077719 7.97247053 -22.0127701 7.64298175 -20.625 7.3125 C-19.92632812 7.16361328 -19.22765625 7.01472656 -18.5078125 6.86132812 C-16.19659518 6.34231994 -16.19659518 6.34231994 -13 5 C-11.64607617 2.50029445 -11.64607617 2.50029445 -11 0 C-7.05525663 -1.22725349 -3.96209657 -1.04879027 0 0 Z " fill="#A49C98" transform="translate(176,177)"/>
<path d="M0 0 C2.91930671 2.62737604 4.83170683 5.74756025 7 9 C8.62351109 10.79394446 8.62351109 10.79394446 10 12 C6.96474514 14.02350324 5.80573798 14.32124018 2.3125 14.625 C1.50425781 14.69976562 0.69601563 14.77453125 -0.13671875 14.8515625 C-1.05904297 14.92503906 -1.05904297 14.92503906 -2 15 C-1.67 17.64 -1.34 20.28 -1 23 C-4.73487777 22.5020163 -6.81237635 22.12508244 -10 20 C-9.2884375 19.319375 -9.2884375 19.319375 -8.5625 18.625 C-6.90972192 17.06741796 -6.90972192 17.06741796 -6 15 C-5.34 15 -4.68 15 -4 15 C-3.34 13.02 -2.68 11.04 -2 9 C-1.34 9 -0.68 9 0 9 C-0.185625 8.071875 -0.37125 7.14375 -0.5625 6.1875 C-1 3 -1 3 0 0 Z " fill="#C5B4BC" transform="translate(164,140)"/>
<path d="M0 0 C8.90819642 3.21412948 18.1847938 9.42385108 24 17 C24 17.66 24 18.32 24 19 C23.34 19 22.68 19 22 19 C22 21.64 22 24.28 22 27 C21.67 27 21.34 27 21 27 C20.89042969 26.37351562 20.78085938 25.74703125 20.66796875 25.1015625 C20.43013672 23.87566406 20.43013672 23.87566406 20.1875 22.625 C20.03667969 21.81289062 19.88585937 21.00078125 19.73046875 20.1640625 C19.12455058 17.64179359 19.12455058 17.64179359 16 16 C15.6596875 14.7934375 15.6596875 14.7934375 15.3125 13.5625 C13.75174906 10.5153196 12.98703018 10.33605244 9.875 9.1875 C8.58908793 8.77335394 7.29886417 8.37153556 6 8 C6 7.01 6 6.02 6 5 C4.35 5.33 2.7 5.66 1 6 C0.7525 6.969375 0.505 7.93875 0.25 8.9375 C-0.1625 9.948125 -0.575 10.95875 -1 12 C-3.078125 12.69140625 -3.078125 12.69140625 -5 13 C-4.54554036 11.58208592 -4.08625056 10.16571954 -3.625 8.75 C-3.24214844 7.56664062 -3.24214844 7.56664062 -2.8515625 6.359375 C-2.04826333 4.13372042 -1.10288338 2.09068328 0 0 Z " fill="#70656D" transform="translate(150,44)"/>
<path d="M0 0 C2.99324263 1.0975223 3.84610901 1.67682892 5.25 4.625 C5.4975 5.40875 5.745 6.1925 6 7 C6.66 7 7.32 7 8 7 C8.99 9.31 9.98 11.62 11 14 C5.61509359 14.91657981 0.45769811 15.11138159 -5 15 C-4.04476793 12.35474197 -3.14300693 10.18876915 -1.4375 7.9375 C0.07654818 5.89682636 0.66601008 4.50492442 1 2 C0.67 1.34 0.34 0.68 0 0 Z " fill="#C8B9C3" transform="translate(74,138)"/>
<path d="M0 0 C8.58 0 17.16 0 26 0 C26 1.32 26 2.64 26 4 C17.75 4 9.5 4 1 4 C0.67 2.68 0.34 1.36 0 0 Z " fill="#C2BBBC" transform="translate(198,371)"/>
<path d="M0 0 C3.69418201 1.231394 5.35109746 3.20791354 8 6 C7.66226563 6.68449219 7.32453125 7.36898437 6.9765625 8.07421875 C5.80100652 11.59618446 6.00323416 14.13201818 6.375 17.8125 C6.48585938 18.97394531 6.59671875 20.13539063 6.7109375 21.33203125 C6.80632812 22.21246094 6.90171875 23.09289062 7 24 C4.26815328 21.62719599 3.14671379 19.36453411 1.875 16 C1.37613281 14.700625 1.37613281 14.700625 0.8671875 13.375 C-0.72717102 9.00846855 -1.17297082 5.67021208 -1 1 C-0.67 0.67 -0.34 0.34 0 0 Z " fill="#676275" transform="translate(74,154)"/>
<path d="M0 0 C0.99 0.33 1.98 0.66 3 1 C3.33 3.31 3.66 5.62 4 8 C3.19949219 8.34933594 2.39898437 8.69867188 1.57421875 9.05859375 C-1.31630419 10.82064736 -1.31630419 10.82064736 -1.85546875 14.28515625 C-1.96503906 15.53167969 -2.07460937 16.77820313 -2.1875 18.0625 C-2.82232346 24.82232346 -2.82232346 24.82232346 -5 27 C-5.99 26.67 -6.98 26.34 -8 26 C-7.50242188 25.525625 -7.00484375 25.05125 -6.4921875 24.5625 C-3.96052806 20.21493825 -4.95676659 15.4491654 -5.29296875 10.5546875 C-5.51944048 4.58764983 -5.51944048 4.58764983 -2.6796875 1.375 C-1.79539063 0.92125 -0.91109375 0.4675 0 0 Z " fill="#D1CACD" transform="translate(240,348)"/>
<path d="M0 0 C1.65 0 3.3 0 5 0 C4.57620166 2.10696905 4.1354597 4.21053527 3.6875 6.3125 C3.44386719 7.48425781 3.20023438 8.65601562 2.94921875 9.86328125 C2.03493091 12.88456988 1.57471877 14.2390195 -1 16 C-1.99 16 -2.98 16 -4 16 C-4.33 12.37 -4.66 8.74 -5 5 C-4.01 4.67 -3.02 4.34 -2 4 C-0.79117904 1.99983534 -0.79117904 1.99983534 0 0 Z " fill="#635C6A" transform="translate(182,100)"/>
<path d="M0 0 C0.99 0 1.98 0 3 0 C3.33 1.32 3.66 2.64 4 4 C4.66 4 5.32 4 6 4 C6.05389087 5.95803507 6.09274217 7.91648909 6.125 9.875 C6.14820312 10.96554688 6.17140625 12.05609375 6.1953125 13.1796875 C6 16 6 16 4 18 C3.59952556 20.32275177 3.2602896 22.65739357 3 25 C2.67 25 2.34 25 2 25 C-0.29612756 8.29157175 -0.29612756 8.29157175 0 0 Z " fill="#9D9792" transform="translate(87,227)"/>
<path d="M0 0 C2.05127844 3.07691766 2.27260872 3.93644999 2.4140625 7.44921875 C2.45273438 8.29677734 2.49140625 9.14433594 2.53125 10.01757812 C2.5621875 10.89865234 2.593125 11.77972656 2.625 12.6875 C2.66367188 13.58017578 2.70234375 14.47285156 2.7421875 15.39257812 C2.83640218 17.5948462 2.92201588 19.79710722 3 22 C2.34 21.34 1.68 20.68 1 20 C-0.32 20.99 -1.64 21.98 -3 23 C-3.433422 14.84524526 -2.29370226 7.82316305 0 0 Z " fill="#D6D3D9" transform="translate(91,284)"/>
<path d="M0 0 C0.33 0 0.66 0 1 0 C1 5.94 1 11.88 1 18 C2.98 18.33 4.96 18.66 7 19 C7 19.99 7 20.98 7 22 C3.96474514 24.02350324 2.80573798 24.32124018 -0.6875 24.625 C-1.49574219 24.69976562 -2.30398437 24.77453125 -3.13671875 24.8515625 C-4.05904297 24.92503906 -4.05904297 24.92503906 -5 25 C-5 24.34 -5 23.68 -5 23 C-5.66 22.67 -6.32 22.34 -7 22 C-2.25 19 -2.25 19 0 19 C0 12.73 0 6.46 0 0 Z " fill="#AFA6A8" transform="translate(143,168)"/>
<path d="M0 0 C4.84659077 0.59104765 8.60748167 1.97944157 13 4 C10.96804269 5.08854856 9.20150212 5.95725713 6.9375 6.4375 C4.59413001 7.11783322 3.58097427 8.18187959 2 10 C-0.4294516 6.3558226 -0.16179575 4.28758728 0 0 Z " fill="#C3ACB9" transform="translate(57,30)"/>
<path d="M0 0 C0.3125 2.8125 0.3125 2.8125 0 6 C-2.5 7.875 -2.5 7.875 -5 9 C-5.33 7.35 -5.66 5.7 -6 4 C-9.3 3.67 -12.6 3.34 -16 3 C-15.67 2.34 -15.34 1.68 -15 1 C-12.02148438 1.04882812 -12.02148438 1.04882812 -9.04296875 1.09765625 C-5.81352881 0.94328532 -3.35954434 0 0 0 Z " fill="#BEA9AF" transform="translate(206,65)"/>
<path d="M0 0 C3.77829252 0.39085785 5.63255891 2.12525011 8 5 C8 5.99 8 6.98 8 8 C5.03 8 2.06 8 -1 8 C-1.04241723 5.66705225 -1.04092937 3.33297433 -1 1 C-0.67 0.67 -0.34 0.34 0 0 Z " fill="#B39E97" transform="translate(172,367)"/>
<path d="M0 0 C2.63247289 0.35573958 4.53051446 0.65223294 6.6875 2.25 C8 4 8 4 8.07421875 6.26171875 C7.94660156 7.06222656 7.81898437 7.86273438 7.6875 8.6875 C7.50767578 9.89986328 7.50767578 9.89986328 7.32421875 11.13671875 C7.21722656 11.75160156 7.11023438 12.36648437 7 13 C5.35 13 3.7 13 2 13 C2.02320313 12.22914062 2.04640625 11.45828125 2.0703125 10.6640625 C2.08835938 9.66117188 2.10640625 8.65828125 2.125 7.625 C2.14820313 6.62726563 2.17140625 5.62953125 2.1953125 4.6015625 C2.27216848 1.83737827 2.27216848 1.83737827 0 0 Z " fill="#71646F" transform="translate(58,102)"/>
<path d="M0 0 C0.33 1.32 0.66 2.64 1 4 C2.98 4 4.96 4 7 4 C6.01 5.485 6.01 5.485 5 7 C-1.57791873 6.58955515 -7.74051886 6.13391403 -14 4 C-14 3.67 -14 3.34 -14 3 C-12.7625 2.87625 -11.525 2.7525 -10.25 2.625 C-6.63071699 2.18377999 -3.45037294 0 0 0 Z " fill="#AB8A80" transform="translate(63,323)"/>
<path d="M0 0 C5.61 0 11.22 0 17 0 C17 0.33 17 0.66 17 1 C14.03 1.66 11.06 2.32 8 3 C8 3.99 8 4.98 8 6 C8 6.66 8 7.32 8 8 C4.92346162 6.97448721 4.19203004 6.19203004 2 4 C1.01 3.67 0.02 3.34 -1 3 C-0.67 2.01 -0.34 1.02 0 0 Z " fill="#BEA8AC" transform="translate(90,17)"/>
<path d="M0 0 C1.61949011 2.57213134 2.04408751 3.67669159 1.625 6.75 C1.41875 7.4925 1.2125 8.235 1 9 C-1.31 9.33 -3.62 9.66 -6 10 C-6.33 8.35 -6.66 6.7 -7 5 C-6.01 5 -5.02 5 -4 5 C-4 4.34 -4 3.68 -4 3 C-3.01 2.67 -2.02 2.34 -1 2 C-0.67 1.34 -0.34 0.68 0 0 Z " fill="#A9A39C" transform="translate(70,318)"/>
<path d="M0 0 C0 0.66 0 1.32 0 2 C2.64 2.33 5.28 2.66 8 3 C8 3.33 8 3.66 8 4 C1.4 3.67 -5.2 3.34 -12 3 C-12 3.66 -12 4.32 -12 5 C-13.32 4.67 -14.64 4.34 -16 4 C-15.34 4 -14.68 4 -14 4 C-14 3.34 -14 2.68 -14 2 C-12.4176994 1.66179834 -10.83410625 1.32964061 -9.25 1 C-8.36828125 0.814375 -7.4865625 0.62875 -6.578125 0.4375 C-4 0 -4 0 0 0 Z " fill="#D5CECA" transform="translate(135,355)"/>
<path d="M0 0 C6.93 0 13.86 0 21 0 C20.67 0.99 20.34 1.98 20 3 C17.60385874 3.05425226 15.20896147 3.09379027 12.8125 3.125 C11.80219727 3.15013672 11.80219727 3.15013672 10.77148438 3.17578125 C6.71192193 3.21538674 3.65001185 2.80020002 0 1 C0 0.67 0 0.34 0 0 Z " fill="#BBADA6" transform="translate(123,358)"/>
<path d="M0 0 C2.97 0.495 2.97 0.495 6 1 C5.34 2.98 4.68 4.96 4 7 C2.02 7 0.04 7 -2 7 C-2.33 7.99 -2.66 8.98 -3 10 C-3 8.02 -3 6.04 -3 4 C-2.01 4.495 -2.01 4.495 -1 5 C-0.67 3.35 -0.34 1.7 0 0 Z " fill="#D8CECC" transform="translate(3,350)"/>
<path d="M0 0 C2.31 0 4.62 0 7 0 C5.5666944 5.01656959 3.09436048 7.01452882 -1 10 C-1.66 10 -2.32 10 -3 10 C-3 9.34 -3 8.68 -3 8 C-2.34 8 -1.68 8 -1 8 C-1 7.34 -1 6.68 -1 6 C-0.34 6 0.32 6 1 6 C0.67 4.02 0.34 2.04 0 0 Z " fill="#BFA8AD" transform="translate(192,89)"/>
<path d="M0 0 C0.66 0 1.32 0 2 0 C2 5.28 2 10.56 2 16 C-6.625 15.25 -6.625 15.25 -10 13 C-7.03 13 -4.06 13 -1 13 C0.32229189 10.35541621 0.09677194 8.32238699 0.0625 5.375 C0.04896484 3.87066406 0.04896484 3.87066406 0.03515625 2.3359375 C0.02355469 1.56507813 0.01195313 0.79421875 0 0 Z " fill="#7E788A" transform="translate(99,167)"/>
<path d="M0 0 C0.33 1.32 0.66 2.64 1 4 C-1.31 5.98 -3.62 7.96 -6 10 C-5.8125 6.6875 -5.8125 6.6875 -5 3 C-2.4375 1.0625 -2.4375 1.0625 0 0 Z " fill="#A69C98" transform="translate(138,190)"/>
<path d="M0 0 C4 4.625 4 4.625 4 8 C2.02 8.66 0.04 9.32 -2 10 C-1.54177532 6.53058454 -1.10868317 3.32604951 0 0 Z " fill="#C3B5BF" transform="translate(85,152)"/>
<path d="M0 0 C0.99 0.33 1.98 0.66 3 1 C0.47548986 5.2075169 -1.46081762 7.99431476 -6 10 C-9.8125 10.6875 -9.8125 10.6875 -13 11 C-10.01353231 9.00902154 -7.40312738 8.05875074 -4 7 C-4 6.34 -4 5.68 -4 5 C-2.68733482 3.64631404 -1.35432675 2.31200404 0 1 C0 0.67 0 0.34 0 0 Z " fill="#BAA3A8" transform="translate(66,50)"/>
<path d="M0 0 C0.99 0.33 1.98 0.66 3 1 C3.19522373 3.58296017 3.38144403 6.16604079 3.5625 8.75 C3.61857422 9.47960937 3.67464844 10.20921875 3.73242188 10.9609375 C3.97709908 14.54953651 3.99666259 17.55027225 3 21 C2.34 20.67 1.68 20.34 1 20 C1.01160156 19.31035156 1.02320313 18.62070312 1.03515625 17.91015625 C1.09342124 11.84227348 0.78903948 6.01642604 0 0 Z " fill="#706A78" transform="translate(195,337)"/>
<path d="M0 0 C0.33 0 0.66 0 1 0 C1.18451025 11.52164009 1.18451025 11.52164009 0 17 C-0.33 17 -0.66 17 -1 17 C-1.22354607 15.10590022 -1.42819951 13.2095652 -1.625 11.3125 C-1.74101563 10.25675781 -1.85703125 9.20101562 -1.9765625 8.11328125 C-2.0010326 4.86283654 -1.40852563 2.89769204 0 0 Z " fill="#A39F9D" transform="translate(82,239)"/>
<path d="M0 0 C0.66 1.32 1.32 2.64 2 4 C-3.38490641 4.91657981 -8.54230189 5.11138159 -14 5 C-13.67 4.01 -13.34 3.02 -13 2 C-12.67 2.66 -12.34 3.32 -12 4 C-11.13375 3.67 -10.2675 3.34 -9.375 3 C-6.04281725 2.01268659 -3.44840462 1.83579026 0 2 C0 1.34 0 0.68 0 0 Z " fill="#C5ABB0" transform="translate(83,148)"/>
<path d="M0 0 C0.66 1.32 1.32 2.64 2 4 C2.69904436 5.25521834 3.40702628 6.50551222 4.125 7.75 C4.74375 8.8225 5.3625 9.895 6 11 C4.68 11 3.36 11 2 11 C1.67 12.32 1.34 13.64 1 15 C0.67 10.05 0.34 5.1 0 0 Z " fill="#6E6573" transform="translate(111,46)"/>
<path d="M0 0 C2.64 0.33 5.28 0.66 8 1 C8 2.32 8 3.64 8 5 C6.68 5.33 5.36 5.66 4 6 C3.71125 5.195625 3.4225 4.39125 3.125 3.5625 C2.26737432 0.8673532 2.26737432 0.8673532 0 0 Z " fill="#C09599" transform="translate(152,19)"/>
<path d="M0 0 C0.78375 0.04125 1.5675 0.0825 2.375 0.125 C1.715 3.095 1.055 6.065 0.375 9.125 C0.045 7.805 -0.285 6.485 -0.625 5.125 C-1.285 5.125 -1.945 5.125 -2.625 5.125 C-2.625 4.465 -2.625 3.805 -2.625 3.125 C-3.285 2.795 -3.945 2.465 -4.625 2.125 C-2.625 0.125 -2.625 0.125 0 0 Z " fill="#836B73" transform="translate(184.625,99.875)"/>
<path d="M0 0 C0.66 0 1.32 0 2 0 C2.33 1.65 2.66 3.3 3 5 C3.33 5 3.66 5 4 5 C4 6.65 4 8.3 4 10 C1.03 9.505 1.03 9.505 -2 9 C-1.67 8.34 -1.34 7.68 -1 7 C-0.34 7 0.32 7 1 7 C0.67 4.69 0.34 2.38 0 0 Z " fill="#BBAFA9" transform="translate(49,86)"/>
<path d="M0 0 C0.66 0 1.32 0 2 0 C2 1.65 2 3.3 2 5 C3.98 5.66 5.96 6.32 8 7 C7.34 7.66 6.68 8.32 6 9 C1.545 7.02 1.545 7.02 -3 5 C-1.625 2.5 -1.625 2.5 0 0 Z " fill="#81757B" transform="translate(151,74)"/>
<path d="M0 0 C0.66 1.32 1.32 2.64 2 4 C0.69593116 6.01920337 -0.63823419 8.01924973 -2 10 C-2.33 10 -2.66 10 -3 10 C-3.36923077 4.58461538 -3.36923077 4.58461538 -1.5 1.625 C-1.005 1.08875 -0.51 0.5525 0 0 Z " fill="#D9CECE" transform="translate(65,339)"/>
<path d="M0 0 C0.598125 0.226875 1.19625 0.45375 1.8125 0.6875 C0.8225 0.6875 -0.1675 0.6875 -1.1875 0.6875 C-1.5175 3.3275 -1.8475 5.9675 -2.1875 8.6875 C-4.33303974 6.54196026 -4.91713853 5.66147616 -5.1875 2.6875 C-3.58493056 0.24147296 -2.95482043 -0.4221172 0 0 Z " fill="#776671" transform="translate(197.1875,327.3125)"/>
<path d="M0 0 C1.98 0 3.96 0 6 0 C6 1.32 6 2.64 6 4 C4.35 4 2.7 4 1 4 C0.67 2.68 0.34 1.36 0 0 Z " fill="#BDABA7" transform="translate(198,371)"/>
<path d="M0 0 C0.99 0.33 1.98 0.66 3 1 C1.71064081 2.14842923 0.41843421 3.29366227 -0.875 4.4375 C-1.59429687 5.07558594 -2.31359375 5.71367187 -3.0546875 6.37109375 C-5 8 -5 8 -7 9 C-6.34 7.35 -5.68 5.7 -5 4 C-4.34 4 -3.68 4 -3 4 C-2.67 3.01 -2.34 2.02 -2 1 C-1.34 0.67 -0.68 0.34 0 0 Z " fill="#5D4E51" transform="translate(44,200)"/>
<path d="M0 0 C3 1 3 1 4.25 3.375 C5 6 5 6 4 9 C0.06153846 5.67692308 0.06153846 5.67692308 -0.25 2.25 C-0.1675 1.5075 -0.085 0.765 0 0 Z " fill="#726D73" transform="translate(197,359)"/>
<path d="M0 0 C0.33 0 0.66 0 1 0 C1 1.98 1 3.96 1 6 C-1.90600261 7.25664978 -3.79604584 8 -7 8 C-5.47005208 6.79557292 -3.94010417 5.59114583 -2.41015625 4.38671875 C-0.72844923 2.94316909 -0.72844923 2.94316909 0 0 Z " fill="#968B8B" transform="translate(244,297)"/>
<path d="M0 0 C2 4 2 4 1.5390625 6.140625 C1.23742187 6.83671875 0.93578125 7.5328125 0.625 8.25 C0.32851562 8.95640625 0.03203125 9.6628125 -0.2734375 10.390625 C-0.51320312 10.92171875 -0.75296875 11.4528125 -1 12 C-1.66 12 -2.32 12 -3 12 C-2.01 8.04 -1.02 4.08 0 0 Z " fill="#6B6674" transform="translate(168,165)"/>
<path d="M0 0 C-0.49831724 3.68754757 -1.10067643 5.60490662 -4 8 C-4 5.69 -4 3.38 -4 1 C-2 0 -2 0 0 0 Z " fill="#B6A5A8" transform="translate(193,115)"/>
<path d="M0 0 C0.66 0 1.32 0 2 0 C2.05447047 1.41623216 2.09300508 2.83308191 2.125 4.25 C2.14820312 5.03890625 2.17140625 5.8278125 2.1953125 6.640625 C1.9828378 9.20731941 1.28654105 10.7916067 0 13 C-0.19397476 11.02145742 -0.38001321 9.0421352 -0.5625 7.0625 C-0.66691406 5.96035156 -0.77132812 4.85820313 -0.87890625 3.72265625 C-0.91886719 2.82417969 -0.95882812 1.92570312 -1 1 C-0.67 0.67 -0.34 0.34 0 0 Z " fill="#E0CFDA" transform="translate(76,103)"/>
<path d="M0 0 C0.99 0.33 1.98 0.66 3 1 C2.34 2.32 1.68 3.64 1 5 C-0.32 4.67 -1.64 4.34 -3 4 C-2.67 3.01 -2.34 2.02 -2 1 C-1.34 0.67 -0.68 0.34 0 0 Z " fill="#C5A9AC" transform="translate(45,95)"/>
<path d="M0 0 C0.66 0.33 1.32 0.66 2 1 C1.25 3.4375 1.25 3.4375 0 6 C-2.125 6.8125 -2.125 6.8125 -4 7 C-2.68 4.69 -1.36 2.38 0 0 Z " fill="#D3D2DD" transform="translate(236,368)"/>
<path d="M0 0 C0.33 0 0.66 0 1 0 C2.125 6.625 2.125 6.625 1 10 C0.34 10 -0.32 10 -1 10 C-0.67 6.7 -0.34 3.4 0 0 Z " fill="#5E5D71" transform="translate(74,304)"/>
<path d="M0 0 C1.98 0.99 3.96 1.98 6 3 C5.67 3.66 5.34 4.32 5 5 C3.35 4.67 1.7 4.34 0 4 C0 2.68 0 1.36 0 0 Z " fill="#AEA39D" transform="translate(107,186)"/>
<path d="M0 0 C0.6875 1.8125 0.6875 1.8125 1 4 C-0.25 5.75 -0.25 5.75 -2 7 C-2.99 7 -3.98 7 -5 7 C-4.67 5.68 -4.34 4.36 -4 3 C-2.68 3 -1.36 3 0 3 C0 2.01 0 1.02 0 0 Z " fill="#70656E" transform="translate(183,109)"/>
<path d="M0 0 C1.65 0 3.3 0 5 0 C5 0.66 5 1.32 5 2 C4.34 2 3.68 2 3 2 C3 4.64 3 7.28 3 10 C2.67 10 2.34 10 2 10 C1.34 6.7 0.68 3.4 0 0 Z " fill="#72686E" transform="translate(169,61)"/>
<path d="M0 0 C0.99 0 1.98 0 3 0 C2.67 1.32 2.34 2.64 2 4 C0.35 4.33 -1.3 4.66 -3 5 C-1.6875 2.5 -1.6875 2.5 0 0 Z " fill="#BAA9AD" transform="translate(90,26)"/>
<path d="M0 0 C1.65 0.99 3.3 1.98 5 3 C2.39417629 3.93065133 1.35801776 4.14917407 -1.25 3.0625 C-1.8275 2.711875 -2.405 2.36125 -3 2 C-2.01 1.34 -1.02 0.68 0 0 Z " fill="#89808E" transform="translate(88,159)"/>
<path d="M0 0 C2 3 2 3 2 5 C-1.73487777 4.5020163 -3.81237635 4.12508244 -7 2 C-4.69 2.33 -2.38 2.66 0 3 C0 2.01 0 1.02 0 0 Z " fill="#B0A7B3" transform="translate(161,158)"/>
<path d="M0 0 C1.32 0 2.64 0 4 0 C4 1.98 4 3.96 4 6 C3.01 6.495 3.01 6.495 2 7 C1.34 4.69 0.68 2.38 0 0 Z " fill="#C38E90" transform="translate(202,65)"/>
<path d="M0 0 C0.66 0.99 1.32 1.98 2 3 C0.6875 5.5 0.6875 5.5 -1 8 C-1.99 8 -2.98 8 -4 8 C-2.87548273 5.0280615 -1.77706209 2.66559313 0 0 Z " fill="#807684" transform="translate(99,49)"/>
<path d="M0 0 C0.33 0.66 0.66 1.32 1 2 C1.99 2.33 2.98 2.66 4 3 C3.34 4.98 2.68 6.96 2 9 C0 7 0 7 -0.125 3.375 C-0.08375 2.26125 -0.0425 1.1475 0 0 Z " fill="#B4A4A8" transform="translate(57,30)"/>
<path d="M0 0 C2.0625 0.4375 2.0625 0.4375 4 1 C4 2.66666667 4 4.33333333 4 6 C1 5 1 5 -0.1875 2.9375 C-0.5896875 1.9784375 -0.5896875 1.9784375 -1 1 C-0.67 0.67 -0.34 0.34 0 0 Z " fill="#BCB0B5" transform="translate(94,19)"/>
</svg>
