<?xml version="1.0" encoding="UTF-8"?>
<svg version="1.1" xmlns="http://www.w3.org/2000/svg" width="8000" height="8000">
<path d="M0 0 C2640 0 5280 0 8000 0 C8000 2640 8000 5280 8000 8000 C5360 8000 2720 8000 0 8000 C0 5360 0 2720 0 0 Z " fill="#1B1B1B" transform="translate(0,0)"/>
<path d="M0 0 C0.33 0 0.66 0 1 0 C1.15555611 1.17499809 1.15555611 1.17499809 1.31425476 2.37373352 C4.66937796 27.70600168 8.05092147 53.03471798 11.44223022 78.36216545 C12.32470391 84.95314244 13.20654953 91.54420248 14.08709717 98.13543701 C25.66141924 184.76839376 37.57117495 271.35058197 95.04150391 651.19110107 C95.68183794 655.06999196 96.32082425 658.94910076 96.95849609 662.82843018 C112.73887729 758.82932922 130.03338319 854.5762461 149 950 C149.16444107 950.8273616 149.32888214 951.65472321 149.49830627 952.50715637 C166.18272561 1036.38918721 184.71299729 1119.88603772 252 1375 C252.29436951 1375.98067444 252.58873901 1376.96134888 252.89202881 1377.97174072 C266.44533517 1423.06028412 280.57775346 1467.94609196 296.33935547 1512.31494141 C297.83649221 1516.53154917 299.31393252 1520.75476443 300.78515625 1524.98046875 C322.25076977 1586.43136385 346.87207748 1646.83490252 374 1706 C374.54108398 1707.18513184 375.08216797 1708.37026367 375.63964844 1709.59130859 C384.61313845 1729.20435082 394.16294194 1748.53329591 403.79248047 1767.83038712 C404.73401319 1769.71795001 405.67426109 1771.60614812 406.61425781 1773.49447632 C414.03630041 1788.3954813 421.65367743 1803.15937635 429.73284912 1817.71594238 C430.87138827 1819.76817552 432.00339661 1821.82377014 433.13134766 1823.88183594 C441.47432022 1839.09099409 450.05225434 1854.13872929 459 1869 C459.56041992 1869.93263672 460.12083984 1870.86527344 460.69824219 1871.82617188 C481.97579701 1907.18075535 504.65840806 1941.67734316 529 1975 C529.58749023 1975.804375 530.17498047 1976.60875 530.78027344 1977.4375 C538.06068732 1987.39146771 545.41321012 1997.27712365 553 2007 C553.42313477 2007.54398438 553.84626953 2008.08796875 554.28222656 2008.6484375 C564.01456019 2021.15423407 573.95319968 2033.49056483 584.24462891 2045.54125977 C586.87535256 2048.63253063 589.41002342 2051.77534313 591.875 2055 C594.37612491 2058.26568679 597.05073689 2061.12446847 600 2064 C601.70417367 2065.90213323 603.37468346 2067.83142808 605.046875 2069.76171875 C607.17272184 2072.19793922 609.33275551 2074.60055074 611.5 2077 C614.18983431 2079.98062721 616.86310364 2082.97245233 619.5 2086 C622.25744442 2089.15782277 625.02645145 2092.30486167 627.8125 2095.4375 C628.93591797 2096.70400391 628.93591797 2096.70400391 630.08203125 2097.99609375 C631.84418571 2100.06248234 631.84418571 2100.06248234 634 2101 C634 2101.66 634 2102.32 634 2103 C634.66 2103 635.32 2103 636 2103 C637.4453125 2104.46875 637.4453125 2104.46875 639.125 2106.5 C642.19023091 2110.11213933 645.40555948 2113.46054019 648.8125 2116.75 C650.71355223 2118.70536801 652.47744971 2120.7071075 654.25 2122.77734375 C657.91611943 2126.99748496 661.88255364 2130.78817417 666 2134.5625 C667.35526365 2135.81261388 668.70943804 2137.06390971 670.0625 2138.31640625 C670.71605469 2138.9211377 671.36960938 2139.52586914 672.04296875 2140.14892578 C674.61296348 2142.57977659 677.09084984 2145.0946007 679.5546875 2147.63256836 C680.97411307 2149.10782695 680.97411307 2149.10782695 683 2150 C683 2150.66 683 2151.32 683 2152 C683.66 2152 684.32 2152 685 2152 C686.16478806 2153.13052958 687.3227061 2154.26898004 688.4453125 2155.44140625 C690.22285038 2157.22341031 692.09390719 2158.8564445 694 2160.5 C697.13713399 2163.21414963 700.06632873 2166.06632873 703 2169 C703.99 2169.825 704.98 2170.65 706 2171.5 C708.84001697 2173.86668081 711.3884067 2176.3884067 714 2179 C714.763125 2179.556875 715.52625 2180.11375 716.3125 2180.6875 C716.869375 2181.120625 717.42625 2181.55375 718 2182 C718 2182.66 718 2183.32 718 2184 C718.5775 2184.268125 719.155 2184.53625 719.75 2184.8125 C722.05550043 2186.02929189 724.02056192 2187.30333879 726 2189 C726 2189.66 726 2190.32 726 2191 C726.56203125 2191.2578125 727.1240625 2191.515625 727.703125 2191.78125 C730.26704579 2193.14169777 732.45226365 2194.72788962 734.75 2196.5 C735.94882812 2197.41265625 735.94882812 2197.41265625 737.171875 2198.34375 C737.77515625 2198.8903125 738.3784375 2199.436875 739 2200 C739 2200.66 739 2201.32 739 2202 C739.56203125 2202.25136719 740.1240625 2202.50273437 740.703125 2202.76171875 C743.34933319 2204.18833099 745.44345088 2205.88201868 747.75 2207.8125 C748.72066406 2208.616875 749.69132812 2209.42125 750.69140625 2210.25 C751.22137207 2210.69085937 751.75133789 2211.13171875 752.29736328 2211.5859375 C761.90661237 2219.56654701 771.6406435 2227.3260281 781.671875 2234.76953125 C785.72549089 2237.78140942 789.73171106 2240.85283208 793.73706055 2243.9284668 C802.91380421 2250.96803555 812.1897657 2257.80831191 821.69482422 2264.39697266 C824.22176857 2266.15421865 826.73807972 2267.92609512 829.25390625 2269.69921875 C843.62235759 2279.79894565 858.23318311 2289.49346552 873 2299 C873.83950195 2299.54076172 874.67900391 2300.08152344 875.54394531 2300.63867188 C904.37624629 2319.1539449 933.9426083 2336.55467755 964 2353 C965.3001001 2353.71373779 965.3001001 2353.71373779 966.62646484 2354.44189453 C983.27509977 2363.57141534 1000.0885484 2372.36965793 1017 2381 C1017.63784424 2381.32611267 1018.27568848 2381.65222534 1018.93286133 2381.98822021 C1037.53583022 2391.49704028 1056.31021001 2400.50793437 1075.38328552 2409.03436279 C1080.8347205 2411.4720982 1086.27241857 2413.93908233 1091.70703125 2416.4140625 C1181.65878636 2457.32347299 1275.06392807 2491.0249464 1821.23159599 2632.63328743 C1826.37071022 2633.67000379 1831.50861039 2634.71256806 1836.64599609 2635.7578125 C1931.34270372 2655.00858636 2026.58295111 2671.70532094 2121.91269684 2687.48879242 C2125.01679974 2688.00278177 2128.12080002 2688.51738765 2131.22479248 2689.03204346 C2233.55818247 2705.98998026 2336.12090404 2721.51215037 2455.91393185 2738.56649685 C2463.60862758 2739.65916967 2471.30255583 2740.75711707 2478.99609375 2741.85791016 C2560.05385662 2753.45096816 2641.2167046 2764.24658466 2722.38671875 2775.01953125 C2723.27030375 2775.1368058 2724.15388874 2775.25408036 2725.06424904 2775.37490869 C2744.37345777 2777.93748039 2763.68334262 2780.49405655 2783 2783 C2780.08521605 2784.9431893 2779.03614498 2785.32563504 2775.72434998 2785.75131226 C2774.84616859 2785.86814708 2773.96798721 2785.9849819 2773.06319427 2786.10535717 C2772.09673225 2786.2257602 2771.13027023 2786.34616323 2770.13452148 2786.47021484 C2769.1070153 2786.60465909 2768.07950912 2786.73910334 2767.02086639 2786.87762165 C2763.55517904 2787.32934741 2760.08816185 2787.7699444 2756.62109375 2788.2109375 C2754.1373931 2788.5329576 2751.65379872 2788.85579818 2749.17030334 2789.17939758 C2743.78282132 2789.88026271 2738.39481362 2790.57685596 2733.00634766 2791.27011108 C2719.0113623 2793.07142661 2705.02082833 2794.90699117 2691.02993631 2796.73977733 C2688.69925146 2797.04501076 2686.36853346 2797.34998998 2684.03780746 2797.65490913 C2649.17606298 2802.21651344 2614.33337966 2806.91438069 2579.5 2811.6875 C2578.75074359 2811.79015734 2578.00148719 2811.89281467 2577.22952604 2811.99858284 C2499.33505892 2822.67323588 2421.486943 2833.69969674 1840.65814209 2931.07409668 C1836.88143439 2931.82518925 1833.10421593 2932.57367112 1829.32678699 2933.32112694 C1750.98759338 2948.82483065 1673.00158039 2966.02233954 1330 3060 C1328.33170135 3060.54460876 1328.33170135 3060.54460876 1326.62969971 3061.10021973 C1234.78272055 3091.12025661 1144.59781488 3125.7533387 965.78515625 3213.45947266 C963.88311432 3214.51153126 961.97938977 3215.56055211 960.07421875 3216.60693359 C945.27922752 3224.7360233 930.79009931 3233.28299172 916.3984375 3242.09765625 C911.34297964 3245.19218688 906.25340913 3248.21601548 901.125 3251.1875 C877.02314696 3265.23673151 853.87447628 3281.04883394 831 3297 C830.00274902 3297.69440186 830.00274902 3297.69440186 828.98535156 3298.40283203 C798.17268452 3319.89615636 768.17706491 3342.73819069 739.58398438 3367.1171875 C736.24207912 3369.96384154 732.85582276 3372.74580852 729.4375 3375.5 C724.36392507 3379.62690206 719.56258858 3384.00102558 714.76953125 3388.4453125 C712.54081607 3390.50113722 710.29232081 3392.51616957 708 3394.5 C700.41253937 3401.09160642 693.02037465 3407.88315934 685.97764587 3415.05479431 C684.16648771 3416.83624326 682.30801296 3418.49025784 680.37329102 3420.13500977 C675.45999965 3424.40756912 670.87434289 3428.98196683 666.27734375 3433.58984375 C665.37303116 3434.49319962 664.46871857 3435.39655548 663.53700256 3436.32728577 C661.63565057 3438.22796068 659.73532447 3440.12959608 657.83666992 3442.03295898 C655.42414139 3444.45118392 653.00714919 3446.86488958 650.58878231 3449.27727413 C648.25335425 3451.60818401 645.92177823 3453.94293956 643.58984375 3456.27734375 C642.73237045 3457.13279282 641.87489716 3457.98824188 640.99143982 3458.86961365 C636.64158283 3463.23630439 632.43465482 3467.66497457 628.42909241 3472.35072327 C626.55668839 3474.51161389 624.55150399 3476.50973493 622.5 3478.5 C619.12899935 3481.83120807 615.9548597 3485.25111628 612.87109375 3488.84765625 C610.66920171 3491.38052162 608.39804174 3493.84332522 606.125 3496.3125 C602.07478708 3500.75250784 598.24465878 3505.31934281 594.47265625 3509.99609375 C591.59117045 3513.49666655 588.61273585 3516.90274047 585.625 3520.3125 C580.96727268 3525.64438094 576.49134914 3531.0763452 572.15576172 3536.67260742 C569.28075706 3540.38180764 566.34852718 3544.03437962 563.36694336 3547.65844727 C555.88028169 3556.7638466 548.8030862 3566.1474333 541.77832031 3575.61181641 C540.12998153 3577.82544216 538.4707268 3580.03014789 536.8046875 3582.23046875 C530.248933 3590.89210727 523.90071453 3599.67923294 517.68505859 3608.58789062 C515.84361075 3611.22386639 513.99405629 3613.85406107 512.14453125 3616.484375 C504.06270801 3628.00589393 496.18792138 3639.63193742 488.60644531 3651.48876953 C486.9699215 3654.04701937 485.32509629 3656.59980142 483.6796875 3659.15234375 C458.64774928 3698.10567254 435.57006273 3738.28087263 414.33642578 3779.42431641 C412.66995892 3782.63608574 410.97388255 3785.83156823 409.27563477 3789.02661133 C398.76468588 3808.83220891 388.93364208 3828.95157998 379.59812927 3849.33598328 C377.80637533 3853.24833109 376.00266846 3857.15490639 374.19081116 3861.0579834 C350.08232295 3913.016109 328.63325985 3966.19825624 309 4020 C308.70067566 4020.8199646 308.40135132 4021.6399292 308.09295654 4022.48474121 C274.92935791 4113.45370397 246.60801895 4206.05302799 209.50550079 4347.99463654 C208.99635988 4350.01444065 208.4864976 4352.03406158 207.97650146 4354.0536499 C187.17577185 4436.4593466 168.89457632 4519.41967115 1 5568 C0.67 5568 0.34 5568 0 5568 C-0.08132864 5567.37861743 -0.16265728 5566.75723486 -0.24645042 5566.11702251 C-10.19891577 5490.0875145 -20.21063357 5414.066455 -345 3925 C-345.26945435 3924.35772461 -345.53890869 3923.71544922 -345.81652832 3923.05371094 C-349.47625666 3914.33936482 -353.2114712 3905.65905288 -357 3897 C-357.29221436 3896.33156067 -357.58442871 3895.66312134 -357.88549805 3894.97442627 C-371.89769051 3862.94404835 -386.7213785 3831.38549604 -402.32713318 3800.10075378 C-403.23315352 3798.28378459 -404.13797959 3796.46622482 -405.04260254 3794.64855957 C-412.32271418 3780.03832372 -419.80756661 3765.57580151 -427.72479248 3751.3001709 C-428.86633986 3749.24109109 -430.00175056 3747.17884305 -431.13330078 3745.11425781 C-439.47645225 3729.90632195 -448.05481688 3714.86149016 -457 3700 C-457.67353516 3698.87883789 -458.34707031 3697.75767578 -459.04101562 3696.60253906 C-460.86887658 3693.56170948 -462.70136754 3690.52370705 -464.53692627 3687.48751831 C-465.57566958 3685.76910813 -466.6128257 3684.04973882 -467.64990234 3682.33032227 C-476.51460637 3667.72451356 -485.94817529 3653.48432086 -495.42456055 3639.27050781 C-496.93595474 3637.00231901 -498.44361651 3634.73167902 -499.95117188 3632.4609375 C-506.79205562 3622.17998619 -513.8277436 3612.05217743 -521 3602 C-521.96643433 3600.64068359 -521.96643433 3600.64068359 -522.95239258 3599.25390625 C-530.74072472 3588.32490757 -538.78627741 3577.61188977 -547 3567 C-547.5686377 3566.26249512 -548.13727539 3565.52499023 -548.72314453 3564.76513672 C-559.32304967 3551.01750648 -570.12660093 3537.45065904 -581.39916992 3524.24682617 C-589 3515.34215574 -589 3515.34215574 -589 3513 C-589.66 3513 -590.32 3513 -591 3513 C-595 3508.52941176 -595 3508.52941176 -595 3506 C-595.66 3506 -596.32 3506 -597 3506 C-598.33203125 3504.42578125 -598.33203125 3504.42578125 -599.8125 3502.3125 C-602.25284714 3498.83844013 -604.9761526 3495.97924788 -608 3493 C-609.87721453 3491.00007417 -611.71985479 3488.96926552 -613.5625 3486.9375 C-617.35726975 3482.75605254 -617.35726975 3482.75605254 -621.33984375 3478.75390625 C-623 3477 -623 3477 -623 3475 C-623.66 3475 -624.32 3475 -625 3475 C-626.55078125 3473.4609375 -626.55078125 3473.4609375 -628.3125 3471.375 C-628.93125 3470.64925781 -629.55 3469.92351562 -630.1875 3469.17578125 C-631.73945055 3467.31277164 -633.27783398 3465.4397254 -634.8125 3463.5625 C-636.73971393 3460.96768028 -636.73971393 3460.96768028 -639 3460 C-639 3459.34 -639 3458.68 -639 3458 C-639.66 3458 -640.32 3458 -641 3458 C-641 3457.34 -641 3456.68 -641 3456 C-641.66 3456 -642.32 3456 -643 3456 C-643 3455.34 -643 3454.68 -643 3454 C-643.66 3454 -644.32 3454 -645 3454 C-646.234375 3452.7421875 -646.234375 3452.7421875 -647.75 3450.875 C-651.40763248 3446.5650509 -655.31961927 3442.55843494 -659.3125 3438.5625 C-660.24690918 3437.62156494 -660.24690918 3437.62156494 -661.20019531 3436.66162109 C-662.08529785 3435.77917725 -662.08529785 3435.77917725 -662.98828125 3434.87890625 C-663.51977783 3434.3485376 -664.05127441 3433.81816895 -664.59887695 3433.27172852 C-665.99388405 3431.89056415 -665.99388405 3431.89056415 -668 3431 C-668 3430.34 -668 3429.68 -668 3429 C-668.66 3429 -669.32 3429 -670 3429 C-670 3428.34 -670 3427.68 -670 3427 C-670.66 3427 -671.32 3427 -672 3427 C-672 3426.34 -672 3425.68 -672 3425 C-672.66 3425 -673.32 3425 -674 3425 C-675.15897041 3423.60241804 -676.31356026 3422.20096287 -677.4453125 3420.78125 C-679.76258721 3418.12628199 -682.42265325 3415.92899593 -685.1015625 3413.6484375 C-687 3412 -687 3412 -689.375 3409.5625 C-692.60056347 3406.41373566 -696.09903593 3403.71009317 -699.63671875 3400.921875 C-702.27594297 3398.77559679 -704.63013821 3396.43757213 -707 3394 C-707.825 3393.34 -708.65 3392.68 -709.5 3392 C-712.21173153 3389.83061478 -714.54322417 3387.45677583 -717 3385 C-727.44900355 3375.30874862 -738.27324642 3366.02367214 -749.53369141 3357.29003906 C-754.30857864 3353.57667963 -758.97177265 3349.7392647 -763.625 3345.875 C-770.27469442 3340.36660485 -777.04574349 3335.12045893 -784 3330 C-785.22123871 3329.08230617 -786.44121989 3328.16293725 -787.66015625 3327.2421875 C-819.74476876 3303.01134931 -852.94106907 3280.35822916 -887 3259 C-887.83063965 3258.47664063 -888.6612793 3257.95328125 -889.51708984 3257.4140625 C-963.37344219 3210.92315838 -1041.84927986 3171.68884375 -1281 3076 C-1281.84516174 3075.70409973 -1282.69032349 3075.40819946 -1283.56109619 3075.10333252 C-1375.99582385 3042.75347216 -1470.41597647 3016.23349085 -2068 2889 C-2068.99807175 2888.83012321 -2069.99614349 2888.66024643 -2071.02445984 2888.48522186 C-2183.5900549 2869.33038047 -2296.4078604 2851.93620808 -2409.40373993 2835.52272034 C-2412.90909545 2835.01321308 -2416.41432236 2834.50283174 -2419.91949463 2833.99206543 C-2482.31612683 2824.89983069 -2544.76862276 2816.23702096 -2607.25 2807.75 C-2608.12474928 2807.63116329 -2608.99949857 2807.51232658 -2609.90075541 2807.38988876 C-2645.82266065 2802.51025149 -2681.74617319 2797.64553434 -2717.69921875 2793 C-2718.82753994 2792.85402626 -2719.95586113 2792.70805252 -2721.11837387 2792.55765533 C-2731.25514537 2791.24671967 -2741.3925501 2789.94158264 -2751.53399181 2788.6672287 C-2754.99169765 2788.23165428 -2758.44866358 2787.79040344 -2761.9054966 2787.34796143 C-2764.19246824 2787.05764925 -2766.48038617 2786.77594633 -2768.76847839 2786.49462891 C-2770.10735329 2786.32341376 -2771.44616899 2786.15173468 -2772.78491211 2785.97949219 C-2773.92399521 2785.83711121 -2775.06307831 2785.69473022 -2776.23667908 2785.54803467 C-2779 2785 -2779 2785 -2782 2783 C-2780.69254318 2782.82921432 -2779.38508636 2782.65842865 -2778.03800964 2782.48246765 C-2701.74317931 2772.51336643 -2625.46804905 2762.40386569 -1946 2657 C-1945.14245872 2656.84121117 -1944.28491745 2656.68242233 -1943.40139008 2656.51882172 C-1852.23674653 2639.62740216 -1761.33487783 2621.3342882 -1407 2532 C-1406.02683838 2531.70927612 -1405.05367676 2531.41855225 -1404.05102539 2531.11901855 C-1370.17787373 2520.99043193 -1336.54323132 2510.16972054 -1303 2499 C-1302.00570984 2498.66935547 -1301.01141968 2498.33871094 -1299.98699951 2497.99804688 C-1230.05772982 2474.72893291 -1161.29255798 2448.0612183 -1094 2418 C-1093.31695801 2417.69489502 -1092.63391602 2417.38979004 -1091.93017578 2417.07543945 C-1068.40869839 2406.55411645 -1045.19849159 2395.43158052 -1022.0916748 2384.03118896 C-1020.16396451 2383.08083398 -1018.23512364 2382.13283243 -1016.30566406 2381.18603516 C-1003.93855405 2375.11131362 -991.74922684 2368.78550344 -979.6875 2362.125 C-975.70384701 2359.92673771 -971.7029546 2357.76462179 -967.6875 2355.625 C-953.89985868 2348.27729918 -940.31600955 2340.65895455 -926.87304688 2332.69824219 C-924.07162755 2331.04233865 -921.26354342 2329.39838677 -918.453125 2327.7578125 C-897.35115591 2315.41686136 -876.83348771 2302.31061281 -856.5 2288.75 C-855.60430298 2288.15267059 -854.70860596 2287.55534119 -853.7857666 2286.93991089 C-832.36197159 2272.64757585 -832.36197159 2272.64757585 -811.3125 2257.8125 C-810.58393799 2257.28551514 -809.85537598 2256.75853027 -809.10473633 2256.21557617 C-800.39805881 2249.88269603 -791.85390447 2243.33551472 -783.31640625 2236.77734375 C-781.32933463 2235.25269352 -779.33815918 2233.73377738 -777.34375 2232.21875 C-770.80120938 2227.2308725 -764.39122262 2222.10333394 -758.02368164 2216.89477539 C-753.60403609 2213.28402342 -749.13344334 2209.7489333 -744.625 2206.25 C-739.69316441 2202.41221773 -735.00657505 2198.39454635 -730.40625 2194.16015625 C-727.94197917 2191.94791312 -725.40003545 2189.87872316 -722.8125 2187.8125 C-716.74679782 2182.90996514 -711.11835023 2177.57741963 -705.4453125 2172.23046875 C-702.3256613 2169.2928951 -699.14336592 2166.44310489 -695.8984375 2163.64453125 C-690.09174596 2158.61445484 -684.3627779 2153.50390363 -679 2148 C-677.73258827 2146.70497581 -676.46137907 2145.41366297 -675.1875 2144.125 C-674.28064453 2143.20074219 -674.28064453 2143.20074219 -673.35546875 2142.2578125 C-671.39300226 2140.37670864 -669.39543518 2138.60359517 -667.3359375 2136.83203125 C-662.49033779 2132.61905307 -657.96531289 2128.11199435 -653.4375 2123.5625 C-652.62603516 2122.75490234 -651.81457031 2121.94730469 -650.97851562 2121.11523438 C-645.61993887 2115.74800778 -640.43382695 2110.27165534 -635.67919922 2104.35693359 C-633.24282505 2101.3265555 -630.70874229 2098.95758408 -627.671875 2096.546875 C-624.70766923 2093.8042921 -622.36040598 2090.54373626 -619.88671875 2087.36328125 C-617.76618968 2084.707132 -615.43511007 2082.36746813 -613 2080 C-612.34 2079.175 -611.68 2078.35 -611 2077.5 C-608.83250801 2074.79063501 -606.4570963 2072.44999486 -604 2070 C-597.85492545 2063.50111813 -591.97979308 2056.87072777 -586.37109375 2049.90234375 C-583.68168423 2046.61036472 -580.90818046 2043.40005506 -578.125 2040.1875 C-572.71116024 2033.91164915 -567.55423612 2027.46772981 -562.48339844 2020.91308594 C-560.90450199 2018.87683963 -559.31630892 2016.84809763 -557.7265625 2014.8203125 C-544.42993846 1997.83657973 -531.48772652 1980.58774401 -519 1963 C-518.1020874 1961.73542969 -518.1020874 1961.73542969 -517.18603516 1960.4453125 C-490.9962945 1923.43644821 -466.65613676 1884.96104559 -444.39746094 1845.46386719 C-443.01211936 1843.02136768 -441.60732177 1840.59122903 -440.1953125 1838.1640625 C-431.38738796 1822.98934415 -423.18608575 1807.50379249 -415.03448486 1791.97003174 C-414.0518579 1790.09875611 -413.06705893 1788.22864208 -412.08154297 1786.35888672 C-379.13514138 1723.7528355 -350.67504322 1658.89757911 -325 1593 C-324.65751221 1592.12208801 -324.31502441 1591.24417603 -323.9621582 1590.33966064 C-313.08164349 1562.42499256 -302.8448525 1534.29554738 -293 1506 C-292.66246704 1505.03100769 -292.32493408 1504.06201538 -291.97717285 1503.06365967 C-265.14130641 1425.95480225 -242.05844873 1347.74498984 -220 1265 C-219.67362549 1263.77571289 -219.34725098 1262.55142578 -219.01098633 1261.29003906 C-196.33171675 1176.097472 -176.70413404 1090.05360071 -153.90246582 979.43157959 C-153.14775948 975.72385177 -152.39056608 972.01663677 -151.63274002 968.30954552 C-132.11518681 872.8092935 -114.94158539 776.87777599 -48.53740692 355.73352814 C-48.00692981 352.04814351 -47.47558737 348.36288479 -46.94390869 344.67767334 C-37.64867673 280.24635504 -28.73981563 215.76699305 -20.0625 151.25 C-19.95316745 150.43724185 -19.84383491 149.62448369 -19.73118925 148.7870965 C-13.06150815 99.20356502 -6.50441764 49.60546397 0 0 Z " fill="#000000" transform="translate(4175,1444)"/>
<path d="M0 0 C1.91088218 2.86632327 2.29419116 3.78180928 2.67578125 7.0078125 C2.83046875 8.22138428 2.83046875 8.22138428 2.98828125 9.45947266 C3.09527344 10.33909668 3.20226563 11.2187207 3.3125 12.125 C4.39557681 20.36761783 5.81610704 28.48441239 7.5 36.625 C8.99622901 43.87815875 10.40490656 51.11257687 11.5 58.4375 C13.19289551 69.62718414 15.3730447 80.71291017 17.56842041 91.81347656 C18.04015005 94.20341327 18.50923332 96.59386078 18.97802734 98.984375 C28.56518241 147.82975606 38.55389962 196.92551223 53.24414062 244.53662109 C54.0399102 247.13006909 54.8115167 249.72982196 55.578125 252.33203125 C58.16490637 261.09488461 60.86475985 269.80084493 63.82421875 278.4453125 C64.7235918 281.1643473 65.55889596 283.87792749 66.36328125 286.625 C75.37339126 316.87505653 87.85541713 346.36278099 101 375 C101.4316748 375.94456055 101.86334961 376.88912109 102.30810547 377.86230469 C122.4415623 421.71409 148.67977786 463.99382199 181.62109375 499.41015625 C183.51345661 501.47031483 185.34215518 503.55842696 187.1640625 505.6796875 C191.53642333 510.69236451 196.22525128 515.3714617 200.9375 520.0625 C201.79279297 520.92166016 202.64808594 521.78082031 203.52929688 522.66601562 C208.52386047 527.65295975 213.62623587 532.42569909 219 537 C220.02124955 537.88884492 221.04211117 538.77813585 222.0625 539.66796875 C230.42696007 546.84227294 239.09837758 553.50730005 248 560 C248.98129883 560.72074707 248.98129883 560.72074707 249.98242188 561.45605469 C286.88129306 588.46281025 327.80706588 609.61265573 370 627 C370.68000061 627.28037109 371.36000122 627.56074219 372.06060791 627.84960938 C397.28010406 638.21392737 422.97354219 646.89837889 449 655 C449.69134033 655.21527344 450.38268066 655.43054687 451.0949707 655.65234375 C469.25238361 661.29030343 487.59520855 666.24018021 506 671 C507.27472168 671.33 508.54944336 671.66 509.86279297 672 C569.05624046 687.27051246 629.2556156 699.07780217 689.56729126 708.94496155 C697.71460933 710.278119 705.85724466 711.63929802 714 713 C711.33609231 715.66390769 709.47293557 715.59062848 705.76171875 716.1484375 C704.47716797 716.34703369 703.19261719 716.54562988 701.86914062 716.75024414 C701.18698486 716.85209015 700.5048291 716.95393616 699.80200195 717.05886841 C696.24419052 717.59078402 692.69063211 718.14976111 689.13671875 718.70703125 C688.43054413 718.81718063 687.72436951 718.92733002 686.99679565 719.04081726 C680.57492921 720.04970284 674.1974571 721.23238009 667.82121277 722.49339294 C662.7009296 723.49797237 657.57424384 724.43007352 652.42939758 725.29962158 C637.49943792 727.826596 622.65688585 730.76653444 607.8125 733.75 C606.48781217 734.01559882 605.16311522 734.2811522 603.83840942 734.54666138 C564.81567767 742.31800938 564.81567767 742.31800938 526.203125 751.87890625 C522.57482138 752.86529856 518.92712579 753.72624146 515.26196289 754.5637207 C503.63154028 757.22876023 492.13107245 760.34902264 480.625 763.5 C479.76782379 763.73334045 478.91064758 763.96668091 478.02749634 764.20709229 C468.36022208 766.84298047 458.79055859 769.6210854 449.31762695 772.89208984 C445.7543994 774.08201748 442.18008733 775.11280863 438.5625 776.125 C404.71380065 785.88236876 371.95977534 799.29033931 340 814 C338.93410645 814.48968262 337.86821289 814.97936523 336.77001953 815.48388672 C321.40155797 822.58837444 306.60061838 830.43381668 292 839 C291.1140918 839.51594727 290.22818359 840.03189453 289.31542969 840.56347656 C277.86863034 847.24325017 266.76665119 854.2707413 256 862 C255.23268555 862.54946289 254.46537109 863.09892578 253.67480469 863.66503906 C244.04158338 870.59121304 234.6887852 877.69657136 225.75927734 885.51171875 C224.43794494 886.62951535 223.08966654 887.71558356 221.72900391 888.78515625 C213.74450356 895.10034553 206.58902051 902.10547348 199.41992188 909.31933594 C197.37849623 911.37148541 195.32658861 913.41271421 193.2734375 915.453125 C186.05230487 922.66699368 179.31399426 929.97183813 173 938 C172.06588078 939.10238802 171.12446565 940.1986899 170.171875 941.28515625 C108.55241116 1011.9487672 74.04546029 1105.86292545 44.86132812 1213.703125 C44.06411909 1216.75457366 43.24763798 1219.79992494 42.421875 1222.84375 C38.59081603 1237.05256697 35.42047858 1251.38821957 32.33818054 1265.77357483 C31.17928644 1271.18041567 29.99855822 1276.5822251 28.80961609 1281.98252869 C27.63302749 1287.32735574 26.46607289 1292.67423486 25.30342102 1298.02210999 C24.59347601 1301.28535948 23.87885296 1304.54740775 23.15722656 1307.80810547 C16.06481158 1339.8563867 10.43587554 1372.19695861 5 1404.5625 C4.70681885 1406.30599731 4.70681885 1406.30599731 4.40771484 1408.0847168 C3.63502142 1412.772225 2.93550919 1417.42087431 2.5 1422.15234375 C2 1426 2 1426 0 1428 C-2.23866397 1416.78286457 -4.26374741 1405.56613397 -5.9375 1394.25 C-7.36250468 1384.69474692 -9.06637483 1375.23769494 -11.01245117 1365.77563477 C-12.42714112 1358.89300123 -13.75805005 1352.00035553 -15.03100586 1345.09008789 C-25.86198796 1286.30120881 -38.12035506 1227.09785579 -56 1170 C-56.32452148 1168.96311035 -56.64904297 1167.9262207 -56.98339844 1166.85791016 C-59.27916642 1159.5577991 -61.62407187 1152.2743814 -64 1145 C-64.35940674 1143.89688477 -64.35940674 1143.89688477 -64.72607422 1142.77148438 C-66.12016905 1138.50371791 -67.55185421 1134.24969885 -69 1130 C-69.23477051 1129.30293945 -69.46954102 1128.60587891 -69.71142578 1127.88769531 C-74.94502748 1112.38495469 -80.91778011 1097.18680637 -87 1082 C-87.35126953 1081.12053711 -87.70253906 1080.24107422 -88.06445312 1079.33496094 C-92.04588344 1069.39773598 -96.31620942 1059.62801608 -101 1050 C-101.67675781 1048.60563721 -101.67675781 1048.60563721 -102.3671875 1047.18310547 C-122.77366288 1005.31943269 -147.12524903 965.08138468 -178.6640625 930.58203125 C-179.93095364 929.18167165 -181.19183908 927.77529593 -182.41796875 926.33911133 C-187.4079544 920.50969586 -192.75483033 915.05902277 -198.17773438 909.63696289 C-199.73860327 908.07391266 -201.29127888 906.50302635 -202.84375 904.93164062 C-209.23887733 898.50112409 -215.89636402 892.65286275 -223 887 C-224.08998933 886.07681206 -225.17461639 885.1471923 -226.25 884.20703125 C-285.30439121 832.78609118 -360.62693552 801.14442635 -434.31835938 777.19873047 C-437.52332971 776.15520233 -440.72333848 775.0981862 -443.921875 774.03515625 C-457.91765659 769.42893352 -472.11485476 765.66540497 -486.36743164 761.95068359 C-490.04753466 760.98755965 -493.72342313 760.00969455 -497.3984375 759.02734375 C-532.40741456 749.68089172 -567.5089629 741.47968034 -603.10986328 734.70092773 C-610.03717137 733.37917331 -616.94283139 732.05339941 -623.8046875 730.41796875 C-630.54926473 728.82013424 -637.34467225 727.71160024 -644.1875 726.625 C-654.92072689 724.89230505 -665.59251924 722.94364356 -676.25439453 720.81176758 C-685.87814197 718.93183857 -695.55304635 717.57068734 -705.27978516 716.34350586 C-706.9685376 716.12126343 -706.9685376 716.12126343 -708.69140625 715.89453125 C-709.69373291 715.76925049 -710.69605957 715.64396973 -711.72875977 715.51489258 C-712.47826904 715.34497803 -713.22777832 715.17506348 -714 715 C-714.33 714.34 -714.66 713.68 -715 713 C-712.25017224 712.56139625 -709.50015549 712.1240411 -706.75 711.6875 C-705.89100098 711.55069824 -705.03200195 711.41389648 -704.14697266 711.27294922 C-699.82318748 710.58834335 -695.49876668 709.92058343 -691.1640625 709.30859375 C-681.10386676 707.88056186 -671.17385757 706.08653719 -661.22143555 704.03857422 C-653.26751121 702.41609946 -645.28933774 700.98351696 -637.28918457 699.61129761 C-615.75764085 695.90984053 -594.37202638 691.52458589 -573 687 C-572.19864624 686.83048828 -571.39729248 686.66097656 -570.57165527 686.48632812 C-537.31688921 679.43508445 -504.0345217 671.74412252 -471.5234375 661.77197266 C-468.91525578 660.97407496 -466.30230196 660.19387864 -463.6875 659.41796875 C-398.36082347 639.9992892 -332.35505797 616.46239796 -275 579 C-274.29456055 578.54157715 -273.58912109 578.0831543 -272.86230469 577.61083984 C-251.95728335 563.98615125 -231.88497121 549.39550567 -213.58984375 532.37890625 C-211.50859842 530.46717411 -209.39884967 528.616513 -207.2578125 526.7734375 C-202.6213948 522.72927285 -198.27538236 518.42245809 -193.9375 514.0625 C-193.17373047 513.30259766 -192.40996094 512.54269531 -191.62304688 511.75976562 C-186.87410293 507.00269688 -182.37453994 502.10127042 -178 497 C-177.07443273 495.95178437 -176.14743186 494.90483221 -175.21875 493.859375 C-148.41759068 463.36015464 -125.73478067 427.90366957 -108.13720703 391.33935547 C-106.84171366 388.6743882 -105.51246134 386.02738563 -104.18359375 383.37890625 C-90.45460372 355.75738337 -78.89173657 327.10522705 -69.26123047 297.80859375 C-67.86424379 293.56957704 -66.41703289 289.34805016 -64.97265625 285.125 C-59.30418297 268.49458027 -54.11540242 251.87078474 -49.74707031 234.84326172 C-48.58281423 230.41224003 -47.28779703 226.02134547 -46 221.625 C-39.6364475 199.61180641 -34.62157233 177.27674413 -29.83203125 154.87939453 C-29.04238596 151.19762705 -28.24191492 147.51840866 -27.4375 143.83984375 C-24.63911737 130.99313433 -22.01810816 118.12121543 -19.56036377 105.20562744 C-17.94312582 96.70807439 -16.20990976 88.25168244 -14.3125 79.8125 C-12.36504361 71.11401366 -10.91937664 62.41681306 -9.671875 53.59375 C-8.91532758 48.28479877 -7.90985456 43.0337435 -6.890625 37.76953125 C-5.37755796 29.81875837 -4.06697888 21.8291006 -2.71337891 13.84985352 C-2.40279541 12.02925415 -2.40279541 12.02925415 -2.0859375 10.171875 C-1.9007959 9.0797168 -1.7156543 7.98755859 -1.52490234 6.86230469 C-1.09913256 4.54057215 -0.61000341 2.27872459 0 0 Z " fill="#FEFEFE" transform="translate(2159,1224)"/>
<path d="M0 0 C0.63421875 0.36867188 1.2684375 0.73734375 1.921875 1.1171875 C3.4996875 1.9215625 3.4996875 1.9215625 5.109375 2.7421875 C12.10543857 8.64997452 14.79241144 16.46195285 15.89453125 25.2890625 C16.04422867 26.33608337 16.19392609 27.38310425 16.34815979 28.46185303 C16.79198786 31.60811637 17.21343252 34.75665053 17.6279068 37.90689087 C18.17914133 42.05152904 18.75816384 46.19236302 19.33154297 50.33398438 C20.43149874 58.30871837 21.51533756 66.28553717 22.59033203 74.26367188 C34.26483868 160.87268973 46.83755723 247.40935982 207.921875 692.1171875 C208.98675884 693.34428952 210.04924055 694.57348001 211.109375 695.8046875 C221.91006736 708.22319635 221.91006736 708.22319635 233.921875 719.4296875 C236.37271976 721.49758777 238.69902259 723.68313874 241.046875 725.8671875 C246.85731096 731.16399376 252.96956611 735.99832098 259.20166016 740.78662109 C260.80108634 742.02375886 262.38371448 743.28253065 263.96484375 744.54296875 C340.60223057 805.11922146 440.18353576 834.34096378 712.921875 891.1171875 C713.59996719 891.22744514 714.27805939 891.33770279 714.97669983 891.45130157 C762.99493087 899.25758768 811.15239434 906.02368942 859.34834671 912.6329937 C861.36815934 912.91001322 863.38793266 913.18731947 865.40766525 913.46492195 C875.03226067 914.7872454 884.65729283 916.09644147 894.29638672 917.30908203 C895.7026863 917.4880952 897.10897243 917.66721402 898.51524353 917.84645081 C901.00730176 918.16150346 903.50037034 918.46872934 905.99464417 918.76573181 C915.69167992 919.99447959 926.31329543 922.29528721 932.6875 930.34765625 C937.62289451 938.07418407 939.76498079 945.42729966 938.515625 954.5703125 C936.53338458 963.07308063 932.13526138 969.29223745 924.921875 974.1171875 C915.44766001 978.88233556 904.83891898 979.63718127 894.4765625 980.9296875 C892.54074578 981.18094722 890.60509554 981.43349239 888.66960144 981.68722534 C884.53876445 982.22692243 880.40711792 982.75968294 876.27468872 983.28704834 C866.35454536 984.55475079 856.44042542 985.86832779 846.52599525 987.17983627 C844.27557429 987.47747552 842.02510474 987.77474769 839.77458763 988.07165909 C746.95941979 1000.31972464 654.1295646 1014.7523561 345.921875 1104.1171875 C344.86806641 1104.62217773 343.81425781 1105.12716797 342.72851562 1105.64746094 C291.52978536 1130.33527597 242.62029418 1164.19665379 205.921875 1208.1171875 C204.75205078 1209.45330078 204.75205078 1209.45330078 203.55859375 1210.81640625 C184.14579899 1233.09079075 168.00871099 1258.20259846 153.921875 1284.1171875 C153.37708496 1285.11637207 152.83229492 1286.11555664 152.27099609 1287.14501953 C137.4864004 1314.4587907 125.40051739 1342.89061816 114.921875 1372.1171875 C114.68124329 1372.78794312 114.44061157 1373.45869873 114.19268799 1374.14978027 C86.39658363 1451.83894929 69.04568836 1532.95670746 24.34828758 1810.20175743 C23.96731666 1812.95478616 23.58481029 1815.7075987 23.20222473 1818.46040344 C22.00945586 1827.06686411 20.84155761 1835.67534623 19.7385397 1844.29382229 C19.21959825 1848.34241186 18.69099239 1852.38971747 18.1620121 1856.437006 C17.91401398 1858.35756333 17.67100617 1860.27877274 17.43340111 1862.20064354 C17.10385305 1864.86509778 16.75733718 1867.52686932 16.4074707 1870.1887207 C16.2710702 1871.34910449 16.2710702 1871.34910449 16.13191414 1872.53293037 C14.89075436 1881.67592976 11.12322799 1890.15923359 3.921875 1896.1171875 C-4.27712697 1900.9428858 -12.41663702 1902.79988134 -21.70703125 1900.453125 C-29.9553417 1897.55677171 -35.88000221 1892.69196779 -40.15307617 1885.06295586 C-41.60950305 1881.99947504 -42.10170231 1878.96801728 -42.62890625 1875.62915039 C-42.8050219 1874.53761075 -42.8050219 1874.53761075 -42.98469543 1873.42401981 C-43.36893176 1870.99095335 -43.7270796 1868.5552565 -44.078125 1866.1171875 C-44.20217712 1865.26137463 -44.32622925 1864.40556175 -44.45404053 1863.52381516 C-45.28399045 1857.73376319 -46.06815712 1851.93804575 -46.83847809 1846.13979149 C-47.27929791 1842.82290128 -47.72462173 1839.50664153 -48.17108154 1836.19050598 C-48.81051118 1831.44010978 -49.4486409 1826.68954196 -50.08581543 1821.93884277 C-56.17189648 1776.60622209 -62.49898143 1731.32935102 -69.74921417 1686.16761017 C-70.08211495 1684.09231425 -70.41395283 1682.01685069 -70.74554443 1679.94134521 C-84.67801325 1592.78697865 -100.47776077 1505.4009429 -165.078125 1316.1171875 C-165.80467285 1314.5386499 -165.80467285 1314.5386499 -166.54589844 1312.92822266 C-182.47634656 1278.4228933 -201.80705742 1245.6303632 -226.29296875 1216.48046875 C-228.078125 1214.1171875 -228.078125 1214.1171875 -228.078125 1212.1171875 C-228.738125 1212.1171875 -229.398125 1212.1171875 -230.078125 1212.1171875 C-234.078125 1207.64659926 -234.078125 1207.64659926 -234.078125 1205.1171875 C-234.738125 1205.1171875 -235.398125 1205.1171875 -236.078125 1205.1171875 C-237.59309959 1203.39456195 -239.041318 1201.61283235 -240.453125 1199.8046875 C-243.14126457 1196.36584674 -245.58907188 1193.70609678 -249.078125 1191.1171875 C-249.078125 1190.4571875 -249.078125 1189.7971875 -249.078125 1189.1171875 C-249.738125 1189.1171875 -250.398125 1189.1171875 -251.078125 1189.1171875 C-251.078125 1188.4571875 -251.078125 1187.7971875 -251.078125 1187.1171875 C-251.738125 1187.1171875 -252.398125 1187.1171875 -253.078125 1187.1171875 C-254.46828324 1185.45577888 -255.85653773 1183.79273456 -257.234375 1182.12109375 C-259.86652906 1179.26029919 -262.88702531 1177.05770074 -265.98828125 1174.73046875 C-268.58284593 1172.72756181 -270.79031276 1170.46219505 -273.078125 1168.1171875 C-279.00926267 1162.60859897 -285.20818988 1157.56714225 -291.703125 1152.7421875 C-293.01289307 1151.76620605 -293.01289307 1151.76620605 -294.34912109 1150.77050781 C-341.96825551 1115.52484927 -396.31022535 1091.2673849 -452.078125 1072.1171875 C-452.76869995 1071.87933533 -453.4592749 1071.64148315 -454.17077637 1071.39642334 C-533.68819808 1044.06631063 -616.91011013 1027.72667607 -708.078125 1012.1171875 C-709.10419106 1011.94271843 -709.10419106 1011.94271843 -710.15098572 1011.76472473 C-745.59677615 1005.74384556 -781.12142654 1000.27115545 -816.703125 995.1171875 C-817.56108673 994.99290375 -818.41904846 994.86862 -819.30300903 994.74057007 C-839.28671601 991.84957923 -859.28232492 989.06275798 -879.30234909 986.43450928 C-882.17260287 986.05766908 -885.04269115 985.67958937 -887.91275024 985.30126953 C-896.13487813 984.21876742 -904.35749403 983.14210848 -912.58477974 982.09944153 C-915.93361325 981.67279586 -919.28110026 981.23619244 -922.62836075 980.7973938 C-924.16991288 980.59769576 -925.71204698 980.40242774 -927.25478745 980.21212769 C-939.51293898 978.69814885 -951.69304038 977.0423897 -960.078125 967.1171875 C-964.99981446 959.92489317 -967.15455833 952.10320702 -965.59765625 943.4453125 C-964.90429192 940.91702269 -964.06856081 938.54333909 -963.078125 936.1171875 C-962.71074219 935.16005859 -962.71074219 935.16005859 -962.3359375 934.18359375 C-959.6094112 928.35402085 -954.63600099 925.05132668 -949.078125 922.1171875 C-938.38866471 918.84527047 -926.86218295 917.86992637 -915.81349945 916.41769028 C-912.54034324 915.98732833 -909.26817042 915.5500599 -905.99615479 915.1111145 C-901.28722527 914.47980871 -896.57798794 913.85087919 -891.86849976 913.22375488 C-792.85325278 900.02324907 -693.86880686 885.43624334 -576.078125 860.1171875 C-575.23967041 859.92852112 -574.40121582 859.73985474 -573.53735352 859.54547119 C-508.50315159 844.87296965 -442.91765781 826.94234307 -382.50292969 798.265625 C-379.74644046 796.96009486 -376.97850956 795.68029783 -374.2109375 794.3984375 C-345.17679174 780.83300667 -317.35557459 764.87325973 -292.078125 745.1171875 C-290.35971861 743.79430207 -288.64005327 742.4730812 -286.91943359 741.15307617 C-274.61299087 731.54048228 -262.98333381 721.36488393 -251.98071289 710.28051758 C-250.25564023 708.54464019 -248.52000509 706.8198366 -246.78320312 705.09570312 C-240.09077757 698.41165134 -233.92924711 691.55894965 -228.078125 684.1171875 C-227.05354594 682.86232092 -226.02652374 681.60944156 -224.99609375 680.359375 C-185.86981232 632.30513665 -159.39287725 575.28406612 -139.078125 517.1171875 C-138.63507656 515.8593228 -138.19187946 514.60151045 -137.74853516 513.34375 C-109.22150129 432.12390467 -92.61648619 346.77963748 -78.078125 262.1171875 C-77.86045471 260.8549939 -77.64278442 259.59280029 -77.41851807 258.2923584 C-71.09788782 221.60633041 -65.45845422 184.82705776 -60.078125 147.9921875 C-59.855926 146.47275103 -59.855926 146.47275103 -59.62923813 144.92261887 C-56.38544562 122.72822148 -53.22175947 100.52646812 -50.32962036 78.28325272 C-49.95721078 75.4220162 -49.58237325 72.56110799 -49.20678711 69.70028687 C-48.96329832 67.84333332 -48.71988922 65.98636932 -48.4765625 64.12939453 C-48.35819534 63.22614378 -48.23982819 62.32289303 -48.11787415 61.39227104 C-47.43088944 56.1300117 -46.76533579 50.86558769 -46.1164856 45.59849739 C-45.71378689 42.36289342 -45.29359532 39.12972269 -44.86920166 35.89690018 C-44.67942592 34.42076354 -44.49721087 32.9436292 -44.32366943 31.46549606 C-43.14279964 21.43463923 -41.38003488 10.89813794 -33.53320312 3.82232666 C-23.63358375 -3.55734933 -11.26088706 -5.95922855 0 0 Z M-14.078125 235.1171875 C-16.45219773 247.24011207 -18.65127915 259.37591459 -20.64306641 271.56762695 C-21.73790328 278.218409 -22.95755565 284.81805438 -24.3671875 291.41015625 C-24.99278727 294.67221219 -25.50583064 297.92214536 -25.9921875 301.20703125 C-27.02479795 308.02682585 -28.38954224 314.74806638 -29.828125 321.4921875 C-30.36894317 324.06215014 -30.90859519 326.63230756 -31.4453125 329.203125 C-31.65046982 330.18548126 -31.65046982 330.18548126 -31.85977173 331.18768311 C-33.3054416 338.14866425 -34.62608436 345.13276307 -35.953125 352.1171875 C-40.89355232 377.85472362 -46.5661435 403.40398725 -52.765625 428.8671875 C-52.99373871 429.8081427 -53.22185242 430.7490979 -53.45687866 431.71856689 C-56.04013213 442.34633708 -58.81610802 452.87560751 -61.96362305 463.35009766 C-63.20719444 467.55345069 -64.3138638 471.77914349 -65.39624023 476.02612305 C-69.83961729 493.35806248 -75.6100686 510.22558643 -81.40368652 527.14202881 C-82.35885003 529.93931805 -83.30001161 532.74128273 -84.2421875 535.54296875 C-98.00203077 576.16163652 -114.96386656 616.4022862 -136.54980469 653.49121094 C-137.96707418 655.92637878 -139.37181862 658.36830278 -140.7734375 660.8125 C-154.61210992 684.80755461 -171.0028329 707.1554534 -189.078125 728.1171875 C-189.69300781 728.83390625 -190.30789063 729.550625 -190.94140625 730.2890625 C-192.63680141 732.24746645 -194.3519878 734.18581955 -196.078125 736.1171875 C-196.83996094 736.97183594 -197.60179687 737.82648438 -198.38671875 738.70703125 C-203.86216844 744.76826456 -209.5008273 750.64274589 -215.265625 756.4296875 C-215.91845459 757.08710937 -216.57128418 757.74453125 -217.24389648 758.421875 C-221.6916749 762.85565789 -226.3107762 767.03079977 -231.078125 771.1171875 C-231.59769775 771.56908447 -232.11727051 772.02098145 -232.65258789 772.48657227 C-252.62058292 789.85077564 -274.19587109 805.38754708 -296.96484375 818.85986328 C-298.95125431 820.04170413 -300.92236205 821.24528101 -302.890625 822.45703125 C-332.4244804 840.46842244 -364.29589915 854.92890663 -396.59375 867.16455078 C-398.81886723 868.01777478 -401.02857757 868.89904354 -403.234375 869.80078125 C-418.88617311 876.15902661 -435.03390597 881.20866035 -451.08093262 886.46166992 C-453.80372038 887.35534209 -456.52271651 888.26035566 -459.2421875 889.1640625 C-473.15384434 893.73948008 -487.27045208 897.47132958 -501.4362793 901.16430664 C-508.79549859 903.08983006 -516.14421172 905.05577157 -523.48852539 907.03735352 C-543.8222402 912.50982579 -564.2860041 917.08006871 -584.89402771 921.39050293 C-591.21506991 922.71557452 -597.5253749 924.08475935 -603.83203125 925.4765625 C-622.74019036 929.63651103 -641.63094781 933.37756354 -660.74882507 936.43659973 C-661.45948624 936.55033432 -662.1701474 936.66406891 -662.90234375 936.78125 C-663.60087967 936.89293015 -664.29941559 937.00461029 -665.01911926 937.11967468 C-671.66919003 938.19291755 -678.2812099 939.44253021 -684.890625 940.7421875 C-693.12832887 942.35997439 -701.37110206 943.91967078 -709.640625 945.3671875 C-711.02374878 945.61202881 -711.02374878 945.61202881 -712.43481445 945.86181641 C-717.97105444 946.82068929 -723.4879401 947.54965604 -729.078125 948.1171875 C-728.748125 948.7771875 -728.418125 949.4371875 -728.078125 950.1171875 C-725.0097885 950.81095485 -725.0097885 950.81095485 -721.24609375 951.265625 C-720.54734634 951.36283844 -719.84859894 951.46005188 -719.12867737 951.56021118 C-717.62554995 951.76902587 -716.12189569 951.97407527 -714.61779785 952.17578125 C-710.68354311 952.70500375 -706.75379254 953.26533284 -702.82421875 953.828125 C-701.66564865 953.99365875 -701.66564865 953.99365875 -700.4836731 954.16253662 C-694.13327592 955.08228995 -687.86496571 956.25529602 -681.59033203 957.5949707 C-672.73652688 959.45937236 -663.80196373 960.85932457 -654.86816406 962.27929688 C-648.05059674 963.38130962 -641.35723204 964.70459687 -634.64086914 966.30688477 C-628.00946422 967.815117 -621.31888867 969.03145001 -614.6388855 970.30334473 C-570.91930282 978.65878516 -527.07929326 988.23738757 -484.52392578 1001.36572266 C-481.98272587 1002.14649859 -479.43589448 1002.90585215 -476.88671875 1003.66015625 C-471.94377964 1005.12396721 -467.00945192 1006.61477103 -462.078125 1008.1171875 C-461.37107422 1008.33133301 -460.66402344 1008.54547852 -459.93554688 1008.76611328 C-402.58039467 1026.21096933 -346.32268604 1048.77233121 -295.078125 1080.1171875 C-294.22976074 1080.6323291 -293.38139648 1081.1474707 -292.50732422 1081.67822266 C-270.26546681 1095.2339624 -249.62338354 1110.92819882 -230.078125 1128.1171875 C-229.16289063 1128.91898438 -228.24765625 1129.72078125 -227.3046875 1130.546875 C-220.79492447 1136.38514385 -214.56284057 1142.50614352 -208.35644531 1148.66363525 C-206.93431205 1150.07386608 -205.50823212 1151.48011345 -204.08203125 1152.88623047 C-198.77822318 1158.18340878 -193.88331425 1163.63580396 -189.20581055 1169.49243164 C-187.18966441 1171.97959023 -185.1009525 1174.36466509 -182.953125 1176.73828125 C-179.0855598 1181.04820877 -175.54030431 1185.53997709 -172.078125 1190.1796875 C-171.12425903 1191.45682617 -171.12425903 1191.45682617 -170.15112305 1192.75976562 C-128.47142981 1249.16760746 -99.45764549 1313.58461935 -78.078125 1380.1171875 C-77.68012695 1381.34308594 -77.28212891 1382.56898437 -76.87207031 1383.83203125 C-69.54775769 1406.41014171 -63.03358536 1429.14168045 -57.078125 1452.1171875 C-56.78518555 1453.24317352 -56.78518555 1453.24317352 -56.48632812 1454.39190674 C-50.81220125 1476.21361375 -45.74593879 1498.13097084 -41.11376953 1520.19628906 C-40.21825304 1524.4602356 -39.30993134 1528.72136128 -38.39894104 1532.98202515 C-31.5378985 1565.09348938 -25.4662282 1597.29401987 -20.14916992 1629.69604492 C-18.31148221 1640.87371302 -16.29470344 1652.00821789 -14.078125 1663.1171875 C-11.79895569 1660.83801819 -11.74510969 1660.18962606 -11.35839844 1657.10375977 C-11.24892883 1656.27674057 -11.13945923 1655.44972137 -11.02667236 1654.59764099 C-10.91474548 1653.6978804 -10.8028186 1652.79811981 -10.6875 1651.87109375 C-10.43017904 1649.94514706 -10.17033471 1648.01953612 -9.90820312 1646.09423828 C-9.77325439 1645.1014386 -9.63830566 1644.10863892 -9.49926758 1643.08575439 C-8.31115208 1634.71091763 -6.79091176 1626.3850144 -5.328125 1618.0546875 C-5.06817749 1616.56775391 -5.06817749 1616.56775391 -4.80297852 1615.05078125 C0.76098673 1583.26539295 7.11913746 1551.65916206 13.921875 1520.1171875 C14.0879425 1519.34636841 14.25401001 1518.57554932 14.42510986 1517.78137207 C19.1701156 1495.78363874 24.26201569 1473.8979095 29.921875 1452.1171875 C30.10429749 1451.41200989 30.28671997 1450.70683228 30.47467041 1449.98028564 C45.85541215 1390.55022021 65.18573802 1332.45792208 91.921875 1277.1171875 C92.35274414 1276.21307129 92.78361328 1275.30895508 93.22753906 1274.37744141 C100.00999506 1260.16543048 107.81140718 1246.60863878 115.921875 1233.1171875 C116.375625 1232.35921875 116.829375 1231.60125 117.296875 1230.8203125 C129.546145 1210.45590112 143.71817338 1191.3586744 158.921875 1173.1171875 C159.33882126 1172.61482574 159.75576752 1172.11246399 160.18534851 1171.59487915 C167.5929608 1162.69900365 175.40064761 1154.32176954 183.61303711 1146.1652832 C185.49376028 1144.29535609 187.36344319 1142.41486112 189.23242188 1140.53320312 C196.15905792 1133.59899636 203.2274946 1127.1982693 210.921875 1121.1171875 C212.02404676 1120.18281312 213.12036036 1119.24141981 214.20703125 1118.2890625 C233.60004362 1101.37813751 255.61155073 1086.8816284 277.921875 1074.1171875 C278.58654785 1073.73675293 279.2512207 1073.35631836 279.93603516 1072.96435547 C285.23001636 1069.95101004 290.56632883 1067.0194666 295.921875 1064.1171875 C296.77217285 1063.65441406 297.6224707 1063.19164063 298.49853516 1062.71484375 C333.33449251 1043.84936107 370.28667227 1029.26971259 407.734375 1016.4921875 C408.57770386 1016.2040921 409.42103271 1015.9159967 410.28991699 1015.61917114 C420.72714287 1012.06749077 431.21269724 1008.76109482 441.81063843 1005.7232666 C443.96092787 1005.10597647 446.10920481 1004.48208036 448.25708008 1003.85644531 C451.91074213 1002.79297082 455.56676824 1001.73796236 459.22412109 1000.68725586 C460.68976718 1000.26540638 462.15493801 999.84190216 463.61962891 999.41674805 C473.05233785 996.67960612 482.50359678 994.18724534 492.07983398 992.00170898 C495.8936806 991.12367847 499.6883138 990.19368953 503.484375 989.2421875 C504.21390381 989.06026855 504.94343262 988.87834961 505.69506836 988.69091797 C509.44336747 987.74893177 513.18622722 986.78865182 516.92578125 985.8125 C533.5177484 981.52354087 550.25226317 978.02543813 567.02937317 974.55378723 C572.92049573 973.33242065 578.80026942 972.06354174 584.67749023 970.77685547 C608.25913366 965.62702149 631.99118603 961.07972044 655.84692383 957.39624023 C662.3489024 956.38963478 668.76827094 955.19301871 675.20703125 953.8359375 C680.69361165 952.77439092 686.21988815 951.97069019 691.75537109 951.20678711 C696.29834205 950.67807464 696.29834205 950.67807464 699.921875 948.1171875 C693.810425 947.04993632 687.69875926 945.98393103 681.58691406 944.91894531 C679.51980104 944.55858775 677.45274134 944.19792421 675.38574219 943.83691406 C672.36668615 943.30968379 669.34745419 942.7834762 666.328125 942.2578125 C665.30463455 942.07944855 664.2811441 941.90108459 663.22663879 941.71731567 C658.15180683 940.83671221 653.075111 939.97320741 647.9909668 939.14794922 C632.83225119 936.6857401 617.78484534 933.79348614 602.734375 930.7421875 C600.28568235 930.24810353 597.83695152 929.75420877 595.38818359 929.26049805 C590.64546285 928.30339487 585.90330778 927.3435601 581.16162109 926.38134766 C576.78069769 925.49263971 572.39854424 924.61056284 568.01469421 923.73641968 C551.65742197 920.47247238 535.45497051 916.68236438 519.26675415 912.67762756 C514.26147771 911.44118241 509.24983502 910.23347614 504.234375 909.0390625 C490.02605085 905.65076683 475.88232919 902.16765561 461.88134766 897.98925781 C459.09119695 897.16708174 456.29535252 896.36715582 453.49679565 895.5741272 C366.43676576 870.88542173 280.11514181 835.34126982 201.921875 769.1171875 C201.14481201 768.42689453 201.14481201 768.42689453 200.35205078 767.72265625 C193.19824547 761.32769022 186.34559122 754.636802 179.546875 747.8671875 C178.79760742 747.12259277 178.04833984 746.37799805 177.27636719 745.61083984 C172.62058619 740.94156683 168.20505534 736.1290803 163.921875 731.1171875 C163.04440521 730.10795607 162.16681153 729.09883233 161.2890625 728.08984375 C142.87083304 706.58266358 126.94415155 683.50470113 112.65429688 659.078125 C111.04963138 656.33554 109.43281182 653.60054664 107.8125 650.8671875 C106.86889473 649.26354827 105.92613008 647.65941398 104.984375 646.0546875 C104.58452393 645.37913818 104.18467285 644.70358887 103.77270508 644.00756836 C96.55645805 631.57999837 90.54763277 618.44062029 84.609375 605.3671875 C84.28894226 604.66296661 83.96850952 603.95874573 83.6383667 603.23318481 C77.2057335 589.05775844 71.41870285 574.68248487 65.921875 560.1171875 C65.50679687 559.0245459 65.09171875 557.9319043 64.6640625 556.80615234 C62.04977635 549.922071 59.47376492 543.02460957 56.921875 536.1171875 C56.66180664 535.41964355 56.40173828 534.72209961 56.13378906 534.00341797 C53.36712812 526.57641069 50.97579845 519.09615188 48.79150391 511.48242188 C47.49973999 506.99894557 46.07987158 502.58830512 44.546875 498.1796875 C40.75978352 486.99704946 37.92072872 475.53041844 34.921875 464.1171875 C34.54545729 462.69395489 34.16881799 461.27078087 33.79199219 459.84765625 C24.72350403 425.56318619 16.34919608 391.20931185 9.38677979 356.43243408 C8.81210297 353.5705179 8.22918419 350.71032579 7.64527893 347.85028076 C2.51784336 322.72915881 -2.24748963 297.55256411 -6.38818359 272.25048828 C-7.60154635 264.86398102 -8.92322472 257.52709338 -10.453125 250.19921875 C-11.46782611 245.19547393 -12.28001176 240.15938525 -13.078125 235.1171875 C-13.408125 235.1171875 -13.738125 235.1171875 -14.078125 235.1171875 Z " fill="#000000" transform="translate(2173.078125,988.8828125)"/>
<path d="M0 0 C5.65012593 5.52456758 7.89446465 10.13489988 9.30810547 17.98828125 C9.43442793 18.68974274 9.56075039 19.39120422 9.6909008 20.11392212 C10.93609412 27.17346501 11.94182418 34.26347749 12.89297676 41.36773109 C13.20744653 43.71559392 13.52706511 46.06271058 13.84788513 48.40971375 C14.30823006 51.77884008 14.76700818 55.14817376 15.22463989 58.51766968 C34.54263695 208.9848646 34.54263695 208.9848646 101.8125 377.75 C102.28606934 378.39291992 102.75963867 379.03583984 103.24755859 379.69824219 C112.39200328 392.26451069 112.39200328 392.26451069 122.8125 403.75 C123.75565117 404.70139838 124.69701485 405.65457158 125.63671875 406.609375 C126.59113337 407.57292902 127.54556052 408.53647062 128.5 409.5 C129.22799805 410.24056641 129.22799805 410.24056641 129.97070312 410.99609375 C132.63090217 413.71615276 132.63090217 413.71615276 135.8125 415.75 C135.8125 416.41 135.8125 417.07 135.8125 417.75 C136.34488281 417.97816406 136.87726562 418.20632813 137.42578125 418.44140625 C140.5776302 420.16950674 143.22846704 422.42173554 146 424.6875 C186.20770346 456.67149876 237.54838582 473.43397145 286.8125 485.75 C287.5044043 485.92297607 288.19630859 486.09595215 288.90917969 486.27416992 C352.05587994 501.97570337 416.64842574 511.08114948 481.03504944 519.99491882 C483.83949966 520.38333971 486.64364418 520.77385248 489.44749451 521.1665802 C490.11327735 521.25980718 490.77906019 521.35303415 491.46501827 521.44908619 C492.11658177 521.54033111 492.76814528 521.63157602 493.43945312 521.72558594 C497.97207114 522.35987333 502.50623391 522.97431817 507.04492188 523.56347656 C508.82686132 523.80505543 510.60876578 524.04689258 512.390625 524.2890625 C513.15034607 524.38093842 513.91006714 524.47281433 514.69281006 524.56747437 C522.55632252 525.66731275 529.1861502 529.1236502 534.8125 534.75 C539.92585224 541.63390357 542.12095811 549.6007383 541.69140625 558.1640625 C540.48935804 565.17807577 537.0187063 571.96822888 531.62890625 576.64453125 C525.20340345 581.09795731 518.84605913 582.92753915 511.12890625 583.91992188 C510.37777085 584.02141194 509.62663546 584.12290201 508.85273838 584.22746754 C507.21993922 584.44737184 505.58677941 584.66461125 503.95331001 584.87948036 C501.32050047 585.22592138 498.68872956 585.57947185 496.05711365 585.93486023 C492.2784474 586.44470589 488.49944996 586.95198376 484.72018433 587.45736694 C430.81647581 594.67678638 377.05845756 602.56002602 323.8125 613.75 C323.07159119 613.90535217 322.33068237 614.06070435 321.56732178 614.22076416 C311.94577563 616.24510543 302.36508225 618.41995034 292.8125 620.75 C292.15711243 620.90966248 291.50172485 621.06932495 290.82647705 621.23382568 C230.3104185 636.03236204 171.04019636 657.33694118 125.8125 701.75 C125.19697266 702.35158936 124.58144531 702.95317871 123.94726562 703.57299805 C118.80491443 708.64728871 114.28801677 714.0800041 109.8125 719.75 C109.090625 720.65492187 108.36875 721.55984375 107.625 722.4921875 C52.18547434 793.96957594 38.46017521 896.49115535 14.734375 1052.13671875 C14.57366013 1053.34548172 14.41294525 1054.55424469 14.24736023 1055.79963684 C13.50045838 1061.44428417 12.76723323 1067.090261 12.0559082 1072.73950195 C11.92520935 1073.75329422 11.7945105 1074.76708649 11.65985107 1075.81159973 C11.42100981 1077.66470097 11.1885187 1079.51863954 10.9644165 1081.37358093 C9.62466037 1091.66391942 7.21213145 1102.4169738 -1.109375 1109.3515625 C-8.22631149 1114.0686018 -15.73372744 1115.73442766 -24.1875 1114.75 C-32.14842256 1112.82273401 -38.75196023 1109.66491939 -43.51734924 1102.84750366 C-47.02988579 1096.8786198 -48.29274332 1091.48922548 -49.15234375 1084.6640625 C-49.30799301 1083.55342438 -49.46364227 1082.44278625 -49.62400818 1081.29849243 C-50.06398325 1078.14281562 -50.48781735 1074.98536451 -50.90779877 1071.82698059 C-51.40329805 1068.14754601 -51.92544191 1064.47188553 -52.44580078 1060.79589844 C-53.2627119 1055.01535045 -54.07598116 1049.23432642 -54.88289928 1043.45237446 C-73.09407446 908.92255175 -73.09407446 908.92255175 -153.4921875 713.83203125 C-155.1875 711.75 -155.1875 711.75 -155.1875 709.75 C-155.8475 709.75 -156.5075 709.75 -157.1875 709.75 C-158.6328125 708.28125 -158.6328125 708.28125 -160.3125 706.25 C-186.1315725 675.94065402 -222.66982402 657.00261408 -259.1875 642.75 C-260.06100098 642.40517578 -260.93450195 642.06035156 -261.83447266 641.70507812 C-342.79640262 610.01828043 -432.50400059 599.97320763 -518.03619862 588.12651634 C-526.08806796 587.01114851 -534.13850403 585.88591769 -542.1875 584.75 C-543.83605484 584.51831619 -543.83605484 584.51831619 -545.51791382 584.2819519 C-548.22068584 583.89782197 -550.92119069 583.50138293 -553.62109375 583.09765625 C-554.69686676 582.94618637 -554.69686676 582.94618637 -555.79437256 582.79165649 C-563.81158579 581.55251015 -569.54632755 578.1190683 -574.625 571.875 C-580.01876039 563.79199931 -581.58387658 555.96461232 -579.71875 546.328125 C-577.40513946 538.34066005 -573.31988706 532.59335211 -566.0625 528.4375 C-561.16729098 526.29898782 -556.51436235 525.13466793 -551.25 524.43359375 C-550.41242157 524.31468781 -549.57484314 524.19578186 -548.71188354 524.07327271 C-546.71988273 523.79163946 -544.72730341 523.51408227 -542.73431396 523.23953247 C-538.67467394 522.67921957 -534.61681673 522.106877 -530.55908203 521.53295898 C-525.57469489 520.82852833 -520.59024433 520.12456853 -515.60540771 519.42332458 C-367.28201957 500.50001982 -367.28201957 500.50001982 -147.3125 387.25 C-106.07570092 331.96098367 -89.41988936 262.2121144 -76.1875 195.75 C-76.00765564 194.84795837 -75.82781128 193.94591675 -75.64251709 193.01654053 C-70.26392289 165.9181644 -65.80119763 138.68028521 -61.625 111.375 C-61.50844685 110.61296391 -61.39189369 109.85092781 -61.27180862 109.06579971 C-58.64242937 91.84434981 -56.12667154 74.6118467 -53.8515625 57.33984375 C-53.66852572 55.95629849 -53.48548641 54.57275356 -53.30244446 53.18920898 C-52.45277525 46.74889787 -51.62331358 40.30662999 -50.82397461 33.85986328 C-50.53003551 31.57451206 -50.23586007 29.28919121 -49.94140625 27.00390625 C-49.82201691 25.9885228 -49.70262756 24.97313934 -49.57962036 23.92698669 C-48.27134309 13.95824745 -44.90633425 5.46012296 -37.1875 -1.25 C-24.36028888 -9.3271345 -12.22238181 -8.62756363 0 0 Z " fill="#000000" transform="translate(1618.1875,5600.25)"/>
<path d="M0 0 C6.60507019 4.24075529 11.61044707 8.75235322 14.0625 16.32421875 C14.59616921 18.91231824 15.08445984 21.48413333 15.52563477 24.08764648 C15.65498948 24.83721587 15.7843442 25.58678526 15.91761875 26.35906887 C17.11374145 33.4063946 18.11378298 40.47517798 19.05171013 47.56085014 C19.56840587 51.45852457 20.09909269 55.35431314 20.62695312 59.25048828 C20.73772407 60.07042865 20.84849501 60.89036901 20.96262264 61.73515606 C38.21377 190.65078881 38.21377 190.65078881 106.0625 379.32421875 C106.67109863 380.22793213 106.67109863 380.22793213 107.29199219 381.14990234 C116.50132934 396.06004401 116.50132934 396.06004401 129.0625 407.32421875 C129.0625 407.98421875 129.0625 408.64421875 129.0625 409.32421875 C129.7225 409.32421875 130.3825 409.32421875 131.0625 409.32421875 C131.0625 409.98421875 131.0625 410.64421875 131.0625 411.32421875 C131.7225 411.32421875 132.3825 411.32421875 133.0625 411.32421875 C133.0625 411.98421875 133.0625 412.64421875 133.0625 413.32421875 C133.7225 413.32421875 134.3825 413.32421875 135.0625 413.32421875 C135.0625 413.98421875 135.0625 414.64421875 135.0625 415.32421875 C135.7225 415.32421875 136.3825 415.32421875 137.0625 415.32421875 C137.0625 415.98421875 137.0625 416.64421875 137.0625 417.32421875 C137.7225 417.32421875 138.3825 417.32421875 139.0625 417.32421875 C140.75066933 418.96910169 142.41603315 420.63759417 144.0625 422.32421875 C145.0525 422.98421875 146.0425 423.64421875 147.0625 424.32421875 C147.0625 424.98421875 147.0625 425.64421875 147.0625 426.32421875 C147.6500708 426.60330078 148.2376416 426.88238281 148.84301758 427.16992188 C150.91405209 428.24701473 152.69653032 429.41265889 154.57421875 430.79296875 C155.24026123 431.27644775 155.90630371 431.75992676 156.5925293 432.25805664 C157.30449463 432.77489014 158.01645996 433.29172363 158.75 433.82421875 C242.97070401 493.89943027 359.90243631 505.9197554 481.37417412 523.25062561 C483.40577714 523.52129281 485.43717602 523.79344441 487.46852112 524.06604004 C493.87702495 524.92507021 500.28685217 525.7698998 506.70092773 526.58642578 C509.00250727 526.89045236 511.30402444 527.19495147 513.60546875 527.5 C514.63706116 527.62573898 515.66865356 527.75147797 516.73150635 527.88102722 C526.83628139 529.24866694 535.16876829 532.6038631 542.0625 540.32421875 C546.96256263 547.90090519 547.86272083 555.41217037 547.0625 564.32421875 C544.9816838 572.14075628 541.55139534 577.81754009 534.875 582.44921875 C521.03195999 590.09759171 501.70996995 589.79193791 486.17893887 591.88636017 C362.84966137 608.53184134 362.84966137 608.53184134 133.0625 704.32421875 C132.23492188 705.10925781 131.40734375 705.89429687 130.5546875 706.703125 C61.39106724 774.05933358 45.62470535 891.35775053 20.77243805 1054.945755 C20.4490788 1057.23891557 20.12431049 1059.53187378 19.79949951 1061.8248291 C18.89166288 1068.25518473 18.00387464 1074.68564308 17.21777344 1081.13232422 C17.09224091 1082.13722397 16.96670837 1083.14212372 16.83737183 1084.17747498 C16.6195824 1085.94352176 16.41219809 1087.71091184 16.21951294 1089.47987366 C15.24779187 1097.29976139 12.83614821 1105.71094965 7.0625 1111.32421875 C-1.45527105 1117.57545845 -9.41931138 1119.33653268 -19.9375 1118.32421875 C-27.79265116 1116.26489534 -33.45153431 1112.7994809 -38.0625 1106.07421875 C-40.48581787 1101.76413489 -41.6096228 1097.88250816 -42.46826172 1093.02172852 C-42.59204634 1092.32513154 -42.71583096 1091.62853456 -42.84336662 1090.91082859 C-44.07086117 1083.85704637 -45.07004144 1076.77208524 -46.01795959 1069.67612839 C-46.33238931 1067.32370937 -46.65207878 1064.97205269 -46.97302246 1062.62051392 C-47.43334913 1059.24663327 -47.8921871 1055.87255577 -48.34991455 1052.49832153 C-52.99049448 1018.34303918 -57.97715119 984.27798093 -63.9375 950.32421875 C-64.11863342 949.28940369 -64.29976685 948.25458862 -64.48638916 947.18841553 C-77.99444358 870.23692893 -93.81307987 782.29049162 -145.19921875 720.609375 C-146.9375 718.32421875 -146.9375 718.32421875 -146.9375 716.32421875 C-147.5975 716.32421875 -148.2575 716.32421875 -148.9375 716.32421875 C-150.24021938 714.80539405 -151.47783838 713.23065257 -152.6875 711.63671875 C-212.27441396 637.50945736 -331.35202525 620.79005759 -505.84119797 592.84001923 C-507.88445388 592.55329171 -509.92742046 592.26456644 -511.97036743 591.97564697 C-517.99757389 591.12698831 -524.02495204 590.30148763 -530.06757641 589.56947517 C-532.06745739 589.32649598 -534.06632847 589.07640681 -536.06507874 588.8243103 C-538.5184855 588.51768231 -540.97372295 588.22519526 -543.43089294 587.9503479 C-552.98577352 586.73640084 -561.66150322 584.03472908 -567.9375 576.32421875 C-573.65337183 568.03539037 -575.35450822 560.37751917 -573.9375 550.32421875 C-570.91554412 541.19750636 -566.38965801 535.95830675 -558.03385925 531.26472473 C-554.04593012 529.47558902 -549.8357954 529.02795162 -545.53515625 528.43359375 C-543.93076439 528.19428131 -543.93076439 528.19428131 -542.29396057 527.95013428 C-539.20236199 527.49373542 -536.10908209 527.05183002 -533.01438141 526.61703491 C-530.84346582 526.31096102 -528.67322827 526.00041522 -526.50311279 525.6887207 C-518.10701235 524.48299632 -509.70888202 523.29221408 -501.30908203 522.11254883 C-438.71660131 513.32015284 -376.27529616 503.85671251 -314.9375 488.32421875 C-314.28664429 488.16026611 -313.63578857 487.99631348 -312.96520996 487.82739258 C-269.4591752 476.84161072 -224.67355198 461.70797339 -187.9375 435.32421875 C-186.87015625 434.56238281 -185.8028125 433.80054687 -184.703125 433.015625 C-178.92149416 428.7821212 -173.49777992 424.29470021 -168.234375 419.43359375 C-166.17814649 417.54522063 -164.07463592 415.74441292 -161.9375 413.94921875 C-89.34440045 350.39381433 -73.74217998 228.66172893 -47.89921379 60.4092598 C-47.54369412 57.88445503 -47.18747844 55.35974916 -46.83119202 52.83505249 C-45.87193374 46.02919478 -44.9183821 39.22316863 -44.01098633 32.41015625 C-43.87804169 31.42922501 -43.74509705 30.44829376 -43.60812378 29.43763733 C-43.379573 27.7458549 -43.15694832 26.05325162 -42.94265747 24.35960388 C-41.85959101 16.41501649 -39.52629124 9.61540291 -33.53515625 4.12109375 C-23.72748864 -3.13510544 -11.25249533 -5.89514921 0 0 Z " fill="#000000" transform="translate(6284.9375,2051.67578125)"/>
<path d="M0 0 C2.19698391 3.29547586 2.46828922 5.06633361 2.97045898 8.94677734 C3.13545898 10.18805389 3.30045898 11.42933044 3.47045898 12.70822144 C3.59830276 13.71231363 3.59830276 13.71231363 3.72872925 14.73669052 C4.00170313 16.87998025 4.28408771 19.02185082 4.56884766 21.16360474 C4.98083046 24.26789668 5.38908396 27.37264615 5.79464722 30.4777832 C6.88662867 38.81975449 8.01893845 47.15629212 9.15625 55.4921875 C9.2728491 56.34718086 9.3894482 57.20217422 9.50958061 58.08307648 C18.04130286 120.49974841 28.22296703 182.97057648 44 244 C44.1858667 244.72070679 44.3717334 245.44141357 44.56323242 246.18395996 C52.09336629 275.26040124 61.16121631 304.21578265 73.83398438 331.49023438 C74.98598861 333.96984148 76.11164538 336.46015041 77.234375 338.953125 C88.99838316 364.75947402 104.60051793 391.04334315 125 411 C126.30756624 412.31614382 127.61340372 413.63400631 128.91796875 414.953125 C130.34109525 416.38546693 131.76427343 417.81775751 133.1875 419.25 C133.91130859 419.9821875 134.63511719 420.714375 135.38085938 421.46875 C136.07373047 422.16484375 136.76660156 422.8609375 137.48046875 423.578125 C138.10848389 424.21137695 138.73649902 424.84462891 139.38354492 425.49707031 C140.94390328 427.08924975 140.94390328 427.08924975 143 428 C143 428.66 143 429.32 143 430 C143.52207031 430.21785156 144.04414063 430.43570313 144.58203125 430.66015625 C147.94074672 432.52128615 150.747702 434.99119143 153.6875 437.4375 C219.3356552 490.89535622 311.53380049 508.97546974 548 547 C545.37340631 549.62659369 543.73790089 549.51057536 540.0715332 549.98632812 C538.81107178 550.1545105 537.55061035 550.32269287 536.25195312 550.49597168 C534.85156322 550.67440345 533.45117257 550.85282937 532.05078125 551.03125 C530.58996638 551.22405715 529.12927521 551.41780357 527.66870117 551.61242676 C524.5309887 552.02955275 521.39275429 552.44238774 518.25405884 552.85205078 C509.8844002 553.94651756 501.52015876 555.0812989 493.15625 556.21875 C492.3057992 556.33428223 491.4553484 556.44981445 490.57912636 556.56884766 C417.46942793 566.51905069 343.59667555 578.04926294 273 600 C272.33909363 600.2051825 271.67818726 600.41036499 270.99725342 600.62176514 C218.49156072 616.98586592 170.69257181 640.57823162 131 679 C129.74123047 680.21429687 129.74123047 680.21429687 128.45703125 681.453125 C59.43361511 749.27497297 39.24046096 857.7124209 6.88671875 1056.6328125 C6.64209648 1058.47080666 6.64209648 1058.47080666 6.39253235 1060.34593201 C5.63079797 1066.09692115 4.88280972 1071.84928998 4.15551758 1077.60473633 C4.02301102 1078.63118256 3.89050446 1079.65762878 3.75398254 1080.71517944 C3.50887117 1082.61482467 3.26999109 1084.51528883 3.03862 1086.41665649 C2.87641716 1087.66241959 2.87641716 1087.66241959 2.7109375 1088.93334961 C2.57631104 1090.0104142 2.57631104 1090.0104142 2.43896484 1091.10923767 C2 1093 2 1093 0 1096 C-0.10307465 1095.22756958 -0.20614929 1094.45513916 -0.31234741 1093.65930176 C-17.96719086 961.14310123 -17.96719086 961.14310123 -76 756 C-76.39010254 755.17741699 -76.78020508 754.35483398 -77.18212891 753.50732422 C-86.96205956 732.99822276 -98.87597429 714.3437668 -112.8125 696.4375 C-113.47862305 695.57946777 -113.47862305 695.57946777 -114.15820312 694.70410156 C-116.9053388 691.22370787 -119.82263375 688.08779658 -123 685 C-124.16471092 683.82745509 -125.32730868 682.65280898 -126.48828125 681.4765625 C-127.7629738 680.19266164 -129.03771434 678.90880841 -130.3125 677.625 C-130.93833984 676.99078125 -131.56417969 676.3565625 -132.20898438 675.703125 C-166.99976263 640.73393249 -212.82116154 619.51643168 -259 604 C-260.03415039 603.64905273 -261.06830078 603.29810547 -262.13378906 602.93652344 C-342.33260603 576.02334398 -427.61164411 565.25020452 -511.05859375 553.50390625 C-512.26768276 553.33364426 -512.26768276 553.33364426 -513.50119781 553.15994263 C-515.06324204 552.94022762 -516.62533839 552.72088284 -518.18749046 552.50193596 C-519.66978114 552.29418035 -521.15196387 552.08565288 -522.63402748 551.87628365 C-526.19984401 551.37585813 -529.76629512 550.90063887 -533.34133911 550.47067261 C-534.03142343 550.38563697 -534.72150774 550.30060133 -535.4325037 550.21298885 C-537.30643523 549.98406937 -539.18145395 549.76409948 -541.05653381 549.54478455 C-544 549 -544 549 -547 547 C-546.22756958 546.89692535 -545.45513916 546.79385071 -544.65930176 546.68765259 C-427.57930732 531.0538862 -427.57930732 531.0538862 -312 507 C-310.78688141 506.70122955 -310.78688141 506.70122955 -309.54925537 506.39642334 C-242.65864535 489.8305708 -174.81950838 464.56652856 -126 414 C-124.79730469 412.81470703 -124.79730469 412.81470703 -123.5703125 411.60546875 C-63.53392186 350.74791168 -42.72477268 256.17413189 0 0 Z " fill="#000000" transform="translate(6134,5499)"/>
<path d="M0 0 C0.33 0 0.66 0 1 0 C1.09498779 0.70329437 1.18997559 1.40658875 1.2878418 2.13119507 C16.80583153 132.14683871 16.80583153 132.14683871 57 256 C57.63868877 257.43590101 58.27669889 258.87210404 58.9140625 260.30859375 C72.83562109 291.97850331 72.83562109 291.97850331 96 316 C96 316.66 96 317.32 96 318 C96.66 318 97.32 318 98 318 C99.4375 319.49609375 99.4375 319.49609375 101 321.4375 C103.14525044 324.15188238 103.14525044 324.15188238 106 326 C106 326.66 106 327.32 106 328 C106.66 328 107.32 328 108 328 C108 328.66 108 329.32 108 330 C108.78890625 330.32871094 108.78890625 330.32871094 109.59375 330.6640625 C112.21385747 332.11873256 114.38332256 333.90411767 116.66772461 335.83300781 C130.02591566 347.07489118 145.28589662 355.67681694 161.05322266 363.08203125 C162.33087038 363.68448365 163.60420233 364.29619306 164.87255859 364.91796875 C191.97889609 378.20140527 221.7214238 386.14817499 251 393 C251.71101868 393.16781982 252.42203735 393.33563965 253.15460205 393.50854492 C302.46242704 405.13219717 352.67908872 412.03908159 402.81005859 418.99780273 C409.87616334 419.97930996 416.93851329 420.98581737 424 422 C424 422.33 424 422.66 424 423 C423.09778214 423.11702774 423.09778214 423.11702774 422.17733765 423.23641968 C296.23959088 438.41355314 296.23959088 438.41355314 83.078125 543.25634766 C66.09775635 566.24897413 54.42072463 592.16079272 45 619 C44.66645508 619.94456055 44.33291016 620.88912109 43.98925781 621.86230469 C19.23712708 692.91692872 10.88861562 769.77611943 1 844 C-1.21389673 840.6791549 -1.49214497 838.81898436 -2.01806641 834.90356445 C-2.19261353 833.63546936 -2.36716064 832.36737427 -2.54699707 831.06085205 C-2.73187159 829.66166434 -2.91672614 828.262474 -3.1015625 826.86328125 C-3.30007174 825.40676712 -3.4994301 823.95036849 -3.69958496 822.49407959 C-4.12563994 819.38749495 -4.54774721 816.2804111 -4.96685791 813.17288208 C-6.06773296 805.02329349 -7.20447602 796.8786708 -8.34375 788.734375 C-8.45714848 787.9228705 -8.57054695 787.111366 -8.68738174 786.27527046 C-25.34454548 654.0017539 -25.34454548 654.0017539 -86.48828125 538.86328125 C-88 537 -88 537 -88 535 C-88.66 535 -89.32 535 -90 535 C-91.32401922 533.46086553 -92.58269257 531.86540568 -93.8125 530.25 C-150.41199833 459.86113344 -265.86632387 445.7830995 -423 423 C-423 422.67 -423 422.34 -423 422 C-422.15303055 421.88217667 -421.3060611 421.76435333 -420.4334259 421.64295959 C-291.75846212 405.79642928 -291.75846212 405.79642928 -85.09887695 305.02001953 C-78.39231839 296.11274993 -72.57526861 286.64485673 -67 277 C-66.64486328 276.39430176 -66.28972656 275.78860352 -65.92382812 275.16455078 C-38.40213313 227.83313673 -27.36086391 170.3243425 -18 117 C-17.76243988 115.64884094 -17.76243988 115.64884094 -17.52008057 114.27038574 C-12.30706768 84.4837966 -8.00391231 54.57204298 -3.88110352 24.61889648 C-3.69410224 23.26348733 -3.50709075 21.90807958 -3.32006836 20.55267334 C-2.97160352 18.02200904 -2.62522555 15.49105623 -2.28125 12.95977783 C-2.0493396 11.27268707 -2.0493396 11.27268707 -1.81274414 9.55151367 C-1.67921036 8.57123703 -1.54567657 7.59096039 -1.40809631 6.58097839 C-1.05344722 4.33802343 -0.59501144 2.18959118 0 0 Z " fill="#000000" transform="translate(5226,1042)"/>
<path d="M0 0 C0.33 0 0.66 0 1 0 C1.10751587 0.78068344 1.21503174 1.56136688 1.32580566 2.3657074 C17.94641976 147.46419209 17.94641976 147.46419209 98 319 C98.63808594 319.66 99.27617187 320.32 99.93359375 321 C105.60264728 326.8206325 111.61180166 331.98570185 118 337 C119.31871094 338.06154297 119.31871094 338.06154297 120.6640625 339.14453125 C194.83358175 397.1221132 306.0978626 406.01995447 423 422 C423 422.33 423 422.66 423 423 C421.81937988 423.16491943 420.63875977 423.32983887 419.42236328 423.49975586 C286.83833536 439.58583791 286.83833536 439.58583791 161 482 C160.09765625 482.43666992 159.1953125 482.87333984 158.265625 483.32324219 C146.14725758 489.26689062 134.82408578 495.93323465 124 504 C122.63875 505.01320312 122.63875 505.01320312 121.25 506.046875 C114.11181948 511.58354066 107.54829686 517.78813344 101 524 C100.24460937 524.71285156 99.48921875 525.42570312 98.7109375 526.16015625 C31.61973213 591.24664433 20.78285647 706.56883496 1 846 C0.67 846 0.34 846 0 846 C-0.25523437 844.18193848 -0.25523437 844.18193848 -0.515625 842.32714844 C-17.50649638 698.51142531 -17.50649638 698.51142531 -87.56640625 537.92578125 C-89 536 -89 536 -89 534 C-89.66 534 -90.32 534 -91 534 C-92.55078125 532.42578125 -92.55078125 532.42578125 -94.3125 530.3125 C-98.58535609 525.29960285 -103.09134007 520.82983089 -108.15625 516.625 C-109.60850413 515.3450472 -110.99406659 513.98942068 -112.3515625 512.609375 C-121.32832221 503.76501588 -132.05575832 497.10954967 -143 491 C-143.72993164 490.59249512 -144.45986328 490.18499023 -145.21191406 489.76513672 C-156.81909287 483.34934392 -168.64415416 477.81114647 -181 473 C-181.88768066 472.65114746 -182.77536133 472.30229492 -183.68994141 471.94287109 C-259.38198348 442.52982316 -343.19479322 434.16066337 -423 423 C-423 422.67 -423 422.34 -423 422 C-422.09778214 421.88297226 -422.09778214 421.88297226 -421.17733765 421.76358032 C-292.00307328 406.74871454 -292.00307328 406.74871454 -164 365 C-163.08154297 364.566875 -162.16308594 364.13375 -161.21679688 363.6875 C-101.88409929 335.44529641 -67.03753999 288.62798897 -44.82568359 227.78320312 C-21.87031688 163.10618377 -13.22009033 93.37057981 -3.88110352 25.70678711 C-3.74076596 24.69121089 -3.74076596 24.69121089 -3.59759331 23.65511799 C-3.15643031 20.46142297 -2.71717777 17.26748873 -2.28125 14.07307434 C-2.0493396 12.38609688 -2.0493396 12.38609688 -1.81274414 10.66503906 C-1.67921036 9.68698303 -1.54567657 8.708927 -1.40809631 7.70123291 C-1.01712979 5.11338388 -0.536155 2.56131982 0 0 Z " fill="#000000" transform="translate(3094,5434)"/>
<path d="M0 0 C2.28903319 2.28903319 2.3956392 3.1163102 2.9375 6.22265625 C3.10499756 7.13321777 3.27249512 8.0437793 3.44506836 8.98193359 C3.6281958 9.99852051 3.81132324 11.01510742 4 12.0625 C6.11842851 23.18654594 8.61771387 34.19436823 11.2878418 45.19723511 C11.71386905 46.95323666 12.13745787 48.70983199 12.55834961 50.46707153 C15.34545552 62.0826553 18.58944148 73.46440738 22.29798889 84.81880188 C23.28104337 87.8732216 24.21314563 90.94245406 25.14558411 94.01263428 C31.28758306 114.20799696 38.88090906 133.96574043 48 153 C48.33209473 153.69593262 48.66418945 154.39186523 49.00634766 155.10888672 C61.77819709 181.68779766 77.12763492 206.7664891 97.44140625 228.2890625 C99.91882688 230.91399367 102.30570936 233.60092296 104.6875 236.3125 C108.53293366 240.58520407 112.59495272 244.31896568 117 248 C117.91007812 248.79792969 118.82015625 249.59585938 119.7578125 250.41796875 C133.13017887 262.09140454 147.54959164 272.2756932 163 281 C163.78793945 281.45197754 164.57587891 281.90395508 165.38769531 282.36962891 C191.82665746 297.48698126 220.01693009 308.78001908 249 318 C249.80969238 318.26103516 250.61938477 318.52207031 251.45361328 318.79101562 C277.15938788 327.03969995 303.39471042 333.5476786 329.86865234 338.79296875 C330.53701614 338.92800308 331.20537994 339.06303741 331.89399719 339.2021637 C333.6944733 339.5652543 335.49671769 339.91954524 337.29907227 340.27319336 C340 341 340 341 342 343 C341.11030518 343.1858667 340.22061035 343.3717334 339.30395508 343.56323242 C307.08360228 350.18727839 307.08360228 350.18727839 275.328125 358.703125 C272.32890631 359.61306211 269.32041654 360.4713767 266.296875 361.296875 C227.67867158 371.88432898 188.96968311 386.53853354 155 408 C153.96359375 408.65226562 152.9271875 409.30453125 151.859375 409.9765625 C127.3277158 425.91558171 103.743719 445.63100777 86 469 C85.07329524 470.1864937 84.14618345 471.37266956 83.21875 472.55859375 C58.17735639 504.90117359 41.10218289 542.44637941 28 581 C27.67467285 581.94085449 27.3493457 582.88170898 27.01416016 583.85107422 C17.16661333 612.48532467 9.74582226 642.133206 4.10522461 671.86889648 C3.97506958 672.54319199 3.84491455 673.21748749 3.71081543 673.91221619 C3.36497766 675.71288558 3.02961028 677.51555718 2.69506836 679.31835938 C2 682 2 682 0 684 C-0.12938965 683.33097656 -0.2587793 682.66195312 -0.39208984 681.97265625 C-10.86436991 628.3977299 -24.99745919 575.22696828 -49 526 C-49.68932617 524.57445801 -49.68932617 524.57445801 -50.39257812 523.12011719 C-62.04519631 499.23954291 -76.80637025 476.91013898 -94.8359375 457.3515625 C-96.27961117 455.78280519 -97.70172337 454.19393114 -99.1015625 452.5859375 C-110.05059775 440.04431531 -122.62122325 429.83255499 -136 420 C-137.03253906 419.23171875 -138.06507813 418.4634375 -139.12890625 417.671875 C-183.1241857 386.03745302 -236.28254076 367.52959661 -288.51074219 354.85400391 C-291.80865015 354.04683332 -295.09654951 353.20866285 -298.3828125 352.35546875 C-312.49096375 348.70938916 -326.68578726 345.72043074 -341 343 C-340.67 342.34 -340.34 341.68 -340 341 C-338.06762695 340.42504883 -338.06762695 340.42504883 -335.48828125 339.95703125 C-334.51818115 339.77414551 -333.54808105 339.59125977 -332.54858398 339.40283203 C-330.94672241 339.11061768 -330.94672241 339.11061768 -329.3125 338.8125 C-306.21362233 334.38221072 -283.48640175 328.89290481 -261 322 C-259.66041429 321.59939654 -258.32059651 321.19956767 -256.98046875 320.80078125 C-252.97000085 319.58354658 -248.98263464 318.3045594 -245 317 C-243.50750732 316.51587646 -243.50750732 316.51587646 -241.98486328 316.02197266 C-201.97949712 302.95460076 -161.80479039 285.84848732 -129 259 C-128.07316406 258.26394531 -127.14632813 257.52789062 -126.19140625 256.76953125 C-111.45203585 244.95712802 -97.63380435 231.90172692 -86 217 C-85.51805176 216.39446289 -85.03610352 215.78892578 -84.53955078 215.16503906 C-75.86788638 204.26398135 -68.16850849 192.94036352 -61 181 C-60.4438501 180.08259033 -59.8877002 179.16518066 -59.31469727 178.2199707 C-54.9750901 170.94543285 -51.21920675 163.50853925 -47.6875 155.8125 C-47.40931427 155.20784912 -47.13112854 154.60319824 -46.84451294 153.98022461 C-32.33354863 122.37611991 -20.90459894 89.61215172 -12.69970703 55.8203125 C-12.07570504 53.30514468 -11.41189187 50.80822475 -10.71484375 48.3125 C-6.28222663 32.40929782 -3.23218465 16.18053775 0 0 Z " fill="#FEFEFE" transform="translate(1598,5812)"/>
<path d="M0 0 C1.96348371 3.43147436 2.70293681 6.76284606 3.48046875 10.625 C3.75622167 11.97040343 4.03210632 13.31577987 4.30810547 14.66113281 C4.45101013 15.36774048 4.59391479 16.07434814 4.7411499 16.80236816 C13.43321706 59.59828913 25.15684861 102.99469481 43 143 C43.26699707 143.60408691 43.53399414 144.20817383 43.80908203 144.83056641 C54.95534719 169.91796129 68.67471257 193.67195495 86 215 C86.47195801 215.58765137 86.94391602 216.17530273 87.43017578 216.78076172 C99.31576634 231.48808106 112.85238027 245.64430097 128 257 C129.34782487 258.0492626 130.69546432 259.09876341 132.04296875 260.1484375 C144.37299518 269.61713265 157.43446729 277.44122891 171 285 C171.74926758 285.42619629 172.49853516 285.85239258 173.27050781 286.29150391 C224.44151198 315.38754653 283.9726665 328.68474909 341 341 C338.46017527 343.53982473 336.81606471 343.62009968 333.3046875 344.296875 C332.12648437 344.53003418 330.94828125 344.76319336 329.734375 345.00341797 C328.46078125 345.24979004 327.1871875 345.49616211 325.875 345.75 C323.20433073 346.28223801 320.53548934 346.8232145 317.8671875 347.3671875 C317.19564636 347.50395905 316.52410522 347.64073059 315.83221436 347.78164673 C305.80028667 349.84243601 295.89900056 352.38394588 286 355 C284.3308252 355.43650879 284.3308252 355.43650879 282.62792969 355.88183594 C226.6166767 370.60523902 171.46111284 391.27184257 126 428 C125.45698242 428.43860352 124.91396484 428.87720703 124.35449219 429.32910156 C110.28612478 440.80527999 97.04746802 453.56804756 86 468 C85.21753906 468.97710938 84.43507812 469.95421875 83.62890625 470.9609375 C35.76700035 531.06352348 16.14364675 609.15078153 1 683 C-0.84690208 680.22964687 -1.33669953 679.11618605 -1.90234375 676.00390625 C-2.14549316 674.7351062 -2.14549316 674.7351062 -2.39355469 673.44067383 C-2.66280762 672.01597778 -2.66280762 672.01597778 -2.9375 670.5625 C-8.8445181 640.98774942 -16.42190908 611.59788285 -26 583 C-26.53584717 581.39415039 -26.53584717 581.39415039 -27.08251953 579.75585938 C-30.68843395 569.01817493 -34.38595547 558.35219056 -39 548 C-39.61621107 546.57305725 -40.23206383 545.14595975 -40.84765625 543.71875 C-52.12353879 517.84775741 -65.4388145 493.17222303 -83 471 C-83.70253906 470.10539062 -84.40507812 469.21078125 -85.12890625 468.2890625 C-91.0719996 460.86816955 -97.45670601 453.88982358 -104 447 C-104.78503906 446.17242188 -105.57007812 445.34484375 -106.37890625 444.4921875 C-111.88180666 438.84162429 -117.82024259 433.89097381 -124 429 C-125.13057162 428.09029505 -126.26076594 427.18012105 -127.390625 426.26953125 C-134.67569675 420.43096848 -142.09644393 414.98748577 -150 410 C-151.03382812 409.34 -152.06765625 408.68 -153.1328125 408 C-181.8286985 390.04674091 -212.58241634 377.36414453 -244.68031311 367.05114746 C-247.9792734 365.99033054 -251.26236896 364.90808384 -254.53320312 363.76220703 C-265.5385555 359.9165339 -276.77404647 357.13449828 -288.08496094 354.34326172 C-291.46730452 353.50807336 -294.84705879 352.6630039 -298.2265625 351.81640625 C-312.429592 348.27651696 -326.67635761 345.01446954 -341 342 C-338.06341545 340.04227696 -336.62833723 339.57157338 -333.2578125 338.95703125 C-332.28900146 338.77414551 -331.32019043 338.59125977 -330.32202148 338.40283203 C-328.73949585 338.11061768 -328.73949585 338.11061768 -327.125 337.8125 C-304.42982318 333.43421178 -282.08406246 327.81175606 -260 321 C-258.91428711 320.66774414 -257.82857422 320.33548828 -256.70996094 319.99316406 C-232.3006929 312.48208158 -208.54092103 303.9659863 -185.5625 292.8125 C-184.88184479 292.48265106 -184.20118958 292.15280212 -183.49990845 291.81295776 C-170.87820257 285.66524799 -158.58275172 278.99400072 -146.9375 271.125 C-146.17783936 270.61380615 -145.41817871 270.1026123 -144.63549805 269.57592773 C-122.78662746 254.74044553 -102.16287323 236.96967568 -86 216 C-85.20335938 214.99710938 -84.40671875 213.99421875 -83.5859375 212.9609375 C-65.937076 190.6199108 -52.86533893 165.77668112 -41 140 C-40.57477051 139.07977051 -40.14954102 138.15954102 -39.71142578 137.21142578 C-27.1271554 109.51529808 -18.48235776 78.69826449 -11.1875 49.1875 C-10.9488623 48.22972656 -10.71022461 47.27195312 -10.46435547 46.28515625 C-6.69318344 30.92412199 -3.37771733 15.45131505 0 0 Z " fill="#FEFEFE" transform="translate(6271,2268)"/>
</svg>
